<svg width="62" height="50" viewBox="0 0 62 50" fill="none" xmlns="http://www.w3.org/2000/svg">
<path d="M16.9439 45.5504C16.4971 45.5504 16.1497 45.418 15.8849 45.1367C15.6202 44.8554 15.4878 44.4749 15.4878 44.0281C15.4878 42.8698 16.1828 41.3641 17.5561 39.5108C18.3835 38.4518 19.459 37.2439 20.7828 35.8871C22.1065 34.5468 23.2317 33.5209 24.1418 32.8259C24.3238 32.7101 24.4065 32.6274 24.4065 32.5612C24.4065 32.495 24.1583 32.4122 23.6619 32.2964C22.9504 32.0979 22.0569 31.9986 20.9979 31.9986C19.3101 31.9986 16.6626 32.2799 13.072 32.859C11.0367 33.1734 9.58059 33.3885 8.67052 33.5043C7.77699 33.6036 7.01584 33.6533 6.37051 33.6533H6.1885C2.91223 33.6533 0.92662 32.5612 0.215108 30.377C0.0661872 29.9302 0 29.3345 0 28.5734C0 26.7202 0.777699 24.2547 2.3331 21.1935C3.59065 18.7115 5.21224 16.1964 7.18131 13.6316C9.72951 10.405 12.4266 7.65825 15.2561 5.42444C17.3907 3.76976 19.4425 2.54529 21.4115 1.7676C23.3641 0.989896 25.0518 0.592773 26.4749 0.592773C28.1792 0.592773 29.4698 1.05608 30.3468 1.9827C31.2734 2.85968 31.7367 4.18343 31.7367 5.95393C31.7367 7.82372 31.2238 9.92516 30.2144 12.2748C29.5526 13.7475 28.1295 16.1302 25.9454 19.3734C25.6641 19.787 25.4986 20.0352 25.449 20.1345C25.2835 20.3993 25.0684 20.5317 24.8202 20.5317C24.7209 20.5317 24.6382 20.5151 24.5554 20.4489C24.39 20.2835 24.3072 20.118 24.3072 19.9691C24.3072 19.8367 24.3734 19.6547 24.5058 19.4065C24.6713 19.1086 25.1346 18.3806 25.9123 17.2388C27.236 15.2698 28.1957 13.6647 28.7914 12.4403C29.4036 11.1993 29.8339 10.0906 30.0821 9.06473C30.3799 7.87336 30.5288 6.84746 30.5288 5.98703C30.5288 5.02731 30.3799 4.23307 30.0655 3.62084C29.4864 2.42947 28.3116 1.83378 26.5245 1.80069C25.9785 1.80069 25.4655 1.83378 24.9856 1.91652C22.7022 2.34673 20.2533 3.42227 17.672 5.17623C14.0482 7.64171 10.6396 10.9842 7.47915 15.2201C4.9144 18.6784 3.04461 21.9878 1.90288 25.1813C1.42302 26.5878 1.19137 27.7791 1.19137 28.7554C1.19137 31.2209 2.86259 32.4619 6.22159 32.4619C7.39641 32.4619 9.77915 32.1806 13.3367 31.618C16.613 31.0885 19.095 30.8072 20.7993 30.8072C23.4137 30.8072 25.2008 31.2871 26.1439 32.2468C26.7892 32.8425 27.1036 33.5871 27.1036 34.5137C27.1036 35.4403 26.7892 36.4993 26.1274 37.6907C25.3331 39.1137 24.1583 40.5864 22.6029 42.1087C20.2202 44.4087 18.3504 45.5504 16.9439 45.5504ZM16.9605 44.3756C17.0928 44.3756 17.2914 44.3259 17.5396 44.2432C18.3173 43.9784 19.2936 43.3828 20.4353 42.4396C21.577 41.4964 22.6029 40.454 23.5461 39.3123C25.118 37.3266 25.9123 35.7382 25.9123 34.5302C25.9123 34.0669 25.7799 33.6533 25.4986 33.3058C24.7374 33.8518 23.695 34.7619 22.3713 36.0194C21.2626 37.095 20.336 38.0712 19.5914 38.9151C17.6554 41.1986 16.6792 42.9029 16.6792 44.0115C16.6792 44.2597 16.7784 44.3756 16.9605 44.3756Z" fill="white"/>
<path d="M31.1748 49.7367C30.9432 49.7367 30.7611 49.6209 30.6288 49.4058C30.4302 49.0583 30.1985 47.5526 29.9173 44.8885C29.3712 39.4777 29.0568 34.8612 28.9741 31.0223C28.941 29.9633 28.9079 29.318 28.8914 29.1029C28.8748 29.0036 28.8748 28.8216 28.8748 28.5403C28.8748 28.1597 28.941 25.9259 29.0568 21.8388C28.9079 21.8719 28.5108 21.9216 27.8655 21.9878C24.7877 22.3683 22.8683 22.5504 22.0906 22.5504C21.5611 22.5504 21.2302 22.4842 21.0978 22.3683C20.8827 22.2194 20.7669 22.087 20.7503 21.9547C20.7338 21.8223 20.7172 21.7396 20.7172 21.6899C20.7172 21.5245 20.7834 21.359 20.9158 21.2101C21.2467 20.8626 21.71 20.6806 22.3223 20.6806C22.8352 20.6806 23.1496 20.8295 23.282 21.1108C23.2985 21.2266 23.3482 21.2928 23.3978 21.2928C23.5633 21.2928 24.4899 21.1935 26.1777 20.9784L28.9906 20.664C29.0568 20.664 29.123 20.118 29.1726 19.0424C29.2388 17.9504 29.2885 17.3381 29.3381 17.1892C29.3381 17.1396 29.2885 17.1065 29.1726 17.0899C29.0568 17.0899 28.941 17.0403 28.8252 16.941C28.7093 16.8583 28.6597 16.7424 28.6597 16.6101C28.6597 16.4446 28.7424 16.1302 28.8914 15.6834C29.3712 14.3762 29.6525 13.2676 29.7352 12.3741C29.818 11.5302 29.9173 10.9345 30.0165 10.6036C30.1489 10.1568 30.3806 9.94171 30.7115 9.94171C30.8108 9.94171 30.9432 9.99135 31.059 10.0741C31.2575 10.1899 31.3568 10.3388 31.3568 10.5539C31.3403 11.1993 31.2244 11.9604 31.0259 12.8208C30.8604 13.4827 30.695 14.7899 30.5295 16.7424C30.3971 18.695 30.3309 19.9194 30.3309 20.4324V20.5151C34.6662 20.1676 37.4295 19.9525 38.6209 19.9029C40.6892 19.8201 42.5425 19.7705 44.1971 19.7705C46.613 19.7705 48.3173 19.8201 49.3101 19.9029C49.9554 20.0022 50.2864 20.2338 50.2864 20.5978C50.2864 20.7633 50.2367 20.8957 50.1209 21.0115C50.0216 21.1273 49.8892 21.1935 49.7072 21.1935C49.5748 21.177 49.3597 21.1439 49.0784 21.0942C48.4 20.9784 47.0266 20.9288 44.9748 20.9288H43.8496C39.382 21.0281 35.2288 21.2597 31.4065 21.6403L30.2813 21.7396C30.182 24.8835 30.1324 26.9187 30.1324 27.8453C30.1324 31.4525 30.3309 35.6058 30.7115 40.3216C31.1252 45.4015 31.4561 48.1648 31.6712 48.5785C31.7539 48.6943 31.787 48.8267 31.787 48.9921C31.787 49.1576 31.7705 49.29 31.7539 49.3562C31.6216 49.6044 31.423 49.7367 31.1748 49.7367Z" fill="white"/>
<path d="M39.0186 45.6828H38.3733C37.8935 45.6828 37.5129 45.6497 37.2316 45.5835C35.5769 45.236 34.4186 44.359 33.7568 42.9691C33.5417 42.5223 33.3927 42.1418 33.3266 41.7943C33.2604 41.4633 33.2273 41.0166 33.2273 40.4705C33.2273 39.8418 33.2438 39.3784 33.2604 39.1137C33.2769 38.8324 33.3266 38.5677 33.3762 38.3029C34.2532 34.5964 36.3215 31.3863 39.5812 28.6892C41.1201 27.4482 42.9899 26.505 45.2071 25.8432C45.6705 25.7273 45.9187 25.6446 45.9352 25.6115C45.9518 25.5784 45.9848 25.1648 46.0014 24.354C46.1172 18.182 46.233 14.2273 46.3158 12.4899C45.8525 12.3906 45.6208 12.1424 45.6208 11.7784C45.6208 11.5798 45.687 11.3482 45.8028 11.0669C46.0345 10.587 46.3158 10.3554 46.6467 10.3554C46.8287 10.3554 46.9777 10.405 47.11 10.5208C47.292 10.6698 47.4079 10.9014 47.4575 11.2158C47.4741 11.282 47.4741 11.4806 47.4741 11.7949C47.4741 12.2252 47.4575 13.1849 47.4244 14.6741C47.2755 20.4655 47.1928 24.0065 47.1928 25.3137H47.2424C47.3251 25.3137 47.5072 25.2971 47.7719 25.264C48.1856 25.2144 48.6489 25.1813 49.1784 25.1813C49.7079 25.1813 50.1381 25.2144 50.4525 25.2806C50.9323 25.3964 51.3626 25.5784 51.7762 25.8266C52.3388 26.1907 52.6201 26.5381 52.6201 26.8691C52.6201 26.9849 52.587 27.0842 52.5043 27.2C52.3885 27.3655 52.2064 27.4482 51.9913 27.4482C51.9417 27.4482 51.7928 27.3489 51.528 27.1504C51.2136 26.8525 50.8827 26.654 50.5352 26.5381C50.1877 26.4389 49.7575 26.3892 49.2446 26.3892C48.8971 26.3892 48.5827 26.4058 48.2848 26.4223C47.6395 26.472 47.2755 26.5216 47.1928 26.5878C47.1431 26.7202 47.1266 27.9943 47.1266 30.3935C47.1266 32.4784 47.1431 34.6461 47.1762 36.8799C47.1928 38.154 47.2259 38.9482 47.2589 39.2626V39.3453C47.2589 39.5605 47.1762 39.7425 47.0107 39.8583C46.9115 39.9245 46.7956 39.9576 46.6798 39.9576C46.4316 39.9576 46.2661 39.8914 46.1834 39.7259C46.1007 39.577 46.0345 39.0641 46.0179 38.2036C45.9518 36.3504 45.9187 34.1331 45.9187 31.5684L45.9518 26.8525L45.4223 27.018C42.8906 27.7626 40.7395 29.0532 38.9525 30.8899C37.1489 32.6604 35.8417 34.6626 35.0309 36.8964C34.6999 37.823 34.5014 38.5842 34.4517 39.1799C34.4352 39.4281 34.4186 39.7756 34.4186 40.2554C34.4186 40.8346 34.4352 41.2482 34.4848 41.4964C34.5014 41.6123 34.551 41.7612 34.6007 41.9101C34.915 42.9029 35.5438 43.6144 36.4704 44.0612C37.0661 44.359 37.7611 44.5079 38.5553 44.5079L39.1179 44.4914C40.5906 44.4749 42.2453 44.0115 44.082 43.0684C47.6892 41.2317 50.8661 38.4518 53.6295 34.7453C56.3762 31.0554 58.2626 27.0014 59.2885 22.6165C59.7187 20.6475 59.9338 18.7942 59.9338 17.0568C59.9338 15.5345 59.7683 14.095 59.4374 12.7381C58.3453 8.7007 56.2439 6.21868 53.1496 5.29206C52.769 5.17623 52.4215 5.12659 52.1072 5.12659C51.7928 5.11005 51.3626 5.11005 50.8165 5.11005C50.287 5.11005 49.8733 5.12659 49.5424 5.17623C49.1618 5.22587 48.6654 5.32515 48.0532 5.50717C46.2827 6.02012 44.5949 6.86401 42.9899 8.02228C40.8553 9.54459 39.4985 11.1165 38.8863 12.7381L39.1179 12.8208C39.4158 12.9201 39.5481 13.1187 39.5481 13.3834C39.5481 13.5324 39.4985 13.6482 39.3827 13.764C39.2834 13.8798 39.0848 13.946 38.8366 13.946C38.3568 13.946 38.0258 13.7475 37.8438 13.3503C37.7445 13.2014 37.6949 13.0194 37.6949 12.8208C37.6949 12.4899 37.8273 12.0762 38.092 11.5964C39.2668 9.41221 41.2856 7.49278 44.1482 5.85465C46.6136 4.53091 48.9302 3.85249 51.0813 3.85249C54.0431 3.85249 56.4424 5.06041 58.2791 7.47624C60.182 9.9748 61.1417 13.2511 61.1417 17.3216C61.1417 17.9504 61.1086 18.5626 61.059 19.1417C60.4467 25.1151 58.1964 30.7079 54.2748 35.8871C50.4359 40.7518 46.2661 43.8792 41.782 45.2691C41.269 45.418 40.8222 45.5338 40.4582 45.5835C40.0942 45.6331 39.6143 45.6662 39.0186 45.6828Z" fill="white"/>
</svg>
