<svg width="106" height="106" viewBox="0 0 106 106" fill="none" xmlns="http://www.w3.org/2000/svg">
<path d="M23.6324 28.0988H16.4597L10.084 47.9944H13.9265L15.6912 42.5295H24.5147L26.3648 47.9944H30.2073L23.6324 28.0988ZM16.7159 39.3701L20.046 29.095L23.4616 39.3701H16.7159ZM35.4659 48.0229V28.0988H31.9365V48.0229H35.4659ZM43.2462 33.336V28.0988H39.7168V33.336H37.5821V36.0969H37.9236C37.9236 36.0969 39.7168 36.0969 39.7168 38.0609V44.4081C39.7168 46.429 41.3392 48.0229 43.3316 48.0229H45.7509V44.892H44.3562C43.7585 44.892 43.2462 44.3796 43.2462 43.7819V38.317C43.2462 36.2108 38.7775 36.0969 38.0375 36.0969H45.7509V33.336H43.2462ZM21.2984 63.5274C21.2984 63.5274 17.4844 62.645 17.3705 62.6165C16.0897 62.275 15.0081 61.6488 15.0081 60.3395C15.0081 58.9164 16.7443 57.7494 18.936 57.7494C21.6115 57.7494 23.12 59.4002 23.12 61.0226H26.8487C26.8487 57.5501 24.1447 54.6184 18.936 54.6184C14.5242 54.6184 11.2794 56.9809 11.2794 60.368C11.2794 63.8689 13.4995 65.5482 16.7443 66.2883C16.7443 66.2883 20.5868 67.1706 20.6722 67.1991C22.1523 67.5691 23.3762 68.3091 23.3762 69.7607C23.3762 71.5539 21.1561 72.6924 18.8221 72.4932C15.6627 72.237 14.4957 70.1592 14.4957 68.6792H10.7956C10.7956 71.9239 13.4995 75.5103 18.879 75.6526C22.9208 75.738 27.1048 73.5179 27.1048 69.7607C27.1048 66.2883 24.7139 64.3528 21.2984 63.5274ZM36.1745 72.3224C33.9259 72.3224 32.7305 70.1877 32.7305 67.7399C32.7305 65.2636 34.2106 63.1573 36.1461 63.1573C37.6831 63.1573 38.907 64.2959 39.3339 65.8613H43.1479C42.5218 62.1896 39.5901 60.0264 36.1176 60.0264C32.2182 60.0264 28.8311 63.442 29.0303 68.1953C29.2011 72.6355 32.3889 75.4249 36.203 75.4249C39.7608 75.4249 42.4079 73.0624 43.091 69.8461H39.1631C38.85 71.127 37.7115 72.3224 36.1745 72.3224ZM53.1275 60.0833C50.9644 60.2541 49.1143 62.5027 49.0858 66.459C49.1143 64.4951 49.9966 63.0719 52.0175 63.0719C54.2376 63.0719 54.9492 64.7228 54.9492 66.5444V75.1118H58.507V65.349C58.507 61.9334 55.6892 59.8841 53.1275 60.0833ZM45.5564 55.1877V75.1118H49.0858V55.1877H45.5564ZM68.0868 60.0264C64.3012 60.0264 60.8287 62.8442 60.8287 67.7399C60.8287 72.6355 64.2443 75.3964 68.0868 75.4249C71.9578 75.3964 75.3733 72.607 75.3733 67.7399C75.3733 62.8442 71.8724 60.0264 68.0868 60.0264ZM68.0868 72.2939C66.2082 72.2939 64.3866 70.8139 64.3866 67.7399C64.3866 64.8366 66.1798 63.1858 68.0868 63.1573C70.0223 63.1858 71.8154 64.8651 71.8154 67.7399C71.8154 70.8139 69.9938 72.2939 68.0868 72.2939ZM84.4864 60.0264C80.7008 60.0264 77.2283 62.8442 77.2283 67.7399C77.2283 72.6355 80.6439 75.3964 84.4864 75.4249C88.3573 75.3964 91.7729 72.607 91.7729 67.7399C91.7729 62.8442 88.2719 60.0264 84.4864 60.0264ZM84.4864 72.2939C82.6078 72.2939 80.7862 70.8139 80.7862 67.7399C80.7862 64.8366 82.5794 63.1858 84.4864 63.1573C86.4219 63.1858 88.215 64.8651 88.215 67.7399C88.215 70.8139 86.3934 72.2939 84.4864 72.2939ZM97.8119 75.1118V55.1877H94.2825V75.1118H97.8119ZM97.854 43.6759H49.5651V47.9944H97.854V43.6759Z" fill="black"/>
</svg>
