<svg width="168" height="38" viewBox="0 0 168 38" fill="none" xmlns="http://www.w3.org/2000/svg">
<mask id="path-1-inside-1_294_807" fill="white">
<path d="M15.5609 37.5993C15.5609 37.6556 16.0579 37.7137 16.7026 37.7329C18.3687 37.7822 21.3907 37.6892 21.43 37.5874C21.4487 37.5391 21.734 37.4996 22.0643 37.4996C22.3969 37.4996 22.6647 37.4536 22.6647 37.3965C22.6647 37.3398 22.8474 37.2935 23.0707 37.2935C23.2939 37.2935 23.4766 37.2471 23.4766 37.1904C23.4766 37.1337 23.6593 37.0873 23.8825 37.0873C24.1058 37.0873 24.2885 37.0409 24.2885 36.9842C24.2885 36.9275 24.4227 36.8811 24.5869 36.8811C24.7511 36.8811 24.9136 36.8347 24.9481 36.778C24.9826 36.7213 25.1196 36.6749 25.2526 36.6749C25.3855 36.6749 25.5225 36.6285 25.557 36.5719C25.5915 36.5152 25.6833 36.4688 25.7609 36.4688C25.9435 36.4688 28.4277 35.2317 28.8313 34.9398C29.0013 34.8169 29.1903 34.7163 29.2514 34.7163C29.3126 34.7163 29.3626 34.6699 29.3626 34.6132C29.3626 34.5565 29.4243 34.5101 29.4998 34.5101C29.5752 34.5101 29.7803 34.371 29.9556 34.2009C30.1308 34.0308 30.3247 33.8916 30.3866 33.8916C30.4484 33.8916 30.627 33.7524 30.7834 33.5824C30.9398 33.4123 31.0978 33.2731 31.1345 33.2731C31.2806 33.2731 33.1175 31.4649 33.1175 31.3212C33.1175 31.2607 33.1632 31.2114 33.219 31.2114C33.2748 31.2114 33.3205 31.1604 33.3205 31.0981C33.3205 31.0358 33.4499 30.8618 33.6081 30.7115C33.7662 30.5612 33.9551 30.3251 34.0277 30.187C34.1004 30.0489 34.2013 29.8865 34.2519 29.8262C34.6624 29.3378 35.6546 27.5123 35.6546 27.2455C35.6546 27.1588 35.7003 27.0879 35.7561 27.0879C35.8119 27.0879 35.8576 26.9951 35.8576 26.8817C35.8576 26.7684 35.9033 26.6756 35.9591 26.6756C36.0149 26.6756 36.0606 26.5364 36.0606 26.3663C36.0606 26.1962 36.1062 26.0571 36.162 26.0571C36.2178 26.0571 36.2635 25.9179 36.2635 25.7478C36.2635 25.5777 36.3092 25.4385 36.365 25.4385C36.4208 25.4385 36.4665 25.2762 36.4665 25.0777C36.4665 24.8793 36.5122 24.7169 36.568 24.7169C36.6238 24.7169 36.6695 24.4888 36.6695 24.2101C36.6695 23.9313 36.7181 23.6868 36.7775 23.6667C36.9335 23.6138 36.9401 19.1216 36.7842 19.0688C36.7211 19.0475 36.6695 18.8251 36.6695 18.5748C36.6695 18.3244 36.6238 18.1194 36.568 18.1194C36.5122 18.1194 36.4665 17.9803 36.4665 17.8102C36.4665 17.6401 36.4208 17.5009 36.365 17.5009C36.3092 17.5009 36.2635 17.3617 36.2635 17.1916C36.2635 17.0216 36.2178 16.8824 36.162 16.8824C36.1062 16.8824 36.0606 16.7896 36.0606 16.6762C36.0606 16.5628 36.0234 16.47 35.978 16.47C35.9326 16.47 35.8327 16.3077 35.7561 16.1092C35.6795 15.9108 35.5796 15.7484 35.5342 15.7484C35.4888 15.7484 35.4516 15.6881 35.4516 15.6144C35.4516 15.5011 35.2424 15.2131 34.2901 14.0162C34.0029 13.6551 33.5064 13.1713 33.4232 13.1713C33.3717 13.1713 33.2249 13.0663 33.0967 12.9382C32.6141 12.4551 31.0589 11.5219 30.7367 11.5219C30.6508 11.5219 30.5804 11.4755 30.5804 11.4188C30.5804 11.3621 30.4891 11.3157 30.3775 11.3157C30.2658 11.3157 30.1745 11.2744 30.1745 11.2239C30.1745 11.1337 29.8352 11.0529 28.9821 10.9398C28.7449 10.9083 28.5508 10.8409 28.5508 10.7899C28.5508 10.7372 27.2824 10.6972 25.6078 10.6972C23.7134 10.6972 22.6647 10.6605 22.6647 10.5941C22.6647 10.5374 22.4821 10.491 22.2588 10.491C22.0355 10.491 21.8529 10.4447 21.8529 10.388C21.8529 10.3313 21.7615 10.2849 21.6499 10.2849C21.5383 10.2849 21.4469 10.2385 21.4469 10.1818C21.4469 10.1251 21.3997 10.0787 21.3421 10.0787C21.2056 10.0787 20.5336 9.39606 20.5336 9.25741C20.5336 9.19886 20.4879 9.15092 20.4321 9.15092C20.3763 9.15092 20.3306 9.05815 20.3306 8.94475C20.3306 8.83136 20.2849 8.73858 20.2291 8.73858C20.1733 8.73858 20.1276 8.59941 20.1276 8.42932C20.1276 8.25923 20.082 8.12006 20.0262 8.12006C19.9697 8.12006 19.9247 7.84513 19.9247 7.50154C19.9247 7.15796 19.9697 6.88303 20.0262 6.88303C20.082 6.88303 20.1276 6.74386 20.1276 6.57377C20.1276 6.40368 20.1733 6.26451 20.2291 6.26451C20.2849 6.26451 20.3306 6.17173 20.3306 6.05834C20.3306 5.94494 20.3763 5.85216 20.4321 5.85216C20.4879 5.85216 20.5336 5.78258 20.5336 5.69753C20.5336 5.61249 20.5678 5.5428 20.6097 5.5427C20.731 5.54239 21.2141 4.70987 21.3872 4.20279C21.4742 3.94765 21.5461 3.52076 21.5469 3.25408C21.5483 2.79421 21.5076 2.64124 21.1773 1.86427C21.0011 1.44976 20.2968 0.697853 20.0848 0.697853C19.9967 0.697853 19.9247 0.651466 19.9247 0.594769C19.9247 0.538071 19.8371 0.49168 19.7301 0.49168C19.6232 0.49168 19.5166 0.433746 19.4934 0.362823C19.4402 0.200874 15.7329 0.226543 15.6793 0.389111C15.6606 0.445499 15.3753 0.49168 15.045 0.49168C14.7124 0.49168 14.4446 0.537659 14.4446 0.594769C14.4446 0.651466 14.2619 0.697853 14.0386 0.697853C13.8154 0.697853 13.6327 0.74424 13.6327 0.800938C13.6327 0.857635 13.4957 0.904026 13.3283 0.904026C13.1608 0.904026 13.0238 0.950417 13.0238 1.00711C13.0238 1.06381 12.8862 1.1102 12.7179 1.1102C12.5498 1.1102 12.3328 1.15112 12.2359 1.20123C12.139 1.25132 11.9455 1.3374 11.806 1.39235C11.2326 1.61852 9.11425 2.69432 9.0829 2.77535C9.06422 2.82339 8.98435 2.86266 8.9053 2.86266C8.82614 2.86266 8.7615 2.90905 8.7615 2.96575C8.7615 3.02245 8.70162 3.06884 8.62845 3.06884C8.55518 3.06884 8.39727 3.16161 8.27742 3.27501C8.15767 3.3884 8.01884 3.48118 7.96891 3.48118C7.91908 3.48118 7.73489 3.62035 7.55963 3.79044C7.38447 3.96053 7.19713 4.0997 7.14334 4.0997C6.88253 4.0997 3.78881 7.24063 3.78881 7.50546C3.78881 7.55999 3.74314 7.60463 3.68732 7.60463C3.63151 7.60463 3.58584 7.66401 3.58584 7.73647C3.58584 7.80905 3.4945 7.93523 3.38287 8.01697C3.27124 8.09872 3.17991 8.22686 3.17991 8.3018C3.17991 8.37664 3.08857 8.53756 2.97694 8.6592C2.86531 8.78094 2.77397 8.94135 2.77397 9.01577C2.77397 9.0901 2.7283 9.15092 2.67249 9.15092C2.61667 9.15092 2.571 9.21659 2.571 9.297C2.571 9.3773 2.53234 9.45843 2.48505 9.47739C2.43776 9.49626 2.13493 10.0684 1.81221 10.7488C1.4895 11.4291 1.18565 12.0663 1.13714 12.1648C1.08853 12.2632 1.04875 12.4372 1.04875 12.5513C1.04875 12.6655 1.00308 12.7589 0.947269 12.7589C0.891453 12.7589 0.845785 12.9213 0.845785 13.1197C0.845785 13.3182 0.800118 13.4805 0.744302 13.4805C0.688486 13.4805 0.642818 13.6197 0.642818 13.7898C0.642818 13.9599 0.597151 14.0991 0.541335 14.0991C0.485519 14.0991 0.439852 14.2846 0.439852 14.5114C0.439852 14.7382 0.394184 14.9237 0.338368 14.9237C0.282146 14.9237 0.236885 15.1958 0.236885 15.5337C0.236885 15.9004 0.190506 16.1593 0.120585 16.1829C-0.0420932 16.2381 -0.0392517 21.8573 0.123527 21.9124C0.188375 21.9343 0.236885 22.1895 0.236885 22.5091C0.236885 22.8162 0.282552 23.0676 0.338368 23.0676C0.394184 23.0676 0.439852 23.2531 0.439852 23.4799C0.439852 23.7067 0.485519 23.8922 0.541335 23.8922C0.597151 23.8922 0.642818 24.0314 0.642818 24.2015C0.642818 24.3716 0.688486 24.5108 0.744302 24.5108C0.800118 24.5108 0.845785 24.6506 0.845785 24.8215C0.845785 24.9923 0.886075 25.2127 0.935396 25.3111C0.984716 25.4096 1.06946 25.6061 1.12355 25.7478C1.27973 26.1561 2.39239 28.4741 2.45978 28.5311C2.49317 28.5595 2.58491 28.7095 2.66356 28.8644C2.74211 29.0193 2.89048 29.2378 2.99318 29.3497C3.09588 29.4618 3.17991 29.6147 3.17991 29.6895C3.17991 29.7645 3.27124 29.8926 3.38287 29.9743C3.4945 30.0561 3.58584 30.1823 3.58584 30.2548C3.58584 30.3273 3.63151 30.3867 3.68732 30.3867C3.74314 30.3867 3.78881 30.4309 3.78881 30.485C3.78881 30.7523 6.87928 33.8916 7.14243 33.8916C7.19571 33.8916 7.23924 33.938 7.23924 33.9947C7.23924 34.0514 7.30775 34.0978 7.39147 34.0978C7.47519 34.0978 7.54369 34.1363 7.54369 34.1834C7.54369 34.2306 7.66933 34.3349 7.82277 34.4152C7.97622 34.4956 8.12469 34.5876 8.1526 34.6198C8.40133 34.9067 10.7733 36.1916 11.806 36.599C11.9455 36.6539 12.139 36.74 12.2359 36.7901C12.3328 36.8402 12.5242 36.8811 12.6612 36.8811C12.7982 36.8811 12.9386 36.9275 12.9731 36.9842C13.0076 37.0409 13.17 37.0873 13.3342 37.0873C13.4984 37.0873 13.6327 37.1337 13.6327 37.1904C13.6327 37.2471 13.8154 37.2935 14.0386 37.2935C14.2619 37.2935 14.4446 37.3398 14.4446 37.3965C14.4446 37.4532 14.6957 37.4996 15.0027 37.4996C15.3097 37.4996 15.5609 37.5445 15.5609 37.5993Z"/>
</mask>
<path d="M15.5609 37.5993C15.5609 37.6556 16.0579 37.7137 16.7026 37.7329C18.3687 37.7822 21.3907 37.6892 21.43 37.5874C21.4487 37.5391 21.734 37.4996 22.0643 37.4996C22.3969 37.4996 22.6647 37.4536 22.6647 37.3965C22.6647 37.3398 22.8474 37.2935 23.0707 37.2935C23.2939 37.2935 23.4766 37.2471 23.4766 37.1904C23.4766 37.1337 23.6593 37.0873 23.8825 37.0873C24.1058 37.0873 24.2885 37.0409 24.2885 36.9842C24.2885 36.9275 24.4227 36.8811 24.5869 36.8811C24.7511 36.8811 24.9136 36.8347 24.9481 36.778C24.9826 36.7213 25.1196 36.6749 25.2526 36.6749C25.3855 36.6749 25.5225 36.6285 25.557 36.5719C25.5915 36.5152 25.6833 36.4688 25.7609 36.4688C25.9435 36.4688 28.4277 35.2317 28.8313 34.9398C29.0013 34.8169 29.1903 34.7163 29.2514 34.7163C29.3126 34.7163 29.3626 34.6699 29.3626 34.6132C29.3626 34.5565 29.4243 34.5101 29.4998 34.5101C29.5752 34.5101 29.7803 34.371 29.9556 34.2009C30.1308 34.0308 30.3247 33.8916 30.3866 33.8916C30.4484 33.8916 30.627 33.7524 30.7834 33.5824C30.9398 33.4123 31.0978 33.2731 31.1345 33.2731C31.2806 33.2731 33.1175 31.4649 33.1175 31.3212C33.1175 31.2607 33.1632 31.2114 33.219 31.2114C33.2748 31.2114 33.3205 31.1604 33.3205 31.0981C33.3205 31.0358 33.4499 30.8618 33.6081 30.7115C33.7662 30.5612 33.9551 30.3251 34.0277 30.187C34.1004 30.0489 34.2013 29.8865 34.2519 29.8262C34.6624 29.3378 35.6546 27.5123 35.6546 27.2455C35.6546 27.1588 35.7003 27.0879 35.7561 27.0879C35.8119 27.0879 35.8576 26.9951 35.8576 26.8817C35.8576 26.7684 35.9033 26.6756 35.9591 26.6756C36.0149 26.6756 36.0606 26.5364 36.0606 26.3663C36.0606 26.1962 36.1062 26.0571 36.162 26.0571C36.2178 26.0571 36.2635 25.9179 36.2635 25.7478C36.2635 25.5777 36.3092 25.4385 36.365 25.4385C36.4208 25.4385 36.4665 25.2762 36.4665 25.0777C36.4665 24.8793 36.5122 24.7169 36.568 24.7169C36.6238 24.7169 36.6695 24.4888 36.6695 24.2101C36.6695 23.9313 36.7181 23.6868 36.7775 23.6667C36.9335 23.6138 36.9401 19.1216 36.7842 19.0688C36.7211 19.0475 36.6695 18.8251 36.6695 18.5748C36.6695 18.3244 36.6238 18.1194 36.568 18.1194C36.5122 18.1194 36.4665 17.9803 36.4665 17.8102C36.4665 17.6401 36.4208 17.5009 36.365 17.5009C36.3092 17.5009 36.2635 17.3617 36.2635 17.1916C36.2635 17.0216 36.2178 16.8824 36.162 16.8824C36.1062 16.8824 36.0606 16.7896 36.0606 16.6762C36.0606 16.5628 36.0234 16.47 35.978 16.47C35.9326 16.47 35.8327 16.3077 35.7561 16.1092C35.6795 15.9108 35.5796 15.7484 35.5342 15.7484C35.4888 15.7484 35.4516 15.6881 35.4516 15.6144C35.4516 15.5011 35.2424 15.2131 34.2901 14.0162C34.0029 13.6551 33.5064 13.1713 33.4232 13.1713C33.3717 13.1713 33.2249 13.0663 33.0967 12.9382C32.6141 12.4551 31.0589 11.5219 30.7367 11.5219C30.6508 11.5219 30.5804 11.4755 30.5804 11.4188C30.5804 11.3621 30.4891 11.3157 30.3775 11.3157C30.2658 11.3157 30.1745 11.2744 30.1745 11.2239C30.1745 11.1337 29.8352 11.0529 28.9821 10.9398C28.7449 10.9083 28.5508 10.8409 28.5508 10.7899C28.5508 10.7372 27.2824 10.6972 25.6078 10.6972C23.7134 10.6972 22.6647 10.6605 22.6647 10.5941C22.6647 10.5374 22.4821 10.491 22.2588 10.491C22.0355 10.491 21.8529 10.4447 21.8529 10.388C21.8529 10.3313 21.7615 10.2849 21.6499 10.2849C21.5383 10.2849 21.4469 10.2385 21.4469 10.1818C21.4469 10.1251 21.3997 10.0787 21.3421 10.0787C21.2056 10.0787 20.5336 9.39606 20.5336 9.25741C20.5336 9.19886 20.4879 9.15092 20.4321 9.15092C20.3763 9.15092 20.3306 9.05815 20.3306 8.94475C20.3306 8.83136 20.2849 8.73858 20.2291 8.73858C20.1733 8.73858 20.1276 8.59941 20.1276 8.42932C20.1276 8.25923 20.082 8.12006 20.0262 8.12006C19.9697 8.12006 19.9247 7.84513 19.9247 7.50154C19.9247 7.15796 19.9697 6.88303 20.0262 6.88303C20.082 6.88303 20.1276 6.74386 20.1276 6.57377C20.1276 6.40368 20.1733 6.26451 20.2291 6.26451C20.2849 6.26451 20.3306 6.17173 20.3306 6.05834C20.3306 5.94494 20.3763 5.85216 20.4321 5.85216C20.4879 5.85216 20.5336 5.78258 20.5336 5.69753C20.5336 5.61249 20.5678 5.5428 20.6097 5.5427C20.731 5.54239 21.2141 4.70987 21.3872 4.20279C21.4742 3.94765 21.5461 3.52076 21.5469 3.25408C21.5483 2.79421 21.5076 2.64124 21.1773 1.86427C21.0011 1.44976 20.2968 0.697853 20.0848 0.697853C19.9967 0.697853 19.9247 0.651466 19.9247 0.594769C19.9247 0.538071 19.8371 0.49168 19.7301 0.49168C19.6232 0.49168 19.5166 0.433746 19.4934 0.362823C19.4402 0.200874 15.7329 0.226543 15.6793 0.389111C15.6606 0.445499 15.3753 0.49168 15.045 0.49168C14.7124 0.49168 14.4446 0.537659 14.4446 0.594769C14.4446 0.651466 14.2619 0.697853 14.0386 0.697853C13.8154 0.697853 13.6327 0.74424 13.6327 0.800938C13.6327 0.857635 13.4957 0.904026 13.3283 0.904026C13.1608 0.904026 13.0238 0.950417 13.0238 1.00711C13.0238 1.06381 12.8862 1.1102 12.7179 1.1102C12.5498 1.1102 12.3328 1.15112 12.2359 1.20123C12.139 1.25132 11.9455 1.3374 11.806 1.39235C11.2326 1.61852 9.11425 2.69432 9.0829 2.77535C9.06422 2.82339 8.98435 2.86266 8.9053 2.86266C8.82614 2.86266 8.7615 2.90905 8.7615 2.96575C8.7615 3.02245 8.70162 3.06884 8.62845 3.06884C8.55518 3.06884 8.39727 3.16161 8.27742 3.27501C8.15767 3.3884 8.01884 3.48118 7.96891 3.48118C7.91908 3.48118 7.73489 3.62035 7.55963 3.79044C7.38447 3.96053 7.19713 4.0997 7.14334 4.0997C6.88253 4.0997 3.78881 7.24063 3.78881 7.50546C3.78881 7.55999 3.74314 7.60463 3.68732 7.60463C3.63151 7.60463 3.58584 7.66401 3.58584 7.73647C3.58584 7.80905 3.4945 7.93523 3.38287 8.01697C3.27124 8.09872 3.17991 8.22686 3.17991 8.3018C3.17991 8.37664 3.08857 8.53756 2.97694 8.6592C2.86531 8.78094 2.77397 8.94135 2.77397 9.01577C2.77397 9.0901 2.7283 9.15092 2.67249 9.15092C2.61667 9.15092 2.571 9.21659 2.571 9.297C2.571 9.3773 2.53234 9.45843 2.48505 9.47739C2.43776 9.49626 2.13493 10.0684 1.81221 10.7488C1.4895 11.4291 1.18565 12.0663 1.13714 12.1648C1.08853 12.2632 1.04875 12.4372 1.04875 12.5513C1.04875 12.6655 1.00308 12.7589 0.947269 12.7589C0.891453 12.7589 0.845785 12.9213 0.845785 13.1197C0.845785 13.3182 0.800118 13.4805 0.744302 13.4805C0.688486 13.4805 0.642818 13.6197 0.642818 13.7898C0.642818 13.9599 0.597151 14.0991 0.541335 14.0991C0.485519 14.0991 0.439852 14.2846 0.439852 14.5114C0.439852 14.7382 0.394184 14.9237 0.338368 14.9237C0.282146 14.9237 0.236885 15.1958 0.236885 15.5337C0.236885 15.9004 0.190506 16.1593 0.120585 16.1829C-0.0420932 16.2381 -0.0392517 21.8573 0.123527 21.9124C0.188375 21.9343 0.236885 22.1895 0.236885 22.5091C0.236885 22.8162 0.282552 23.0676 0.338368 23.0676C0.394184 23.0676 0.439852 23.2531 0.439852 23.4799C0.439852 23.7067 0.485519 23.8922 0.541335 23.8922C0.597151 23.8922 0.642818 24.0314 0.642818 24.2015C0.642818 24.3716 0.688486 24.5108 0.744302 24.5108C0.800118 24.5108 0.845785 24.6506 0.845785 24.8215C0.845785 24.9923 0.886075 25.2127 0.935396 25.3111C0.984716 25.4096 1.06946 25.6061 1.12355 25.7478C1.27973 26.1561 2.39239 28.4741 2.45978 28.5311C2.49317 28.5595 2.58491 28.7095 2.66356 28.8644C2.74211 29.0193 2.89048 29.2378 2.99318 29.3497C3.09588 29.4618 3.17991 29.6147 3.17991 29.6895C3.17991 29.7645 3.27124 29.8926 3.38287 29.9743C3.4945 30.0561 3.58584 30.1823 3.58584 30.2548C3.58584 30.3273 3.63151 30.3867 3.68732 30.3867C3.74314 30.3867 3.78881 30.4309 3.78881 30.485C3.78881 30.7523 6.87928 33.8916 7.14243 33.8916C7.19571 33.8916 7.23924 33.938 7.23924 33.9947C7.23924 34.0514 7.30775 34.0978 7.39147 34.0978C7.47519 34.0978 7.54369 34.1363 7.54369 34.1834C7.54369 34.2306 7.66933 34.3349 7.82277 34.4152C7.97622 34.4956 8.12469 34.5876 8.1526 34.6198C8.40133 34.9067 10.7733 36.1916 11.806 36.599C11.9455 36.6539 12.139 36.74 12.2359 36.7901C12.3328 36.8402 12.5242 36.8811 12.6612 36.8811C12.7982 36.8811 12.9386 36.9275 12.9731 36.9842C13.0076 37.0409 13.17 37.0873 13.3342 37.0873C13.4984 37.0873 13.6327 37.1337 13.6327 37.1904C13.6327 37.2471 13.8154 37.2935 14.0386 37.2935C14.2619 37.2935 14.4446 37.3398 14.4446 37.3965C14.4446 37.4532 14.6957 37.4996 15.0027 37.4996C15.3097 37.4996 15.5609 37.5445 15.5609 37.5993Z" stroke="#181818" stroke-width="10" mask="url(#path-1-inside-1_294_807)"/>
<path d="M56.5403 17.1154C53.0395 17.1154 49.9332 19.7439 49.9332 24.6041C49.9332 29.4643 53.0395 32.192 56.6389 32.192C60.3862 32.192 62.112 29.5635 62.6543 27.7285L67.6836 29.5635C66.5496 33.3327 62.9502 37.449 56.6389 37.449C49.5881 37.449 44.2136 31.944 44.2136 24.6041C44.2136 17.165 49.5881 11.8089 56.491 11.8089C62.9502 11.8089 66.5003 15.8756 67.4864 19.7439L62.3585 21.6285C61.8161 19.496 60.189 17.1154 56.5403 17.1154Z" fill="#181818"/>
<path d="M82.3778 12.404V18.2561C81.7368 18.1569 81.0958 18.1073 80.5041 18.1073C76.0665 18.1073 74.045 20.6862 74.045 25.1993V36.705H68.3254V12.5528H73.897V16.4211C75.0311 13.7927 77.6937 12.2552 80.8493 12.2552C81.5396 12.2552 82.1313 12.3544 82.3778 12.404Z" fill="#181818"/>
<path d="M81.2838 30.1586C81.2838 25.844 84.4394 23.4635 88.5319 22.8683L94.6952 21.9261C96.0758 21.7277 96.4703 21.0334 96.4703 20.1903C96.4703 18.1569 95.0897 16.5203 91.934 16.5203C88.9263 16.5203 87.2499 18.4545 87.0034 20.8846L81.7769 19.6943C82.2206 15.5284 85.9679 11.8089 91.8847 11.8089C99.2807 11.8089 102.091 16.0244 102.091 20.835V32.8367C102.091 35.0189 102.338 36.4571 102.387 36.705H97.0619C97.0126 36.5563 96.8154 35.5644 96.8154 33.6302C95.6814 35.4652 93.3146 37.449 89.4194 37.449C84.3901 37.449 81.2838 33.9774 81.2838 30.1586ZM90.5042 32.9359C93.7091 32.9359 96.4703 31.3985 96.4703 26.6871V25.596L90.2083 26.5383C88.4333 26.8359 87.0034 27.8277 87.0034 29.8115C87.0034 31.4481 88.236 32.9359 90.5042 32.9359Z" fill="#181818"/>
<path d="M115.218 5.70884C113.689 5.70884 111.668 6.40316 111.668 9.37879V12.5528H117.24V17.5618H111.668V36.705H105.899V17.5618H101.708V12.5528H105.899V9.23001C105.899 3.82427 109.35 0.551071 114.281 0.551071C115.711 0.551071 116.894 0.848634 117.289 1.04701V5.95681C116.944 5.85762 116.303 5.70884 115.218 5.70884Z" fill="#181818"/>
<path d="M125.194 5.16331V12.5528H130.174V17.661H125.194V28.8692C125.194 31.0017 126.131 31.8944 128.251 31.8944C129.04 31.8944 129.977 31.7457 130.223 31.6961V36.4571C129.878 36.6059 128.794 37.0026 126.723 37.0026C122.285 37.0026 119.524 34.3245 119.524 29.8115V17.661H115.086V12.5528H116.319C118.883 12.5528 120.017 10.9162 120.017 8.78366V5.16331H125.194Z" fill="#181818"/>
<path d="M135.366 21.9756H147.151C147.052 19.1488 145.178 16.6195 141.234 16.6195C137.634 16.6195 135.564 19.3968 135.366 21.9756ZM147.792 28.2741L152.624 29.8115C151.342 34.027 147.545 37.449 141.776 37.449C135.268 37.449 129.499 32.6879 129.499 24.5049C129.499 16.8675 135.12 11.8089 141.185 11.8089C148.581 11.8089 152.92 16.7187 152.92 24.3562C152.92 25.2984 152.821 26.0919 152.772 26.1911H135.218C135.366 29.8611 138.226 32.4896 141.776 32.4896C145.228 32.4896 147.003 30.6546 147.792 28.2741Z" fill="#181818"/>
<path d="M168 12.404V18.2561C167.359 18.1569 166.718 18.1073 166.126 18.1073C161.689 18.1073 159.667 20.6862 159.667 25.1993V36.705H153.948V12.5528H159.519V16.4211C160.653 13.7927 163.316 12.2552 166.472 12.2552C167.162 12.2552 167.754 12.3544 168 12.404Z" fill="#181818"/>
</svg>
