<svg width="116" height="59" viewBox="0 0 116 59" fill="none" xmlns="http://www.w3.org/2000/svg">
<g id="SagetheDev">
<path d="M16.9439 44.9576C16.4971 44.9576 16.1497 44.8252 15.8849 44.544C15.6202 44.2627 15.4878 43.8821 15.4878 43.4353C15.4878 42.277 16.1828 40.7713 17.5561 38.918C18.3835 37.8591 19.459 36.6511 20.7828 35.2943C22.1065 33.954 23.2317 32.9281 24.1418 32.2331C24.3238 32.1173 24.4065 32.0346 24.4065 31.9684C24.4065 31.9022 24.1583 31.8195 23.6619 31.7036C22.9504 31.5051 22.0569 31.4058 20.9979 31.4058C19.3101 31.4058 16.6626 31.6871 13.072 32.2662C11.0367 32.5806 9.58059 32.7957 8.67052 32.9116C7.77699 33.0108 7.01584 33.0605 6.37051 33.0605H6.1885C2.91223 33.0605 0.92662 31.9684 0.215108 29.7842C0.0661872 29.3375 0 28.7418 0 27.9806C0 26.1274 0.777699 23.6619 2.3331 20.6007C3.59065 18.1187 5.21224 15.6036 7.18131 13.0389C9.72951 9.81225 12.4266 7.06548 15.2561 4.83166C17.3907 3.17698 19.4425 1.95252 21.4115 1.17482C23.3641 0.397123 25.0518 0 26.4749 0C28.1792 0 29.4698 0.46331 30.3468 1.38993C31.2734 2.26691 31.7367 3.59065 31.7367 5.36116C31.7367 7.23095 31.2238 9.33239 30.2144 11.682C29.5526 13.1547 28.1295 15.5374 25.9454 18.7806C25.6641 19.1943 25.4986 19.4425 25.449 19.5418C25.2835 19.8065 25.0684 19.9389 24.8202 19.9389C24.7209 19.9389 24.6382 19.9223 24.5554 19.8561C24.39 19.6907 24.3072 19.5252 24.3072 19.3763C24.3072 19.2439 24.3734 19.0619 24.5058 18.8137C24.6713 18.5159 25.1346 17.7878 25.9123 16.6461C27.236 14.677 28.1957 13.072 28.7914 11.8475C29.4036 10.6065 29.8339 9.49786 30.0821 8.47196C30.3799 7.28059 30.5288 6.25469 30.5288 5.39425C30.5288 4.43454 30.3799 3.64029 30.0655 3.02806C29.4864 1.83669 28.3116 1.24101 26.5245 1.20792C25.9785 1.20792 25.4655 1.24101 24.9856 1.32374C22.7022 1.75396 20.2533 2.8295 17.672 4.58346C14.0482 7.04893 10.6396 10.3914 7.47915 14.6274C4.9144 18.0856 3.04461 21.395 1.90288 24.5885C1.42302 25.995 1.19137 27.1864 1.19137 28.1626C1.19137 30.6281 2.86259 31.8691 6.22159 31.8691C7.39641 31.8691 9.77915 31.5878 13.3367 31.0252C16.613 30.4957 19.095 30.2144 20.7993 30.2144C23.4137 30.2144 25.2008 30.6943 26.1439 31.654C26.7892 32.2497 27.1036 32.9943 27.1036 33.9209C27.1036 34.8475 26.7892 35.9065 26.1274 37.0979C25.3331 38.5209 24.1583 39.9936 22.6029 41.5159C20.2202 43.8159 18.3504 44.9576 16.9439 44.9576ZM16.9605 43.7828C17.0928 43.7828 17.2914 43.7332 17.5396 43.6504C18.3173 43.3857 19.2936 42.79 20.4353 41.8468C21.577 40.9037 22.6029 39.8612 23.5461 38.7195C25.118 36.7339 25.9123 35.1454 25.9123 33.9375C25.9123 33.4742 25.7799 33.0605 25.4986 32.713C24.7374 33.259 23.695 34.1691 22.3713 35.4267C21.2626 36.5022 20.336 37.4785 19.5914 38.3224C17.6554 40.6058 16.6792 42.3101 16.6792 43.4188C16.6792 43.667 16.7784 43.7828 16.9605 43.7828Z" fill="white"/>
<path d="M34.8316 34.649C33.8885 34.649 33.2266 34.2519 32.8295 33.4411L32.6475 33.0605L32.2007 33.4742C31.423 34.1691 30.7115 34.5166 30.0496 34.5166C29.8014 34.5166 29.5698 34.467 29.3381 34.3677C28.9244 34.1029 28.7093 33.7224 28.7093 33.2425C28.7093 33.0274 28.7424 32.7957 28.8252 32.5475C29.0899 31.7367 29.6691 31.0749 30.5626 30.5619C30.8604 30.4295 31.1748 30.3634 31.5388 30.3634C31.8532 30.3634 32.1676 30.4461 32.4489 30.6281C32.5482 30.6777 32.6144 30.7439 32.6475 30.7936C32.7468 30.8929 32.8626 30.9425 32.9784 30.9425C33.177 30.9425 33.3093 31.0252 33.4086 31.1741C33.5079 31.3231 33.6072 31.6209 33.6734 32.0511C33.7727 32.5641 33.8885 32.9281 34.054 33.1432C34.2194 33.3583 34.4511 33.4576 34.7489 33.4576C35.7252 33.4576 36.7676 32.9777 37.8763 32.0346C38.0914 31.8526 38.2734 31.7698 38.4058 31.7698C38.6209 31.7698 38.8029 31.8691 38.9187 32.0842C38.9683 32.167 39.0014 32.2331 39.0014 32.3324C39.0014 32.6468 38.6374 33.0439 37.9259 33.5238C36.7842 34.2849 35.7417 34.649 34.8316 34.649ZM30.0496 33.3252C30.3806 33.3252 30.8273 33.0936 31.3899 32.6137C31.787 32.2828 31.9691 32.0511 31.9691 31.9022C31.9691 31.8691 31.936 31.7864 31.8367 31.7036C31.7374 31.6044 31.6216 31.5547 31.4727 31.5547C31.2244 31.5547 30.9432 31.6871 30.6288 31.9684C30.3144 32.2662 30.0827 32.5641 29.9669 32.895C29.9173 33.0274 29.8842 33.1267 29.8842 33.1929C29.8842 33.2756 29.9503 33.3252 30.0496 33.3252Z" fill="white"/>
<path d="M35.7424 58.013C35.3949 58.013 35.1467 57.9965 35.0143 57.9468C34.3856 57.6986 33.8891 57.2022 33.5251 56.4245C33.0287 55.4317 32.7805 54.0087 32.7805 52.1389C32.7971 48.9289 33.4755 45.6526 34.7827 42.3101C35.1302 41.4828 35.5273 40.6224 36.0071 39.7454C36.4704 38.8519 37.0661 37.9087 37.7776 36.8828L37.9266 36.618L37.8438 36.6511C37.7611 36.7008 37.5956 36.7173 37.3805 36.7173C36.9668 36.7173 36.6525 36.5022 36.4374 36.0885C36.3877 36.0058 36.3546 35.9065 36.3381 35.8238C36.305 35.7411 36.2884 35.6418 36.2884 35.526C36.2719 35.4101 36.2719 35.2447 36.2719 35.0295C36.2719 34.5497 36.3215 34.136 36.4208 33.8051C36.9503 32.2662 37.7776 31.3065 38.9194 30.9259C39.1014 30.8763 39.2999 30.8598 39.482 30.8598C40.0776 30.8598 40.5244 31.0252 40.8388 31.3562C40.9215 31.4389 41.0043 31.4885 41.0704 31.4885C41.2028 31.4885 41.3187 31.5878 41.4345 31.7864C41.5338 32.0015 41.5834 32.2331 41.5999 32.4813C41.5999 32.7295 41.6496 32.8454 41.7323 32.8454C41.8151 32.8454 42.0136 32.7461 42.328 32.5475C44.1316 31.8195 45.6539 31.4554 46.8949 31.4389C47.0438 31.4389 47.1597 31.472 47.2589 31.5382C47.4244 31.654 47.5072 31.8195 47.5072 32.0346C47.5072 32.3159 47.3251 32.5144 46.9611 32.6137C45.9352 32.6799 44.3964 33.1267 42.3776 33.954C42.0302 34.2022 41.8482 34.3346 41.8316 34.3842C41.8151 34.4339 41.8151 34.467 41.8151 34.5001C41.8151 34.5166 41.8151 34.5662 41.8316 34.6159C41.8482 34.6821 41.8647 34.8144 41.8812 35.013C41.8978 35.2116 41.9143 35.4267 41.9309 35.6583C42.0633 37.3296 42.1294 38.9346 42.1294 40.4734C42.1294 46.0828 41.2856 50.6828 39.5812 54.2569C38.3899 56.7555 37.1158 58.013 35.7424 58.013ZM35.7093 56.8382C36.3712 56.8382 37.1323 56.1267 37.9927 54.6871C39.4654 52.172 40.4086 48.5979 40.8223 43.9648C40.8719 43.4519 40.8884 42.7238 40.905 41.8137C40.905 40.9037 40.905 39.977 40.8884 39.0008C40.8719 38.0411 40.8388 37.2137 40.8057 36.5353C40.7726 35.8569 40.723 35.4929 40.6733 35.4267C40.5906 35.4267 40.21 35.8238 39.5481 36.618C37.728 38.7526 36.3215 41.3504 35.3122 44.4281C34.4517 47.026 34.005 49.5907 33.9884 52.1389C34.005 54.5879 34.4186 56.1102 35.2294 56.7224C35.3618 56.8051 35.5273 56.8382 35.7093 56.8382ZM37.4963 35.4267C37.6122 35.4267 37.8438 35.2447 38.1913 34.8475C38.6877 34.3015 39.1841 33.6562 39.6971 32.8785C39.9122 32.5641 40.0115 32.3655 40.0115 32.3159C40.0115 32.2497 39.9618 32.1835 39.846 32.1173C39.7302 32.0511 39.6309 32.018 39.5151 32.018C39.3661 32.018 39.1676 32.0842 38.9525 32.2001C38.7208 32.3324 38.5388 32.4813 38.3899 32.6468C38.0093 33.1101 37.728 33.6396 37.5625 34.2353C37.4798 34.5662 37.4302 34.8972 37.4302 35.195C37.4302 35.3605 37.4633 35.4267 37.4963 35.4267Z" fill="white"/>
<path d="M49.1294 35.3274C48.815 35.3274 48.5337 35.2943 48.269 35.2281C47.21 34.9137 46.515 34.1526 46.1675 32.9447C46.0848 32.6137 46.0517 32.2662 46.0517 31.8857C46.0517 31.0252 46.2006 30.2972 46.4819 29.7015C46.7963 29.1223 47.1272 28.7749 47.4747 28.659C47.8222 28.5598 48.0704 28.4936 48.2359 28.4936C48.5668 28.4936 48.8647 28.6094 49.1625 28.8576C49.4769 29.1389 49.6423 29.5029 49.6423 29.9662C49.6423 30.6447 49.4272 31.2238 49.0136 31.7202C48.6495 32.1504 48.2028 32.3986 47.6733 32.4813L47.2927 32.5144L47.4085 32.8785C47.7395 33.7224 48.3186 34.136 49.1625 34.136C49.6754 34.136 50.2877 33.9871 50.9992 33.6562C51.6942 33.3252 52.2402 32.8619 52.6373 32.2497C52.8359 31.9518 52.9848 31.7698 53.0841 31.7202C53.1834 31.654 53.2661 31.6209 53.3488 31.6209C53.4812 31.6209 53.6136 31.6706 53.746 31.7864C53.8452 31.9022 53.9114 32.0511 53.9114 32.2166C53.9114 32.4979 53.746 32.8454 53.4316 33.2425C52.9021 33.8878 52.1906 34.4339 51.2639 34.8806C50.569 35.1785 49.8575 35.3274 49.1294 35.3274ZM47.5409 31.29C47.6567 31.29 47.8057 31.2238 47.9546 31.0914C48.1035 30.959 48.2193 30.7936 48.3186 30.5785C48.4013 30.3799 48.451 30.1979 48.451 30.0324C48.451 29.9 48.4344 29.8173 48.4013 29.7842C48.3848 29.7511 48.3186 29.7346 48.2524 29.718C48.087 29.718 47.9711 29.7511 47.8718 29.8173C47.7726 29.8835 47.6898 30.0159 47.574 30.231C47.392 30.6116 47.3093 30.8929 47.3093 31.0749C47.3093 31.2238 47.392 31.29 47.5409 31.29Z" fill="white"/>
<path d="M54.3588 49.144C54.1272 49.144 53.9452 49.0281 53.8128 48.813C53.6142 48.4655 53.3826 46.9598 53.1013 44.2957C52.5552 38.8849 52.2409 34.2684 52.1581 30.4295C52.125 29.3705 52.0919 28.7252 52.0754 28.5101C52.0588 28.4108 52.0588 28.2288 52.0588 27.9475C52.0588 27.5669 52.125 25.3331 52.2409 21.2461C52.0919 21.2792 51.6948 21.3288 51.0495 21.395C47.9718 21.7756 46.0524 21.9576 45.2747 21.9576C44.7452 21.9576 44.4142 21.8914 44.2818 21.7756C44.0667 21.6266 43.9509 21.4943 43.9344 21.3619C43.9178 21.2295 43.9013 21.1468 43.9013 21.0972C43.9013 20.9317 43.9675 20.7662 44.0998 20.6173C44.4308 20.2698 44.8941 20.0878 45.5063 20.0878C46.0193 20.0878 46.3337 20.2367 46.466 20.518C46.4826 20.6338 46.5322 20.7 46.5819 20.7C46.7473 20.7 47.6739 20.6008 49.3617 20.3856L52.1747 20.0713C52.2409 20.0713 52.307 19.5252 52.3567 18.4497C52.4229 17.3576 52.4725 16.7453 52.5222 16.5964C52.5222 16.5468 52.4725 16.5137 52.3567 16.4971C52.2409 16.4971 52.125 16.4475 52.0092 16.3482C51.8934 16.2655 51.8437 16.1497 51.8437 16.0173C51.8437 15.8518 51.9265 15.5374 52.0754 15.0907C52.5552 13.7835 52.8365 12.6748 52.9193 11.7813C53.002 10.9374 53.1013 10.3417 53.2006 10.0108C53.3329 9.56404 53.5646 9.34894 53.8955 9.34894C53.9948 9.34894 54.1272 9.39857 54.243 9.48131C54.4416 9.59714 54.5409 9.74606 54.5409 9.96117C54.5243 10.6065 54.4085 11.3676 54.2099 12.2281C54.0445 12.8899 53.879 14.1971 53.7135 16.1497C53.5811 18.1022 53.515 19.3266 53.515 19.8396V19.9223C57.8502 19.5749 60.6135 19.3597 61.8049 19.3101C63.8732 19.2274 65.7265 19.1777 67.3812 19.1777C69.797 19.1777 71.5013 19.2274 72.4941 19.3101C73.1395 19.4094 73.4704 19.641 73.4704 20.0051C73.4704 20.1705 73.4207 20.3029 73.3049 20.4187C73.2056 20.5346 73.0733 20.6007 72.8912 20.6007C72.7589 20.5842 72.5438 20.5511 72.2625 20.5015C71.584 20.3856 70.2107 20.336 68.1589 20.336H67.0337C62.5661 20.4353 58.4128 20.6669 54.5905 21.0475L53.4653 21.1468C53.366 24.2907 53.3164 26.3259 53.3164 27.2526C53.3164 30.8598 53.515 35.013 53.8955 39.7288C54.3092 44.8087 54.6401 47.572 54.8552 47.9857C54.938 48.1015 54.9711 48.2339 54.9711 48.3994C54.9711 48.5648 54.9545 48.6972 54.938 48.7634C54.8056 49.0116 54.607 49.144 54.3588 49.144Z" fill="white"/>
<path d="M58.43 36.7835H58.3307C58.2976 36.7835 58.2645 36.7835 58.2315 36.767C58.1984 36.7504 58.1322 36.7339 58.0329 36.6842C57.9502 36.6511 57.8674 36.6015 57.7847 36.5519C57.7185 36.5022 57.6689 36.4691 57.6358 36.436C57.4041 36.1547 57.1559 35.4432 56.8912 34.318C56.6099 33.2094 56.3617 31.9022 56.1631 30.4295C55.5674 26.0281 55.2696 22.0403 55.2696 18.4662C55.2696 17.523 55.2861 16.613 55.3358 15.7194C55.6171 9.20001 56.825 4.94749 58.943 2.94533C59.853 2.06835 60.8789 1.62159 62.0041 1.62159C62.7818 1.62159 63.6092 1.83669 64.5027 2.25036C65.6775 2.8295 66.753 3.68993 67.7128 4.83166C68.689 5.97339 69.4005 7.2144 69.8638 8.55469C70.2113 9.58059 70.3933 10.5899 70.3933 11.6158C70.3933 15.19 68.0437 19.277 63.361 23.877C61.7559 25.449 60.3494 26.5907 59.125 27.3187C58.3307 27.7986 57.7681 28.0964 57.4372 28.2123C57.2221 28.2619 57.1228 28.3281 57.1228 28.3943C57.1228 28.7749 57.2717 29.9331 57.6027 31.8526C57.8178 33.1929 57.9667 33.8713 58.0329 33.8713C58.066 33.8713 58.1322 33.5734 58.2149 32.9777C58.3804 31.8691 58.6286 31.1245 58.9761 30.7605C59.1415 30.5619 59.3732 30.4626 59.6545 30.4626C59.9027 30.4626 60.1178 30.6116 60.2998 30.8929C60.4156 31.0914 60.5811 31.3893 60.7797 31.7864C61.2595 32.7792 61.7228 33.408 62.1861 33.6727C62.5171 33.8382 62.8646 33.9209 63.2451 33.9209C64.2048 33.9209 65.2638 33.3583 66.4552 32.2331C66.7531 31.9353 66.9351 31.7698 67.0178 31.7533C67.084 31.7202 67.1667 31.7036 67.2495 31.7036C67.5969 31.7036 67.779 31.8857 67.779 32.2497C67.779 32.3655 67.7459 32.4979 67.6797 32.6303C67.5804 32.7957 67.3487 33.0439 66.9682 33.3749C65.9092 34.3511 64.8171 34.9137 63.6919 35.0957C63.5264 35.1123 63.3775 35.1288 63.2286 35.1288C62.0703 35.1288 61.1271 34.5993 60.3825 33.5403C60.1343 33.1929 59.8861 32.713 59.6214 32.1339C59.4063 32.9777 59.2574 33.9871 59.1746 35.1454C59.1415 35.6914 59.0753 36.072 59.0092 36.2706C58.9099 36.5519 58.7113 36.7173 58.43 36.7835ZM57.007 27.1533L58.2811 26.4418C59.5056 25.7137 60.8624 24.6216 62.3847 23.1655C64.2214 21.395 65.7602 19.5583 67.0178 17.6885C68.3912 15.5705 69.0862 13.8 69.1358 12.3605C69.1523 11.9799 69.1689 11.6986 69.1689 11.5331C69.1689 11.1029 69.1358 10.7058 69.0696 10.3252C68.7221 8.35613 67.7789 6.60217 66.2566 5.03022C65.2307 3.98778 64.1718 3.30936 63.0962 2.97842C62.7984 2.89569 62.5171 2.84605 62.2854 2.84605C61.8717 2.84605 61.5243 2.86259 61.243 2.91223C60.8128 3.01152 60.3494 3.29281 59.8696 3.73957C58.0991 5.31152 57.0235 8.80289 56.6264 14.2302C56.5437 15.2727 56.5106 16.9439 56.5106 19.277C56.5106 20.6504 56.5271 21.759 56.5768 22.6029C56.7753 25.1346 56.9243 26.6403 57.007 27.1533Z" fill="white"/>
<path d="M69.3019 35.3274C68.9875 35.3274 68.7062 35.2943 68.4415 35.2281C67.3825 34.9137 66.6875 34.1526 66.34 32.9447C66.2573 32.6137 66.2242 32.2662 66.2242 31.8857C66.2242 31.0252 66.3731 30.2972 66.6544 29.7015C66.9688 29.1223 67.2998 28.7749 67.6472 28.659C67.9947 28.5598 68.2429 28.4936 68.4084 28.4936C68.7393 28.4936 69.0372 28.6094 69.335 28.8576C69.6494 29.1389 69.8149 29.5029 69.8149 29.9662C69.8149 30.6447 69.5998 31.2238 69.1861 31.7202C68.8221 32.1504 68.3753 32.3986 67.8458 32.4813L67.4652 32.5144L67.581 32.8785C67.912 33.7224 68.4911 34.136 69.335 34.136C69.848 34.136 70.4602 33.9871 71.1717 33.6562C71.8667 33.3252 72.4127 32.8619 72.8098 32.2497C73.0084 31.9518 73.1573 31.7698 73.2566 31.7202C73.3559 31.654 73.4386 31.6209 73.5213 31.6209C73.6537 31.6209 73.7861 31.6706 73.9185 31.7864C74.0178 31.9022 74.0839 32.0511 74.0839 32.2166C74.0839 32.4979 73.9185 32.8454 73.6041 33.2425C73.0746 33.8878 72.3631 34.4339 71.4364 34.8806C70.7415 35.1785 70.03 35.3274 69.3019 35.3274ZM67.7134 31.29C67.8293 31.29 67.9782 31.2238 68.1271 31.0914C68.276 30.959 68.3918 30.7936 68.4911 30.5785C68.5739 30.3799 68.6235 30.1979 68.6235 30.0324C68.6235 29.9 68.607 29.8173 68.5739 29.7842C68.5573 29.7511 68.4911 29.7346 68.4249 29.718C68.2595 29.718 68.1436 29.7511 68.0444 29.8173C67.9451 29.8835 67.8623 30.0159 67.7465 30.231C67.5645 30.6116 67.4818 30.8929 67.4818 31.0749C67.4818 31.2238 67.5645 31.29 67.7134 31.29Z" fill="white"/>
<path d="M78.1882 45.09H77.5429C77.063 45.09 76.6824 45.0569 76.4012 44.9907C74.7465 44.6432 73.5882 43.7663 72.9263 42.3763C72.7112 41.9296 72.5623 41.549 72.4961 41.2015C72.4299 40.8706 72.3968 40.4238 72.3968 39.8778C72.3968 39.249 72.4134 38.7857 72.4299 38.5209C72.4465 38.2396 72.4961 37.9749 72.5457 37.7101C73.4227 34.0036 75.4911 30.7936 78.7508 28.0964C80.2896 26.8554 82.1594 25.9123 84.3767 25.2504C84.84 25.1346 85.0882 25.0518 85.1048 25.0187C85.1213 24.9856 85.1544 24.572 85.1709 23.7612C85.2868 17.5892 85.4026 13.6346 85.4853 11.8971C85.022 11.7979 84.7904 11.5497 84.7904 11.1856C84.7904 10.9871 84.8566 10.7554 84.9724 10.4741C85.204 9.99426 85.4853 9.7626 85.8163 9.7626C85.9983 9.7626 86.1472 9.81225 86.2796 9.92807C86.4616 10.077 86.5774 10.3086 86.6271 10.623C86.6436 10.6892 86.6436 10.8878 86.6436 11.2022C86.6436 11.6324 86.6271 12.5921 86.594 14.0813C86.4451 19.8727 86.3623 23.4137 86.3623 24.7209H86.412C86.4947 24.7209 86.6767 24.7044 86.9415 24.6713C87.3551 24.6216 87.8184 24.5885 88.3479 24.5885C88.8774 24.5885 89.3076 24.6216 89.622 24.6878C90.1019 24.8036 90.5321 24.9856 90.9458 25.2339C91.5084 25.5979 91.7897 25.9454 91.7897 26.2763C91.7897 26.3921 91.7566 26.4914 91.6738 26.6072C91.558 26.7727 91.376 26.8554 91.1609 26.8554C91.1113 26.8554 90.9623 26.7562 90.6976 26.5576C90.3832 26.2598 90.0522 26.0612 89.7048 25.9454C89.3573 25.8461 88.9271 25.7964 88.4141 25.7964C88.0666 25.7964 87.7523 25.813 87.4544 25.8295C86.8091 25.8792 86.4451 25.9288 86.3623 25.995C86.3127 26.1274 86.2961 27.4015 86.2961 29.8008C86.2961 31.8857 86.3127 34.0533 86.3458 36.2871C86.3623 37.5612 86.3954 38.3555 86.4285 38.6698V38.7526C86.4285 38.9677 86.3458 39.1497 86.1803 39.2655C86.081 39.3317 85.9652 39.3648 85.8494 39.3648C85.6012 39.3648 85.4357 39.2986 85.353 39.1332C85.2702 38.9842 85.204 38.4713 85.1875 37.6108C85.1213 35.7576 85.0882 33.5403 85.0882 30.9756L85.1213 26.2598L84.5918 26.4252C82.0602 27.1698 79.9091 28.4605 78.122 30.2972C76.3184 32.0677 75.0112 34.0698 74.2004 36.3037C73.8695 37.2303 73.6709 37.9914 73.6213 38.5871C73.6047 38.8353 73.5882 39.1828 73.5882 39.6627C73.5882 40.2418 73.6047 40.6555 73.6544 40.9037C73.6709 41.0195 73.7206 41.1684 73.7702 41.3173C74.0846 42.3101 74.7134 43.0216 75.64 43.4684C76.2357 43.7663 76.9306 43.9152 77.7249 43.9152L78.2875 43.8986C79.7601 43.8821 81.4148 43.4188 83.2515 42.4756C86.8587 40.6389 90.0357 37.8591 92.799 34.1526C95.5458 30.4626 97.4321 26.4087 98.458 22.0238C98.8882 20.0547 99.1033 18.2015 99.1033 16.4641C99.1033 14.9417 98.9379 13.5022 98.6069 12.1453C97.5149 8.10793 95.4134 5.62591 92.3192 4.69929C91.9386 4.58346 91.5911 4.53382 91.2767 4.53382C90.9623 4.51727 90.5321 4.51727 89.9861 4.51727C89.4566 4.51727 89.0429 4.53382 88.712 4.58346C88.3314 4.6331 87.835 4.73238 87.2227 4.9144C85.4522 5.42735 83.7645 6.27123 82.1594 7.42951C80.0249 8.95181 78.6681 10.5238 78.0558 12.1453L78.2875 12.2281C78.5853 12.3274 78.7177 12.5259 78.7177 12.7907C78.7177 12.9396 78.6681 13.0554 78.5522 13.1712C78.4529 13.2871 78.2544 13.3533 78.0062 13.3533C77.5263 13.3533 77.1954 13.1547 77.0134 12.7576C76.9141 12.6087 76.8645 12.4266 76.8645 12.2281C76.8645 11.8971 76.9968 11.4835 77.2616 11.0036C78.4364 8.81944 80.4551 6.90001 83.3177 5.26188C85.7832 3.93814 88.0997 3.25972 90.2508 3.25972C93.2127 3.25972 95.612 4.46763 97.4487 6.88346C99.3515 9.38203 100.311 12.6583 100.311 16.7288C100.311 17.3576 100.278 17.9698 100.229 18.5489C99.6163 24.5223 97.3659 30.1152 93.4443 35.2943C89.6055 40.159 85.4357 43.2864 80.9515 44.6763C80.4386 44.8252 79.9918 44.9411 79.6278 44.9907C79.2637 45.0404 78.7839 45.0734 78.1882 45.09Z" fill="white"/>
<path d="M101.272 35.3274C100.957 35.3274 100.676 35.2943 100.411 35.2281C99.3522 34.9137 98.6572 34.1526 98.3098 32.9447C98.227 32.6137 98.1939 32.2662 98.1939 31.8857C98.1939 31.0252 98.3428 30.2972 98.6241 29.7015C98.9385 29.1223 99.2695 28.7749 99.617 28.659C99.9644 28.5598 100.213 28.4936 100.378 28.4936C100.709 28.4936 101.007 28.6094 101.305 28.8576C101.619 29.1389 101.785 29.5029 101.785 29.9662C101.785 30.6447 101.569 31.2238 101.156 31.7202C100.792 32.1504 100.345 32.3986 99.8155 32.4813L99.4349 32.5144L99.5508 32.8785C99.8817 33.7224 100.461 34.136 101.305 34.136C101.818 34.136 102.43 33.9871 103.141 33.6562C103.836 33.3252 104.382 32.8619 104.78 32.2497C104.978 31.9518 105.127 31.7698 105.226 31.7202C105.326 31.654 105.408 31.6209 105.491 31.6209C105.623 31.6209 105.756 31.6706 105.888 31.7864C105.987 31.9022 106.054 32.0511 106.054 32.2166C106.054 32.4979 105.888 32.8454 105.574 33.2425C105.044 33.8878 104.333 34.4339 103.406 34.8806C102.711 35.1785 102 35.3274 101.272 35.3274ZM99.6831 31.29C99.799 31.29 99.9479 31.2238 100.097 31.0914C100.246 30.959 100.362 30.7936 100.461 30.5785C100.544 30.3799 100.593 30.1979 100.593 30.0324C100.593 29.9 100.577 29.8173 100.544 29.7842C100.527 29.7511 100.461 29.7346 100.395 29.718C100.229 29.718 100.113 29.7511 100.014 29.8173C99.9148 29.8835 99.8321 30.0159 99.7162 30.231C99.5342 30.6116 99.4515 30.8929 99.4515 31.0749C99.4515 31.2238 99.5342 31.29 99.6831 31.29Z" fill="white"/>
<path d="M106.22 36.9986C106.104 36.9986 105.972 36.9655 105.823 36.8828C105.392 36.6677 105.062 36.2044 104.797 35.4598C104.515 34.649 104.35 33.5734 104.333 32.2001C104.333 31.5713 104.532 31.2569 104.929 31.2569C105.26 31.2569 105.442 31.4554 105.475 31.836L105.525 32.4317C105.591 33.7224 105.756 34.6655 106.005 35.2778C106.071 35.4267 106.121 35.5094 106.17 35.526C106.236 35.526 106.336 35.2447 106.468 34.6821C106.6 34.136 106.716 33.4907 106.815 32.7461C106.882 32.2497 106.915 31.8526 106.915 31.5878C106.915 31.2569 106.849 30.9425 106.716 30.6447C106.518 30.0986 106.418 29.6518 106.418 29.3209C106.418 28.7914 106.65 28.5267 107.13 28.5267C107.626 28.5267 107.957 29.1058 108.106 30.2641C108.123 30.5785 108.172 30.8267 108.255 30.9756C108.338 31.1245 108.503 31.3231 108.768 31.5713C109.463 32.2331 110.34 32.5641 111.366 32.5641C112.309 32.5641 113.203 32.3324 114.063 31.8526C114.262 31.7202 114.444 31.654 114.609 31.654C114.758 31.654 114.89 31.7202 115.006 31.8526C115.139 31.9849 115.205 32.1008 115.205 32.2331C115.205 32.4979 114.907 32.7792 114.311 33.0605C113.385 33.5238 112.425 33.7554 111.432 33.7554C110.191 33.7554 109.165 33.4411 108.354 32.8123L108.056 32.5806C107.891 33.8382 107.692 34.8475 107.461 35.6418C107.146 36.5519 106.733 36.9986 106.22 36.9986Z" fill="white"/>
</g>
</svg>
