<svg width="251" height="25" viewBox="0 0 251 25" fill="none" xmlns="http://www.w3.org/2000/svg">
<path fill-rule="evenodd" clip-rule="evenodd" d="M243.43 6.24835H235.96H235.953H228.483L235.953 0.00575107V0H235.96H243.43V6.24835ZM6.7915 20.2222C5.57701 20.2222 4.41435 20.0518 3.30354 19.7112C2.19272 19.3557 1.31147 18.904 0.65979 18.356L1.65953 16.1121C2.28158 16.6009 3.05175 17.0082 3.97003 17.334C4.8883 17.6599 5.8288 17.8228 6.7915 17.8228C7.6061 17.8228 8.26519 17.7339 8.76876 17.5562C9.27233 17.3785 9.6426 17.1415 9.87958 16.8453C10.1166 16.5342 10.235 16.1862 10.235 15.8011C10.235 15.3272 10.0647 14.9495 9.72406 14.6681C9.38341 14.3719 8.93909 14.1423 8.39108 13.9794C7.85789 13.8016 7.25805 13.6387 6.59156 13.4906C5.93988 13.3425 5.28079 13.1722 4.6143 12.9796C3.96262 12.7723 3.36278 12.5131 2.81478 12.2021C2.28158 11.8762 1.84466 11.4467 1.50401 10.9135C1.16336 10.3803 0.993035 9.69902 0.993035 8.8696C0.993035 8.02538 1.2152 7.25522 1.65953 6.5591C2.11866 5.84818 2.80737 5.28537 3.72565 4.87066C4.65873 4.44114 5.8362 4.22639 7.25805 4.22639C8.19113 4.22639 9.11682 4.34487 10.0351 4.58185C10.9534 4.81882 11.7532 5.15947 12.4345 5.6038L11.5236 7.84765C10.8275 7.43295 10.1091 7.12932 9.3686 6.93678C8.62806 6.72943 7.91713 6.62575 7.23583 6.62575C6.43604 6.62575 5.78436 6.72202 5.28079 6.91457C4.79203 7.10711 4.42917 7.35889 4.19219 7.66992C3.97003 7.98095 3.85895 8.33641 3.85895 8.73631C3.85895 9.21026 4.02187 9.59534 4.34771 9.89156C4.68836 10.173 5.12528 10.3951 5.65847 10.558C6.20647 10.721 6.81372 10.8839 7.48021 11.0468C8.1467 11.1949 8.80579 11.3652 9.45747 11.5578C10.124 11.7503 10.7238 12.0021 11.257 12.3131C11.805 12.6242 12.2419 13.0463 12.5678 13.5795C12.9084 14.1127 13.0787 14.7866 13.0787 15.6012C13.0787 16.4306 12.8492 17.2007 12.39 17.9117C11.9457 18.6078 11.257 19.1706 10.3239 19.6001C9.39082 20.0148 8.21335 20.2222 6.7915 20.2222ZM20.0082 20.1555C18.764 20.1555 17.6532 19.8963 16.6757 19.3779C15.713 18.8447 14.9576 18.119 14.4096 17.2007C13.8616 16.2825 13.5876 15.2383 13.5876 14.0682C13.5876 12.8834 13.8616 11.8392 14.4096 10.9357C14.9576 10.0175 15.713 9.29912 16.6757 8.78074C17.6532 8.26236 18.764 8.00317 20.0082 8.00317C21.1634 8.00317 22.178 8.24014 23.0518 8.71409C23.9404 9.17323 24.6143 9.85453 25.0735 10.758L22.9407 12.0021C22.5853 11.4393 22.1483 11.0246 21.6299 10.758C21.1264 10.4914 20.5784 10.3581 19.9859 10.3581C19.3046 10.3581 18.69 10.5062 18.142 10.8024C17.594 11.0986 17.1645 11.5282 16.8534 12.091C16.5424 12.639 16.3869 13.2981 16.3869 14.0682C16.3869 14.8384 16.5424 15.5049 16.8534 16.0677C17.1645 16.6157 17.594 17.0378 18.142 17.334C18.69 17.6303 19.3046 17.7784 19.9859 17.7784C20.5784 17.7784 21.1264 17.6451 21.6299 17.3785C22.1483 17.1119 22.5853 16.6972 22.9407 16.1344L25.0735 17.3785C24.6143 18.2671 23.9404 18.9558 23.0518 19.4446C22.178 19.9185 21.1634 20.1555 20.0082 20.1555ZM26.3632 8.13647H29.007V9.87254C29.3478 9.34992 29.7995 8.93415 30.3622 8.62523C31.1324 8.21052 32.0877 8.00317 33.2281 8.00317V10.6469C33.1096 10.6173 32.9985 10.6025 32.8949 10.6025C32.7912 10.5877 32.6875 10.5803 32.5838 10.5803C31.5323 10.5803 30.6954 10.8913 30.0734 11.5134C29.4513 12.1206 29.1403 13.0315 29.1403 14.246V20H26.3632V8.13647ZM39.6025 20.1555C38.5953 20.1555 37.7067 19.9704 36.9365 19.6001C36.1663 19.215 35.5665 18.6374 35.137 17.8672C34.7075 17.0823 34.4927 16.0973 34.4927 14.9125V8.13647H37.2697V14.5348C37.2697 15.6012 37.5067 16.4009 37.9807 16.9341C38.4694 17.4525 39.1581 17.7117 40.0468 17.7117C40.6985 17.7117 41.2613 17.5784 41.7352 17.3118C42.224 17.0452 42.6017 16.6453 42.8683 16.1121C43.1497 15.5789 43.2904 14.9199 43.2904 14.1349V8.13647H46.0674V20H43.4237V18.4954C43.0757 18.9271 42.6462 19.2805 42.1351 19.5557C41.365 19.9556 40.5207 20.1555 39.6025 20.1555ZM63.5664 8.00317C64.5143 8.00317 65.3512 8.1883 66.0769 8.55858C66.8174 8.92885 67.3951 9.49907 67.8098 10.2692C68.2245 11.0246 68.4318 12.0021 68.4318 13.2018V20H65.6548V13.5573C65.6548 12.5057 65.4252 11.7207 64.9661 11.2023C64.5069 10.6839 63.8479 10.4248 62.9888 10.4248C62.3816 10.4248 61.841 10.558 61.367 10.8246C60.9079 11.0912 60.545 11.4837 60.2784 12.0021C60.0266 12.5205 59.9007 13.1796 59.9007 13.9794V20H57.1237V13.5573C57.1237 12.5057 56.8941 11.7207 56.435 11.2023C55.9759 10.6839 55.3168 10.4248 54.4577 10.4248C53.8505 10.4248 53.3099 10.558 52.8359 10.8246C52.3768 11.0912 52.0139 11.4837 51.7473 12.0021C51.4956 12.5205 51.3697 13.1796 51.3697 13.9794V20H48.5926V8.13647H51.2364V9.64043C51.5806 9.21351 52.0027 8.8677 52.5027 8.60301C53.2729 8.20311 54.1467 8.00317 55.1242 8.00317C56.235 8.00317 57.1978 8.27717 58.0124 8.82517C58.4689 9.12685 58.8403 9.51381 59.1263 9.98604C59.4821 9.52468 59.9328 9.13032 60.4784 8.80296C61.367 8.26976 62.3964 8.00317 63.5664 8.00317ZM76.1654 20V4.44855H78.5425L84.7136 14.7538L90.7837 4.44855H93.1609L93.1831 20H90.4505L90.4302 9.6966L85.3185 18.2227H84.03L78.9202 9.83089V20H76.1654ZM103.315 20V18.5604C103.04 18.9734 102.662 19.3126 102.182 19.5779C101.501 19.963 100.635 20.1555 99.5832 20.1555C98.6945 20.1555 97.9169 20.0074 97.2504 19.7112C96.5839 19.4002 96.0656 18.978 95.6953 18.4449C95.3398 17.8969 95.1621 17.2822 95.1621 16.6009C95.1621 15.9344 95.3176 15.3346 95.6286 14.8014C95.9545 14.2682 96.4803 13.8461 97.206 13.535C97.9317 13.224 98.8944 13.0685 100.094 13.0685H103.16V12.8908C103.16 12.0762 102.916 11.4467 102.427 11.0024C101.938 10.5432 101.198 10.3137 100.205 10.3137C99.5387 10.3137 98.8796 10.4173 98.228 10.6247C97.5911 10.832 97.0505 11.1209 96.6062 11.4911L95.5176 9.46945C96.1544 8.98069 96.9098 8.61782 97.7836 8.38085C98.6723 8.12906 99.5906 8.00317 100.538 8.00317C102.257 8.00317 103.582 8.41787 104.515 9.24728C105.463 10.0619 105.937 11.3282 105.937 13.0463V20H103.315ZM103.16 14.9125V16.2899C102.923 16.8971 102.531 17.3563 101.983 17.6673C101.449 17.9783 100.842 18.1338 100.161 18.1338C99.4499 18.1338 98.8944 17.9857 98.4946 17.6895C98.0947 17.3933 97.8947 16.9934 97.8947 16.4898C97.8947 16.0455 98.0576 15.6752 98.3835 15.379C98.7093 15.068 99.3462 14.9125 100.294 14.9125H103.16ZM112.056 20.1555C111.064 20.1555 110.108 20.0296 109.19 19.7778C108.287 19.5112 107.568 19.1928 107.035 18.8225L108.101 16.712C108.635 17.0526 109.271 17.334 110.012 17.5562C110.753 17.7784 111.493 17.8894 112.234 17.8894C113.107 17.8894 113.737 17.771 114.122 17.534C114.522 17.297 114.722 16.9786 114.722 16.5787C114.722 16.2528 114.589 16.0085 114.322 15.8455C114.055 15.6678 113.707 15.5345 113.278 15.4456C112.848 15.3568 112.367 15.2753 111.834 15.2013C111.315 15.1272 110.79 15.0309 110.256 14.9125C109.738 14.7792 109.264 14.594 108.835 14.357C108.405 14.1053 108.057 13.772 107.79 13.3573C107.524 12.9426 107.39 12.3946 107.39 11.7133C107.39 10.9579 107.605 10.3063 108.035 9.75826C108.464 9.19545 109.064 8.76593 109.834 8.46971C110.619 8.15868 111.545 8.00317 112.611 8.00317C113.411 8.00317 114.218 8.09203 115.033 8.26976C115.847 8.44749 116.521 8.69928 117.055 9.02512L115.988 11.1357C115.425 10.795 114.855 10.5655 114.278 10.447C113.715 10.3137 113.152 10.247 112.589 10.247C111.745 10.247 111.115 10.3729 110.701 10.6247C110.301 10.8765 110.101 11.1949 110.101 11.58C110.101 11.9355 110.234 12.2021 110.501 12.3798C110.767 12.5575 111.115 12.6982 111.545 12.8019C111.974 12.9056 112.448 12.9944 112.967 13.0685C113.5 13.1277 114.026 13.224 114.544 13.3573C115.063 13.4906 115.536 13.6757 115.966 13.9127C116.41 14.1349 116.766 14.4533 117.032 14.868C117.299 15.2827 117.432 15.8233 117.432 16.4898C117.432 17.2304 117.21 17.8746 116.766 18.4226C116.336 18.9706 115.722 19.4002 114.922 19.7112C114.122 20.0074 113.167 20.1555 112.056 20.1555ZM123.178 20.1555C121.875 20.1555 120.868 19.8223 120.157 19.1558C119.446 18.4745 119.091 17.4747 119.091 16.1566V10.447H117.136V8.22533H119.091V5.51494H121.868V8.22533H125.045V10.447H121.868V16.0899C121.868 16.6527 122.008 17.0897 122.29 17.4007C122.586 17.7117 122.993 17.8672 123.512 17.8672C124.134 17.8672 124.652 17.7043 125.067 17.3785L125.844 19.3557C125.519 19.6223 125.119 19.8223 124.645 19.9556C124.171 20.0889 123.682 20.1555 123.178 20.1555ZM132.204 20.1555C130.886 20.1555 129.73 19.8963 128.738 19.3779C127.761 18.8447 126.998 18.119 126.45 17.2007C125.917 16.2825 125.65 15.2383 125.65 14.0682C125.65 12.8834 125.909 11.8392 126.428 10.9357C126.961 10.0175 127.687 9.29912 128.605 8.78074C129.538 8.26236 130.597 8.00317 131.782 8.00317C132.937 8.00317 133.966 8.25495 134.87 8.75852C135.773 9.26209 136.484 9.97302 137.003 10.8913C137.521 11.8096 137.78 12.8908 137.78 14.1349C137.78 14.2534 137.773 14.3867 137.758 14.5348C137.758 14.6829 137.751 14.8236 137.736 14.9569H128.427C128.503 15.3669 128.644 15.7446 128.849 16.0899C129.175 16.6379 129.634 17.06 130.227 17.3563C130.819 17.6525 131.5 17.8006 132.271 17.8006C132.937 17.8006 133.537 17.6969 134.07 17.4896C134.603 17.2822 135.077 16.9564 135.492 16.512L136.98 18.2227C136.447 18.8447 135.773 19.3261 134.959 19.6668C134.159 19.9926 133.241 20.1555 132.204 20.1555ZM128.783 11.9132C128.59 12.268 128.463 12.6679 128.402 13.1129H135.154C135.1 12.6649 134.968 12.2576 134.759 11.891C134.463 11.3726 134.055 10.9653 133.537 10.6691C133.033 10.3729 132.448 10.2248 131.782 10.2248C131.1 10.2248 130.501 10.3729 129.982 10.6691C129.479 10.9653 129.079 11.3801 128.783 11.9132ZM139.337 8.13647H141.981V9.87255C142.321 9.34993 142.773 8.93415 143.336 8.62523C144.106 8.21052 145.061 8.00317 146.202 8.00317V10.6469C146.083 10.6173 145.972 10.6025 145.868 10.6025C145.765 10.5877 145.661 10.5803 145.557 10.5803C144.506 10.5803 143.669 10.8913 143.047 11.5134C142.425 12.1206 142.114 13.0315 142.114 14.246V20H139.337V8.13647ZM150.651 20L157.65 4.44855H160.493L167.514 20H164.492L162.947 16.4009H155.168L153.628 20H150.651ZM159.05 7.32892L161.973 14.1349H156.138L159.05 7.32892ZM168.492 20V10.447H166.537V8.22533H168.492V7.46997C168.492 6.22586 168.855 5.23353 169.58 4.49298C170.321 3.73763 171.372 3.35995 172.735 3.35995C173.224 3.35995 173.683 3.41179 174.112 3.51546C174.557 3.61914 174.927 3.78206 175.223 4.00422L174.468 6.09256C174.261 5.92964 174.024 5.81115 173.757 5.7371C173.49 5.64823 173.216 5.6038 172.935 5.6038C172.357 5.6038 171.92 5.76672 171.624 6.09256C171.328 6.40359 171.18 6.87754 171.18 7.51441V8.22533H174.446V10.447H171.269V20H168.492ZM175.226 8.13647H177.87V9.87255C178.21 9.34993 178.662 8.93415 179.225 8.62523C179.995 8.21052 180.95 8.00317 182.091 8.00317V10.6469C181.972 10.6173 181.861 10.6025 181.757 10.6025C181.654 10.5877 181.55 10.5803 181.446 10.5803C180.395 10.5803 179.558 10.8913 178.936 11.5134C178.314 12.1206 178.003 13.0315 178.003 14.246V20H175.226V8.13647ZM183.336 8.13647H186.113V20H183.336V8.13647ZM184.735 6.18143C184.217 6.18143 183.787 6.01851 183.447 5.69267C183.121 5.36683 182.958 4.97434 182.958 4.5152C182.958 4.04125 183.121 3.64876 183.447 3.33773C183.787 3.01189 184.217 2.84897 184.735 2.84897C185.254 2.84897 185.676 3.00449 186.002 3.31552C186.342 3.61173 186.513 3.98941 186.513 4.44855C186.513 4.93731 186.35 5.35201 186.024 5.69267C185.698 6.01851 185.269 6.18143 184.735 6.18143ZM194.09 20.1555C192.846 20.1555 191.735 19.8963 190.757 19.3779C189.795 18.8447 189.039 18.119 188.491 17.2007C187.943 16.2825 187.669 15.2383 187.669 14.0682C187.669 12.8834 187.943 11.8392 188.491 10.9357C189.039 10.0175 189.795 9.29912 190.757 8.78074C191.735 8.26236 192.846 8.00317 194.09 8.00317C195.245 8.00317 196.26 8.24014 197.133 8.71409C198.022 9.17323 198.696 9.85453 199.155 10.758L197.022 12.0021C196.667 11.4393 196.23 11.0246 195.712 10.758C195.208 10.4914 194.66 10.3581 194.068 10.3581C193.386 10.3581 192.772 10.5062 192.224 10.8024C191.676 11.0986 191.246 11.5282 190.935 12.091C190.624 12.639 190.469 13.2981 190.469 14.0682C190.469 14.8384 190.624 15.5049 190.935 16.0677C191.246 16.6157 191.676 17.0378 192.224 17.334C192.772 17.6303 193.386 17.7784 194.068 17.7784C194.66 17.7784 195.208 17.6451 195.712 17.3785C196.23 17.1119 196.667 16.6972 197.022 16.1344L199.155 17.3785C198.696 18.2671 198.022 18.9558 197.133 19.4446C196.26 19.9185 195.245 20.1555 194.09 20.1555ZM207.754 20V18.5604C207.478 18.9734 207.101 19.3126 206.621 19.5779C205.94 19.963 205.073 20.1555 204.022 20.1555C203.133 20.1555 202.355 20.0074 201.689 19.7112C201.023 19.4002 200.504 18.978 200.134 18.4449C199.778 17.8969 199.601 17.2822 199.601 16.6009C199.601 15.9344 199.756 15.3346 200.067 14.8014C200.393 14.2682 200.919 13.8461 201.645 13.535C202.37 13.224 203.333 13.0685 204.533 13.0685H207.599V12.8908C207.599 12.0762 207.354 11.4467 206.865 11.0024C206.377 10.5432 205.636 10.3137 204.644 10.3137C203.977 10.3137 203.318 10.4173 202.667 10.6247C202.03 10.832 201.489 11.1209 201.045 11.4911L199.956 9.46945C200.593 8.98069 201.348 8.61782 202.222 8.38085C203.111 8.12906 204.029 8.00317 204.977 8.00317C206.695 8.00317 208.021 8.41787 208.954 9.24728C209.902 10.0619 210.376 11.3282 210.376 13.0463V20H207.754ZM207.599 14.9125V16.2899C207.362 16.8971 206.969 17.3563 206.421 17.6673C205.888 17.9783 205.281 18.1338 204.599 18.1338C203.888 18.1338 203.333 17.9857 202.933 17.6895C202.533 17.3933 202.333 16.9934 202.333 16.4898C202.333 16.0455 202.496 15.6752 202.822 15.379C203.148 15.068 203.785 14.9125 204.733 14.9125H207.599ZM243.43 12.4967V6.24838H250.907C250.907 9.7058 247.551 12.4967 243.43 12.4967ZM235.96 24.9934V24.9877L243.43 18.7451L235.96 18.7451H228.483V24.9934L235.953 24.9934L235.96 24.9934ZM250.907 0H243.43V6.24835H250.907V0ZM221 18.7451H228.477V24.9934H221V18.7451ZM243.43 18.745H235.953C235.953 15.3015 239.31 12.4967 243.43 12.4967V18.745ZM228.483 12.4967V6.24835H235.96C235.96 9.70577 232.604 12.4967 228.483 12.4967ZM228.477 18.745V12.4967C224.356 12.4967 221 15.3015 221 18.745H228.477Z" fill="#FFFCFC"/>
</svg>
