<svg width="362" height="47" viewBox="0 0 362 47" fill="none" xmlns="http://www.w3.org/2000/svg">
<path d="M10.5704 35.3173C8.83588 35.3173 7.17538 35.074 5.58891 34.5875C4.00244 34.0798 2.74385 33.4347 1.81312 32.652L3.24094 29.4474C4.12936 30.1454 5.22931 30.7271 6.54079 31.1925C7.85227 31.6578 9.19548 31.8905 10.5704 31.8905C11.7338 31.8905 12.6751 31.7636 13.3943 31.5098C14.1135 31.2559 14.6423 30.9175 14.9808 30.4944C15.3192 30.0502 15.4885 29.5531 15.4885 29.0032C15.4885 28.3263 15.2452 27.7869 14.7587 27.385C14.2722 26.9619 13.6376 26.634 12.8549 26.4013C12.0934 26.1475 11.2367 25.9148 10.2849 25.7033C9.35412 25.4918 8.41282 25.2485 7.46094 24.9735C6.53021 24.6774 5.67352 24.3072 4.89086 23.863C4.12936 23.3976 3.50535 22.7842 3.01883 22.0227C2.53232 21.2612 2.28906 20.2882 2.28906 19.1036C2.28906 17.8979 2.60635 16.7979 3.24094 15.8037C3.89668 14.7884 4.88029 13.9846 6.19177 13.3923C7.5244 12.7789 9.20605 12.4722 11.2367 12.4722C12.5694 12.4722 13.8914 12.6414 15.2029 12.9798C16.5144 13.3183 17.6566 13.8048 18.6297 14.4394L17.3288 17.644C16.3346 17.0518 15.3087 16.6181 14.251 16.3431C13.1934 16.047 12.178 15.8989 11.205 15.8989C10.0627 15.8989 9.13202 16.0364 8.41282 16.3114C7.71478 16.5864 7.19653 16.946 6.85808 17.3902C6.54079 17.8344 6.38214 18.3421 6.38214 18.9132C6.38214 19.5901 6.61482 20.1401 7.08019 20.5632C7.5667 20.9651 8.19072 21.2823 8.95222 21.515C9.73488 21.7477 10.6021 21.9804 11.554 22.2131C12.5059 22.4246 13.4472 22.6679 14.3779 22.9429C15.3298 23.2178 16.1865 23.5774 16.948 24.0216C17.7307 24.4659 18.3547 25.0687 18.82 25.8302C19.3066 26.5917 19.5498 27.5542 19.5498 28.7176C19.5498 29.9022 19.2219 31.0021 18.5662 32.0174C17.9316 33.0116 16.948 33.8154 15.6154 34.4289C14.2827 35.0212 12.6011 35.3173 10.5704 35.3173ZM29.4464 35.2221C27.6696 35.2221 26.0831 34.8519 24.687 34.1116C23.3121 33.3501 22.2333 32.3136 21.4506 31.0021C20.6679 29.6906 20.2766 28.1993 20.2766 26.5283C20.2766 24.836 20.6679 23.3448 21.4506 22.0544C22.2333 20.7429 23.3121 19.717 24.687 18.9767C26.0831 18.2363 27.6696 17.8662 29.4464 17.8662C31.0963 17.8662 32.5453 18.2046 33.7933 18.8815C35.0625 19.5372 36.0249 20.5103 36.6807 21.8006L33.6347 23.5774C33.127 22.7736 32.503 22.1813 31.7626 21.8006C31.0434 21.4198 30.2608 21.2295 29.4147 21.2295C28.4416 21.2295 27.5638 21.441 26.7811 21.8641C25.9985 22.2871 25.385 22.9005 24.9408 23.7044C24.4966 24.487 24.2745 25.4283 24.2745 26.5283C24.2745 27.6282 24.4966 28.5801 24.9408 29.3839C25.385 30.1666 25.9985 30.7694 26.7811 31.1925C27.5638 31.6155 28.4416 31.8271 29.4147 31.8271C30.2608 31.8271 31.0434 31.6367 31.7626 31.2559C32.503 30.8752 33.127 30.2829 33.6347 29.4791L36.6807 31.2559C36.0249 32.5251 35.0625 33.5087 33.7933 34.2068C32.5453 34.8837 31.0963 35.2221 29.4464 35.2221ZM38.5227 35V18.0565H42.2985V22.7207L41.8543 21.3564C42.362 20.2141 43.1552 19.3469 44.234 18.7546C45.334 18.1623 46.6983 17.8662 48.3271 17.8662V21.6419C48.1579 21.5996 47.9992 21.5785 47.8511 21.5785C47.7031 21.5573 47.555 21.5468 47.4069 21.5468C45.9051 21.5468 44.7099 21.991 43.8215 22.8794C42.9331 23.7467 42.4889 25.0476 42.4889 26.7821V35H38.5227ZM57.4309 35.2221C55.9925 35.2221 54.7234 34.9577 53.6234 34.4289C52.5235 33.8789 51.6668 33.0539 51.0533 31.954C50.4399 30.8329 50.1332 29.4262 50.1332 27.734V18.0565H54.0994V27.1946C54.0994 28.7176 54.4378 29.8598 55.1147 30.6214C55.8127 31.3617 56.7963 31.7319 58.0655 31.7319C58.9962 31.7319 59.8001 31.5415 60.4769 31.1607C61.175 30.78 61.7144 30.2089 62.0951 29.4474C62.4971 28.6859 62.698 27.7446 62.698 26.6235V18.0565H66.6642V35H62.8884V30.431L63.5547 31.8271C62.9836 32.927 62.148 33.7731 61.0481 34.3654C59.9481 34.9365 58.7424 35.2221 57.4309 35.2221ZM91.6562 17.8662C93.01 17.8662 94.2052 18.1306 95.2417 18.6594C96.2993 19.1882 97.1243 20.0026 97.7165 21.1025C98.3088 22.1813 98.605 23.5774 98.605 25.2908V35H94.6388V25.7985C94.6388 24.2966 94.3109 23.1755 93.6552 22.4352C92.9994 21.6948 92.0581 21.3247 90.8313 21.3247C89.964 21.3247 89.1919 21.515 88.515 21.8958C87.8593 22.2765 87.341 22.8371 86.9603 23.5774C86.6007 24.3178 86.4209 25.2591 86.4209 26.4013V35H82.4547V25.7985C82.4547 24.2966 82.1269 23.1755 81.4711 22.4352C80.8154 21.6948 79.8741 21.3247 78.6472 21.3247C77.7799 21.3247 77.0079 21.515 76.331 21.8958C75.6752 22.2765 75.157 22.8371 74.7762 23.5774C74.4166 24.3178 74.2368 25.2591 74.2368 26.4013V35H70.2707V18.0565H74.0465V22.5621L73.3801 21.2295C73.9513 20.1295 74.7762 19.294 75.855 18.7228C76.955 18.1517 78.203 17.8662 79.5991 17.8662C81.1856 17.8662 82.5605 18.2575 83.7239 19.0401C84.9085 19.8228 85.6911 21.0074 86.0719 22.5938L84.5171 22.0544C85.0671 20.7853 85.9767 19.7699 87.2459 19.0084C88.515 18.2469 89.9852 17.8662 91.6562 17.8662ZM109.65 35V12.7895H113.045L122.754 29.0032H120.977L130.528 12.7895H133.923L133.955 35H130.052L130.02 18.9132H130.845L122.722 32.4617H120.882L112.633 18.9132H113.584V35H109.65ZM148.426 35V31.5732L148.204 30.8435V24.8466C148.204 23.6832 147.855 22.7842 147.157 22.1496C146.459 21.4939 145.401 21.166 143.984 21.166C143.032 21.166 142.09 21.3141 141.16 21.6102C140.25 21.9064 139.478 22.3188 138.843 22.8477L137.289 19.9603C138.198 19.2622 139.277 18.744 140.525 18.4056C141.794 18.046 143.106 17.8662 144.46 17.8662C146.913 17.8662 148.806 18.4584 150.139 19.643C151.493 20.8064 152.17 22.615 152.17 25.0687V35H148.426ZM143.095 35.2221C141.826 35.2221 140.715 35.0106 139.764 34.5875C138.812 34.1433 138.071 33.5405 137.543 32.7789C137.035 31.9963 136.781 31.1184 136.781 30.1454C136.781 29.1935 137.003 28.3368 137.447 27.5753C137.913 26.8138 138.664 26.211 139.7 25.7668C140.737 25.3226 142.112 25.1004 143.825 25.1004H148.743V27.734H144.111C142.757 27.734 141.847 27.9561 141.382 28.4003C140.916 28.8234 140.684 29.3522 140.684 29.9868C140.684 30.706 140.969 31.2771 141.54 31.7001C142.112 32.1232 142.905 32.3347 143.92 32.3347C144.893 32.3347 145.76 32.1126 146.522 31.6684C147.305 31.2242 147.865 30.5685 148.204 29.7012L148.87 32.0809C148.489 33.0751 147.802 33.8472 146.808 34.3971C145.834 34.9471 144.597 35.2221 143.095 35.2221ZM160.909 35.2221C159.491 35.2221 158.127 35.0423 156.816 34.6827C155.525 34.302 154.499 33.8472 153.738 33.3183L155.261 30.3041C156.022 30.7906 156.932 31.1925 157.99 31.5098C159.047 31.8271 160.105 31.9857 161.163 31.9857C162.411 31.9857 163.31 31.8165 163.86 31.478C164.431 31.1396 164.716 30.6848 164.716 30.1137C164.716 29.6483 164.526 29.2993 164.145 29.0666C163.764 28.8128 163.267 28.6224 162.654 28.4955C162.04 28.3686 161.353 28.2522 160.591 28.1465C159.851 28.0407 159.1 27.9032 158.339 27.734C157.598 27.5436 156.921 27.2792 156.308 26.9407C155.695 26.5811 155.197 26.1052 154.817 25.5129C154.436 24.9206 154.246 24.138 154.246 23.165C154.246 22.0862 154.552 21.1554 155.166 20.3728C155.779 19.569 156.636 18.9555 157.736 18.5325C158.857 18.0883 160.179 17.8662 161.702 17.8662C162.844 17.8662 163.997 17.9931 165.16 18.2469C166.324 18.5007 167.286 18.8603 168.048 19.3257L166.525 22.34C165.721 21.8535 164.907 21.5256 164.082 21.3564C163.278 21.166 162.474 21.0708 161.67 21.0708C160.465 21.0708 159.566 21.2506 158.973 21.6102C158.402 21.9698 158.117 22.4246 158.117 22.9746C158.117 23.4822 158.307 23.863 158.688 24.1168C159.068 24.3707 159.566 24.5716 160.179 24.7197C160.792 24.8678 161.469 24.9947 162.21 25.1004C162.971 25.1851 163.722 25.3226 164.462 25.5129C165.203 25.7033 165.88 25.9677 166.493 26.3062C167.128 26.6235 167.635 27.0782 168.016 27.6705C168.397 28.2628 168.587 29.0349 168.587 29.9868C168.587 31.0444 168.27 31.9646 167.635 32.7472C167.022 33.5299 166.144 34.1433 165.002 34.5875C163.86 35.0106 162.495 35.2221 160.909 35.2221ZM176.794 35.2221C174.933 35.2221 173.494 34.7462 172.479 33.7943C171.463 32.8213 170.956 31.3934 170.956 29.5108V14.3125H174.922V29.4156C174.922 30.2194 175.123 30.8435 175.525 31.2877C175.948 31.7319 176.53 31.954 177.27 31.954C178.158 31.954 178.899 31.7213 179.491 31.2559L180.601 34.0798C180.136 34.4606 179.565 34.7462 178.888 34.9365C178.211 35.1269 177.513 35.2221 176.794 35.2221ZM168.164 21.3564V18.1834H179.459V21.3564H168.164ZM189.684 35.2221C187.801 35.2221 186.151 34.8519 184.734 34.1116C183.338 33.3501 182.249 32.3136 181.466 31.0021C180.705 29.6906 180.324 28.1993 180.324 26.5283C180.324 24.836 180.694 23.3448 181.434 22.0544C182.196 20.7429 183.232 19.717 184.544 18.9767C185.876 18.2363 187.389 17.8662 189.081 17.8662C190.731 17.8662 192.201 18.2258 193.492 18.945C194.782 19.6642 195.797 20.6795 196.538 21.991C197.278 23.3024 197.648 24.8466 197.648 26.6235C197.648 26.7927 197.638 26.9831 197.616 27.1946C197.616 27.4061 197.606 27.6071 197.585 27.7974H183.465V25.1639H195.49L193.936 25.9889C193.957 25.0158 193.756 24.1591 193.333 23.4188C192.91 22.6784 192.328 22.0967 191.588 21.6737C190.869 21.2506 190.033 21.0391 189.081 21.0391C188.108 21.0391 187.251 21.2506 186.511 21.6737C185.792 22.0967 185.221 22.689 184.798 23.4505C184.396 24.1909 184.195 25.0687 184.195 26.0841V26.7186C184.195 27.734 184.428 28.633 184.893 29.4156C185.358 30.1983 186.014 30.8012 186.86 31.2242C187.706 31.6473 188.679 31.8588 189.779 31.8588C190.731 31.8588 191.588 31.7107 192.349 31.4146C193.111 31.1184 193.788 30.6531 194.38 30.0185L196.506 32.4617C195.744 33.3501 194.782 34.0375 193.618 34.5241C192.476 34.9894 191.165 35.2221 189.684 35.2221ZM199.871 35V18.0565H203.647V22.7207L203.203 21.3564C203.711 20.2141 204.504 19.3469 205.583 18.7546C206.683 18.1623 208.047 17.8662 209.676 17.8662V21.6419C209.507 21.5996 209.348 21.5785 209.2 21.5785C209.052 21.5573 208.904 21.5468 208.756 21.5468C207.254 21.5468 206.059 21.991 205.17 22.8794C204.282 23.7467 203.838 25.0476 203.838 26.7821V35H199.871ZM216.031 35L226.026 12.7895H230.087L240.113 35H235.798L227.2 14.9788H228.849L220.283 35H216.031ZM220.632 29.8598L221.742 26.6235H233.736L234.846 29.8598H220.632ZM241.51 35V17.1047C241.51 15.3278 242.028 13.9106 243.065 12.8529C244.123 11.7741 245.624 11.2347 247.57 11.2347C248.269 11.2347 248.924 11.3088 249.538 11.4568C250.172 11.6049 250.701 11.8376 251.124 12.1549L250.045 15.1374C249.749 14.9048 249.411 14.7355 249.03 14.6298C248.649 14.5028 248.258 14.4394 247.856 14.4394C247.031 14.4394 246.407 14.6721 245.984 15.1374C245.561 15.5816 245.349 16.2585 245.349 17.1681V19.0719L245.476 20.8487V35H241.51ZM238.718 21.3564V18.1834H250.014V21.3564H238.718ZM251.128 35V18.0565H254.904V22.7207L254.459 21.3564C254.967 20.2141 255.76 19.3469 256.839 18.7546C257.939 18.1623 259.303 17.8662 260.932 17.8662V21.6419C260.763 21.5996 260.604 21.5785 260.456 21.5785C260.308 21.5573 260.16 21.5468 260.012 21.5468C258.51 21.5468 257.315 21.991 256.427 22.8794C255.538 23.7467 255.094 25.0476 255.094 26.7821V35H251.128ZM262.71 35V18.0565H266.676V35H262.71ZM264.709 15.2643C263.969 15.2643 263.355 15.0317 262.869 14.5663C262.404 14.1009 262.171 13.5404 262.171 12.8846C262.171 12.2078 262.404 11.6472 262.869 11.203C263.355 10.7376 263.969 10.5049 264.709 10.5049C265.45 10.5049 266.052 10.7271 266.518 11.1713C267.004 11.5943 267.248 12.1337 267.248 12.7895C267.248 13.4875 267.015 14.0798 266.55 14.5663C266.084 15.0317 265.471 15.2643 264.709 15.2643ZM278.069 35.2221C276.292 35.2221 274.706 34.8519 273.31 34.1116C271.935 33.3501 270.856 32.3136 270.074 31.0021C269.291 29.6906 268.9 28.1993 268.9 26.5283C268.9 24.836 269.291 23.3448 270.074 22.0544C270.856 20.7429 271.935 19.717 273.31 18.9767C274.706 18.2363 276.292 17.8662 278.069 17.8662C279.719 17.8662 281.168 18.2046 282.416 18.8815C283.685 19.5372 284.648 20.5103 285.304 21.8006L282.258 23.5774C281.75 22.7736 281.126 22.1813 280.386 21.8006C279.666 21.4198 278.884 21.2295 278.038 21.2295C277.065 21.2295 276.187 21.441 275.404 21.8641C274.621 22.2871 274.008 22.9005 273.564 23.7044C273.12 24.487 272.897 25.4283 272.897 26.5283C272.897 27.6282 273.12 28.5801 273.564 29.3839C274.008 30.1666 274.621 30.7694 275.404 31.1925C276.187 31.6155 277.065 31.8271 278.038 31.8271C278.884 31.8271 279.666 31.6367 280.386 31.2559C281.126 30.8752 281.75 30.2829 282.258 29.4791L285.304 31.2559C284.648 32.5251 283.685 33.5087 282.416 34.2068C281.168 34.8837 279.719 35.2221 278.069 35.2221ZM297.585 35V31.5732L297.362 30.8435V24.8466C297.362 23.6832 297.013 22.7842 296.315 22.1496C295.617 21.4939 294.56 21.166 293.142 21.166C292.191 21.166 291.249 21.3141 290.319 21.6102C289.409 21.9064 288.637 22.3188 288.002 22.8477L286.448 19.9603C287.357 19.2622 288.436 18.744 289.684 18.4056C290.953 18.046 292.265 17.8662 293.618 17.8662C296.072 17.8662 297.965 18.4584 299.298 19.643C300.652 20.8064 301.329 22.615 301.329 25.0687V35H297.585ZM292.254 35.2221C290.985 35.2221 289.874 35.0106 288.922 34.5875C287.971 34.1433 287.23 33.5405 286.701 32.7789C286.194 31.9963 285.94 31.1184 285.94 30.1454C285.94 29.1935 286.162 28.3368 286.606 27.5753C287.072 26.8138 287.823 26.211 288.859 25.7668C289.896 25.3226 291.27 25.1004 292.984 25.1004H297.902V27.734H293.269C291.916 27.734 291.006 27.9561 290.541 28.4003C290.075 28.8234 289.843 29.3522 289.843 29.9868C289.843 30.706 290.128 31.2771 290.699 31.7001C291.27 32.1232 292.064 32.3347 293.079 32.3347C294.052 32.3347 294.919 32.1126 295.681 31.6684C296.463 31.2242 297.024 30.5685 297.362 29.7012L298.029 32.0809C297.648 33.0751 296.961 33.8472 295.966 34.3971C294.993 34.9471 293.756 35.2221 292.254 35.2221Z" fill="black"/>
<path d="M350.611 15.6662H339.932V6.74237L350.611 15.6662Z" fill="black"/>
<path d="M361.288 15.6662L350.611 15.6662L350.61 24.5901C356.495 24.5901 361.288 20.6041 361.288 15.6662Z" fill="black"/>
<path d="M339.932 42.4379V33.514H350.611L339.932 42.4379Z" fill="black"/>
<path d="M329.265 15.6662H339.944V6.74237L329.265 15.6662Z" fill="black"/>
<path d="M339.944 42.4379V33.514H329.265L339.944 42.4379Z" fill="black"/>
<path d="M350.61 6.74237H361.288V15.6662L350.61 6.74237Z" fill="black"/>
<path d="M318.576 33.514H329.254V42.4379L318.576 33.514Z" fill="black"/>
<path d="M329.254 42.4379H318.576V33.514L329.254 42.4379Z" fill="black"/>
<path d="M339.944 42.4379H329.265V33.514L339.944 42.4379Z" fill="black"/>
<path d="M339.932 6.74237H350.61L350.611 15.6662L339.932 6.74237Z" fill="black"/>
<path d="M361.288 15.6662L350.611 15.6662L350.61 6.74237L361.288 15.6662Z" fill="black"/>
<path d="M339.932 33.514H350.611L350.61 24.5901C344.725 24.5901 339.932 28.596 339.932 33.514Z" fill="black"/>
<path d="M329.265 24.5901V15.6662H339.944C339.944 20.6041 335.15 24.5901 329.265 24.5901Z" fill="black"/>
<path d="M329.254 24.5901V33.514H318.576C318.576 28.596 323.37 24.5901 329.254 24.5901Z" fill="black"/>
</svg>
