<svg width="282" height="31" viewBox="0 0 282 31" fill="none" xmlns="http://www.w3.org/2000/svg">
<path d="M36.1724 24.865C34.9579 24.865 33.7952 24.6947 32.6844 24.354C31.5736 23.9985 30.6924 23.5468 30.0407 22.9988L31.0404 20.755C31.6625 21.2437 32.4326 21.651 33.3509 21.9769C34.2692 22.3027 35.2097 22.4656 36.1724 22.4656C36.987 22.4656 37.6461 22.3768 38.1496 22.199C38.6532 22.0213 39.0235 21.7843 39.2605 21.4881C39.4974 21.1771 39.6159 20.829 39.6159 20.4439C39.6159 19.97 39.4456 19.5923 39.105 19.3109C38.7643 19.0147 38.32 18.7851 37.772 18.6222C37.2388 18.4445 36.6389 18.2815 35.9724 18.1334C35.3208 17.9853 34.6617 17.815 33.9952 17.6225C33.3435 17.4151 32.7437 17.1559 32.1957 16.8449C31.6625 16.519 31.2256 16.0895 30.8849 15.5563C30.5443 15.0231 30.3739 14.3418 30.3739 13.5124C30.3739 12.6682 30.5961 11.898 31.0404 11.2019C31.4996 10.491 32.1883 9.92819 33.1065 9.51348C34.0396 9.08397 35.2171 8.86921 36.6389 8.86921C37.572 8.86921 38.4977 8.9877 39.416 9.22467C40.3343 9.46164 41.134 9.8023 41.8153 10.2466L40.9045 12.4905C40.2084 12.0758 39.49 11.7721 38.7495 11.5796C38.0089 11.3723 37.298 11.2686 36.6167 11.2686C35.8169 11.2686 35.1653 11.3648 34.6617 11.5574C34.1729 11.7499 33.8101 12.0017 33.5731 12.3127C33.3509 12.6238 33.2398 12.9792 33.2398 13.3791C33.2398 13.8531 33.4028 14.2382 33.7286 14.5344C34.0692 14.8158 34.5062 15.038 35.0394 15.2009C35.5874 15.3638 36.1946 15.5267 36.8611 15.6896C37.5276 15.8377 38.1867 16.0081 38.8384 16.2006C39.5048 16.3931 40.1047 16.6449 40.6379 16.956C41.1859 17.267 41.6228 17.6891 41.9486 18.2223C42.2893 18.7555 42.4596 19.4294 42.4596 20.244C42.4596 21.0734 42.2301 21.8436 41.7709 22.5545C41.3266 23.2506 40.6379 23.8134 39.7048 24.2429C38.7717 24.6576 37.5942 24.865 36.1724 24.865ZM49.389 24.7983C48.1449 24.7983 47.0341 24.5391 46.0566 24.0208C45.0939 23.4876 44.3385 22.7618 43.7905 21.8436C43.2425 20.9253 42.9685 19.8811 42.9685 18.7111C42.9685 17.5262 43.2425 16.482 43.7905 15.5785C44.3385 14.6603 45.0939 13.9419 46.0566 13.4236C47.0341 12.9052 48.1449 12.646 49.389 12.646C50.5443 12.646 51.5588 12.883 52.4327 13.3569C53.3213 13.8161 53.9952 14.4974 54.4544 15.4008L52.3216 16.6449C51.9661 16.0821 51.5292 15.6674 51.0108 15.4008C50.5073 15.1342 49.9593 15.0009 49.3668 15.0009C48.6855 15.0009 48.0709 15.149 47.5229 15.4453C46.9749 15.7415 46.5453 16.171 46.2343 16.7338C45.9233 17.2818 45.7678 17.9409 45.7678 18.7111C45.7678 19.4812 45.9233 20.1477 46.2343 20.7105C46.5453 21.2585 46.9749 21.6806 47.5229 21.9769C48.0709 22.2731 48.6855 22.4212 49.3668 22.4212C49.9593 22.4212 50.5073 22.2879 51.0108 22.0213C51.5292 21.7547 51.9661 21.34 52.3216 20.7772L54.4544 22.0213C53.9952 22.9099 53.3213 23.5987 52.4327 24.0874C51.5588 24.5614 50.5443 24.7983 49.389 24.7983ZM55.7441 24.6428V12.7793H58.3879V16.0451L58.0769 15.0898C58.4323 14.29 58.9877 13.6828 59.7431 13.268C60.5132 12.8533 61.4685 12.646 62.609 12.646V15.2897C62.4905 15.2601 62.3794 15.2453 62.2757 15.2453C62.1721 15.2305 62.0684 15.2231 61.9647 15.2231C60.9131 15.2231 60.0763 15.5341 59.4543 16.1562C58.8322 16.7634 58.5212 17.6743 58.5212 18.8888V24.6428H55.7441ZM68.9834 24.7983C67.9762 24.7983 67.0876 24.6132 66.3174 24.2429C65.5472 23.8578 64.9474 23.2802 64.5179 22.5101C64.0883 21.7251 63.8736 20.7401 63.8736 19.5553V12.7793H66.6506V19.1776C66.6506 20.244 66.8876 21.0438 67.3616 21.577C67.8503 22.0953 68.539 22.3545 69.4277 22.3545C70.0794 22.3545 70.6422 22.2212 71.1161 21.9546C71.6049 21.688 71.9826 21.2882 72.2492 20.755C72.5306 20.2218 72.6713 19.5627 72.6713 18.7777V12.7793H75.4483V24.6428H72.8046V21.4437L73.2711 22.4212C72.8712 23.1914 72.2862 23.7838 71.516 24.1985C70.7458 24.5984 69.9016 24.7983 68.9834 24.7983ZM92.9473 12.646C93.8952 12.646 94.732 12.8311 95.4578 13.2014C96.1983 13.5717 96.7759 14.1419 97.1907 14.9121C97.6054 15.6674 97.8127 16.6449 97.8127 17.8446V24.6428H95.0357V18.2001C95.0357 17.1485 94.8061 16.3635 94.347 15.8451C93.8878 15.3268 93.2287 15.0676 92.3697 15.0676C91.7625 15.0676 91.2219 15.2009 90.7479 15.4675C90.2888 15.7341 89.9259 16.1266 89.6593 16.6449C89.4075 17.1633 89.2816 17.8224 89.2816 18.6222V24.6428H86.5046V18.2001C86.5046 17.1485 86.275 16.3635 85.8159 15.8451C85.3567 15.3268 84.6977 15.0676 83.8386 15.0676C83.2314 15.0676 82.6908 15.2009 82.2168 15.4675C81.7577 15.7341 81.3948 16.1266 81.1282 16.6449C80.8764 17.1633 80.7506 17.8224 80.7506 18.6222V24.6428H77.9735V12.7793H80.6173V15.934L80.1507 15.0009C80.5506 14.2308 81.1282 13.6457 81.8836 13.2458C82.6538 12.8459 83.5276 12.646 84.5051 12.646C85.6159 12.646 86.5786 12.92 87.3932 13.468C88.2227 14.016 88.7707 14.8454 89.0373 15.9562L87.9486 15.5785C88.3337 14.6899 88.9706 13.979 89.8593 13.4458C90.7479 12.9126 91.7773 12.646 92.9473 12.646ZM105.546 24.6428V9.09137H107.923L114.722 20.4439H113.478L120.165 9.09137H122.542L122.564 24.6428H119.831L119.809 13.3791H120.387L114.699 22.8655H113.411L107.635 13.3791H108.301V24.6428H105.546ZM132.696 24.6428V22.2435L132.541 21.7325V17.5336C132.541 16.719 132.296 16.0895 131.808 15.6452C131.319 15.1861 130.578 14.9565 129.586 14.9565C128.92 14.9565 128.261 15.0602 127.609 15.2675C126.972 15.4749 126.431 15.7637 125.987 16.134L124.898 14.1123C125.535 13.6235 126.291 13.2606 127.165 13.0237C128.053 12.7719 128.971 12.646 129.919 12.646C131.637 12.646 132.963 13.0607 133.896 13.8901C134.844 14.7047 135.318 15.971 135.318 17.6891V24.6428H132.696ZM128.964 24.7983C128.075 24.7983 127.298 24.6502 126.631 24.354C125.965 24.043 125.446 23.6209 125.076 23.0877C124.721 22.5397 124.543 21.925 124.543 21.2437C124.543 20.5772 124.699 19.9774 125.01 19.4442C125.335 18.911 125.861 18.4889 126.587 18.1779C127.313 17.8668 128.275 17.7113 129.475 17.7113H132.919V19.5553H129.675C128.727 19.5553 128.09 19.7108 127.764 20.0218C127.439 20.318 127.276 20.6883 127.276 21.1326C127.276 21.6362 127.476 22.0361 127.875 22.3323C128.275 22.6285 128.831 22.7766 129.542 22.7766C130.223 22.7766 130.83 22.6211 131.363 22.3101C131.911 21.9991 132.304 21.5399 132.541 20.9327L133.007 22.5989C132.741 23.295 132.259 23.8356 131.563 24.2207C130.882 24.6058 130.016 24.7983 128.964 24.7983ZM141.437 24.7983C140.444 24.7983 139.489 24.6724 138.571 24.4207C137.667 24.1541 136.949 23.8356 136.416 23.4654L137.482 21.3548C138.015 21.6955 138.652 21.9769 139.393 22.199C140.133 22.4212 140.874 22.5323 141.615 22.5323C142.488 22.5323 143.118 22.4138 143.503 22.1768C143.903 21.9398 144.103 21.6214 144.103 21.2215C144.103 20.8957 143.969 20.6513 143.703 20.4884C143.436 20.3106 143.088 20.1773 142.659 20.0885C142.229 19.9996 141.748 19.9181 141.215 19.8441C140.696 19.77 140.17 19.6738 139.637 19.5553C139.119 19.422 138.645 19.2368 138.215 18.9999C137.786 18.7481 137.438 18.4148 137.171 18.0001C136.905 17.5854 136.771 17.0374 136.771 16.3561C136.771 15.6008 136.986 14.9491 137.416 14.4011C137.845 13.8383 138.445 13.4088 139.215 13.1125C140 12.8015 140.926 12.646 141.992 12.646C142.792 12.646 143.599 12.7349 144.414 12.9126C145.228 13.0903 145.902 13.3421 146.435 13.6679L145.369 15.7785C144.806 15.4378 144.236 15.2083 143.658 15.0898C143.096 14.9565 142.533 14.8898 141.97 14.8898C141.126 14.8898 140.496 15.0157 140.082 15.2675C139.682 15.5193 139.482 15.8377 139.482 16.2228C139.482 16.5783 139.615 16.8449 139.882 17.0226C140.148 17.2003 140.496 17.341 140.926 17.4447C141.355 17.5484 141.829 17.6373 142.348 17.7113C142.881 17.7706 143.407 17.8668 143.925 18.0001C144.443 18.1334 144.917 18.3186 145.347 18.5555C145.791 18.7777 146.147 19.0961 146.413 19.5108C146.68 19.9255 146.813 20.4661 146.813 21.1326C146.813 21.8732 146.591 22.5175 146.147 23.0655C145.717 23.6135 145.102 24.043 144.303 24.354C143.503 24.6502 142.548 24.7983 141.437 24.7983ZM152.559 24.7983C151.256 24.7983 150.249 24.4651 149.538 23.7986C148.827 23.1173 148.472 22.1176 148.472 20.7994V10.1578H151.249V20.7327C151.249 21.2956 151.389 21.7325 151.671 22.0435C151.967 22.3545 152.374 22.5101 152.893 22.5101C153.515 22.5101 154.033 22.3471 154.448 22.0213L155.225 23.9985C154.899 24.2651 154.5 24.4651 154.026 24.5984C153.552 24.7317 153.063 24.7983 152.559 24.7983ZM146.517 15.0898V12.8682H154.426V15.0898H146.517ZM161.585 24.7983C160.267 24.7983 159.111 24.5391 158.119 24.0208C157.141 23.4876 156.379 22.7618 155.831 21.8436C155.298 20.9253 155.031 19.8811 155.031 18.7111C155.031 17.5262 155.29 16.482 155.809 15.5785C156.342 14.6603 157.067 13.9419 157.986 13.4236C158.919 12.9052 159.978 12.646 161.163 12.646C162.318 12.646 163.347 12.8978 164.251 13.4013C165.154 13.9049 165.865 14.6158 166.384 15.5341C166.902 16.4524 167.161 17.5336 167.161 18.7777C167.161 18.8962 167.154 19.0295 167.139 19.1776C167.139 19.3257 167.131 19.4664 167.117 19.5997H157.23V17.7558H165.65L164.562 18.3334C164.577 17.6521 164.436 17.0522 164.14 16.5339C163.843 16.0155 163.436 15.6082 162.918 15.312C162.414 15.0157 161.829 14.8676 161.163 14.8676C160.481 14.8676 159.882 15.0157 159.363 15.312C158.86 15.6082 158.46 16.0229 158.163 16.5561C157.882 17.0744 157.741 17.6891 157.741 18.4V18.8444C157.741 19.5553 157.904 20.1847 158.23 20.7327C158.556 21.2807 159.015 21.7029 159.608 21.9991C160.2 22.2953 160.881 22.4434 161.651 22.4434C162.318 22.4434 162.918 22.3397 163.451 22.1324C163.984 21.925 164.458 21.5992 164.873 21.1549L166.361 22.8655C165.828 23.4876 165.154 23.9689 164.34 24.3096C163.54 24.6354 162.622 24.7983 161.585 24.7983ZM168.718 24.6428V12.7793H171.362V16.0451L171.051 15.0898C171.406 14.29 171.961 13.6828 172.717 13.268C173.487 12.8533 174.442 12.646 175.583 12.646V15.2897C175.464 15.2601 175.353 15.2453 175.249 15.2453C175.146 15.2305 175.042 15.2231 174.938 15.2231C173.887 15.2231 173.05 15.5341 172.428 16.1562C171.806 16.7634 171.495 17.6743 171.495 18.8888V24.6428H168.718ZM180.032 24.6428L187.03 9.09137H189.874L196.895 24.6428H193.873L187.852 10.6243H189.008L183.009 24.6428H180.032ZM183.254 21.0438L184.031 18.7777H192.429L193.207 21.0438H183.254ZM197.873 24.6428V12.1128C197.873 10.8687 198.235 9.87635 198.961 9.13581C199.702 8.38045 200.753 8.00277 202.116 8.00277C202.605 8.00277 203.064 8.05461 203.493 8.15828C203.938 8.26196 204.308 8.42488 204.604 8.64705L203.849 10.7354C203.641 10.5725 203.404 10.454 203.138 10.3799C202.871 10.2911 202.597 10.2466 202.316 10.2466C201.738 10.2466 201.301 10.4095 201.005 10.7354C200.709 11.0464 200.561 11.5204 200.561 12.1572V13.4902L200.65 14.7343V24.6428H197.873ZM195.918 15.0898V12.8682H203.827V15.0898H195.918ZM204.607 24.6428V12.7793H207.25V16.0451L206.939 15.0898C207.295 14.29 207.85 13.6828 208.606 13.268C209.376 12.8533 210.331 12.646 211.472 12.646V15.2897C211.353 15.2601 211.242 15.2453 211.138 15.2453C211.035 15.2305 210.931 15.2231 210.827 15.2231C209.776 15.2231 208.939 15.5341 208.317 16.1562C207.695 16.7634 207.384 17.6743 207.384 18.8888V24.6428H204.607ZM212.717 24.6428V12.7793H215.494V24.6428H212.717ZM214.116 10.8242C213.598 10.8242 213.168 10.6613 212.828 10.3355C212.502 10.0096 212.339 9.61716 212.339 9.15802C212.339 8.68407 212.502 8.29158 212.828 7.98055C213.168 7.65471 213.598 7.49179 214.116 7.49179C214.635 7.49179 215.057 7.64731 215.383 7.95834C215.723 8.25456 215.894 8.63223 215.894 9.09137C215.894 9.58013 215.731 9.99484 215.405 10.3355C215.079 10.6613 214.649 10.8242 214.116 10.8242ZM223.471 24.7983C222.227 24.7983 221.116 24.5391 220.138 24.0208C219.176 23.4876 218.42 22.7618 217.872 21.8436C217.324 20.9253 217.05 19.8811 217.05 18.7111C217.05 17.5262 217.324 16.482 217.872 15.5785C218.42 14.6603 219.176 13.9419 220.138 13.4236C221.116 12.9052 222.227 12.646 223.471 12.646C224.626 12.646 225.64 12.883 226.514 13.3569C227.403 13.8161 228.077 14.4974 228.536 15.4008L226.403 16.6449C226.048 16.0821 225.611 15.6674 225.092 15.4008C224.589 15.1342 224.041 15.0009 223.448 15.0009C222.767 15.0009 222.153 15.149 221.605 15.4453C221.057 15.7415 220.627 16.171 220.316 16.7338C220.005 17.2818 219.849 17.9409 219.849 18.7111C219.849 19.4812 220.005 20.1477 220.316 20.7105C220.627 21.2585 221.057 21.6806 221.605 21.9769C222.153 22.2731 222.767 22.4212 223.448 22.4212C224.041 22.4212 224.589 22.2879 225.092 22.0213C225.611 21.7547 226.048 21.34 226.403 20.7772L228.536 22.0213C228.077 22.9099 227.403 23.5987 226.514 24.0874C225.64 24.5614 224.626 24.7983 223.471 24.7983ZM237.135 24.6428V22.2435L236.979 21.7325V17.5336C236.979 16.719 236.735 16.0895 236.246 15.6452C235.758 15.1861 235.017 14.9565 234.025 14.9565C233.358 14.9565 232.699 15.0602 232.047 15.2675C231.411 15.4749 230.87 15.7637 230.426 16.134L229.337 14.1123C229.974 13.6235 230.729 13.2606 231.603 13.0237C232.492 12.7719 233.41 12.646 234.358 12.646C236.076 12.646 237.402 13.0607 238.335 13.8901C239.283 14.7047 239.756 15.971 239.756 17.6891V24.6428H237.135ZM233.403 24.7983C232.514 24.7983 231.736 24.6502 231.07 24.354C230.403 24.043 229.885 23.6209 229.515 23.0877C229.159 22.5397 228.982 21.925 228.982 21.2437C228.982 20.5772 229.137 19.9774 229.448 19.4442C229.774 18.911 230.3 18.4889 231.025 18.1779C231.751 17.8668 232.714 17.7113 233.914 17.7113H237.357V19.5553H234.114C233.166 19.5553 232.529 19.7108 232.203 20.0218C231.877 20.318 231.714 20.6883 231.714 21.1326C231.714 21.6362 231.914 22.0361 232.314 22.3323C232.714 22.6285 233.269 22.7766 233.98 22.7766C234.662 22.7766 235.269 22.6211 235.802 22.3101C236.35 21.9991 236.742 21.5399 236.979 20.9327L237.446 22.5989C237.179 23.295 236.698 23.8356 236.002 24.2207C235.321 24.6058 234.454 24.7983 233.403 24.7983Z" fill="black"/>
<path d="M274.309 11.6121H266.832V5.36377L274.309 11.6121Z" fill="black"/>
<path d="M281.785 11.6121H274.309V17.8605C278.429 17.8605 281.785 15.0695 281.785 11.6121Z" fill="black"/>
<path d="M266.832 30.3572V24.1088H274.309L266.832 30.3572Z" fill="black"/>
<path d="M259.363 11.6121H266.84V5.36377L259.363 11.6121Z" fill="black"/>
<path d="M266.84 30.3572V24.1088H259.363L266.84 30.3572Z" fill="black"/>
<path d="M274.309 5.36377H281.785V11.6121L274.309 5.36377Z" fill="black"/>
<path d="M251.879 24.1088H259.356V30.3572L251.879 24.1088Z" fill="black"/>
<path d="M259.356 30.3572H251.879V24.1088L259.356 30.3572Z" fill="black"/>
<path d="M266.84 30.3572H259.363V24.1088L266.84 30.3572Z" fill="black"/>
<path d="M266.832 5.36377H274.309V11.6121L266.832 5.36377Z" fill="black"/>
<path d="M281.785 11.6121H274.309V5.36377L281.785 11.6121Z" fill="black"/>
<path d="M266.832 24.1088H274.309V17.8605C270.188 17.8605 266.832 20.6653 266.832 24.1088Z" fill="black"/>
<path d="M259.363 17.8605V11.6121H266.84C266.84 15.0695 263.484 17.8605 259.363 17.8605Z" fill="black"/>
<path d="M259.356 17.8605V24.1088H251.879C251.879 20.6653 255.235 17.8605 259.356 17.8605Z" fill="black"/>
</svg>
