<svg width="149" height="65" viewBox="0 0 149 65" fill="none" xmlns="http://www.w3.org/2000/svg">
<g clip-path="url(#clip0_1846_1171)">
<path d="M70.1462 41.7108V26.7763H64.4482V23.8623H79.2526V26.7763H73.5286V41.7108H70.1462Z" fill="#FF6E4A"/>
<path d="M70.1462 41.7108V26.7763H64.4482V23.8623H79.2526V26.7763H73.5286V41.7108H70.1462Z" fill="#FF6E4A"/>
<path d="M77.9771 41.7107L82.8686 34.6596L78.3153 28.0251H82.1659L84.8719 32.2659H85.0281L87.786 28.0251H91.4024L86.8233 34.5818L91.6627 41.7107H87.864L84.8199 36.9753H84.6639L81.5937 41.7107H77.9771Z" fill="#FF6E4A"/>
<path d="M77.9771 41.7107L82.8686 34.6596L78.3153 28.0251H82.1659L84.8719 32.2659H85.0281L87.786 28.0251H91.4024L86.8233 34.5818L91.6627 41.7107H87.864L84.8199 36.9753H84.6639L81.5937 41.7107H77.9771Z" fill="#FF6E4A"/>
<path d="M92.4961 41.7108V23.8623H106.416V26.7504H95.8785V31.1474H105.271V34.0354H95.8785V38.8227H106.572V41.7108H92.4961Z" fill="#FF6E4A"/>
<path d="M92.4961 41.7108V23.8623H106.416V26.7504H95.8785V31.1474H105.271V34.0354H95.8785V38.8227H106.572V41.7108H92.4961Z" fill="#FF6E4A"/>
<path d="M72.4361 64.6376C71.4473 64.6376 70.5017 64.5292 69.6 64.3124C68.6979 64.0957 67.8999 63.7575 67.2064 63.2978C66.5124 62.8384 65.966 62.2661 65.5671 61.5806C65.1679 60.8956 64.9688 60.0846 64.9688 59.148C64.9688 59.0438 64.9728 58.9398 64.9818 58.8356C64.9903 58.7317 64.9949 58.6535 64.9949 58.6016H68.4032C68.4032 58.6364 68.3988 58.7014 68.3902 58.7965C68.3812 58.8921 68.3771 58.9748 68.3771 59.0438C68.3771 59.6161 68.5418 60.1065 68.8714 60.5137C69.2007 60.9216 69.678 61.2339 70.3025 61.4504C70.9267 61.6674 71.664 61.7756 72.514 61.7756C73.0863 61.7756 73.5936 61.741 74.036 61.6715C74.4783 61.6023 74.8596 61.5026 75.1809 61.3724C75.5015 61.2423 75.7663 61.0862 75.9743 60.904C76.1825 60.7219 76.334 60.5182 76.4296 60.2925C76.5248 60.0675 76.5729 59.8243 76.5729 59.5642C76.5729 59.0611 76.4166 58.6449 76.1044 58.3151C75.7921 57.9858 75.3715 57.7083 74.8425 57.4825C74.3132 57.2575 73.7148 57.0533 73.0472 56.8712C72.3793 56.689 71.6943 56.5028 70.9918 56.3116C70.2893 56.121 69.6039 55.8912 68.9364 55.6223C68.2684 55.3535 67.6698 55.0282 67.141 54.6466C66.6117 54.2653 66.1913 53.7839 65.8791 53.2026C65.5668 52.6217 65.4108 51.9236 65.4108 51.1081C65.4108 50.2754 65.5883 49.547 65.9442 48.9225C66.2994 48.2983 66.8028 47.7822 67.4532 47.3745C68.1036 46.9673 68.8623 46.6634 69.7298 46.4638C70.5969 46.2647 71.5421 46.1648 72.5658 46.1648C73.5196 46.1648 74.4172 46.2647 75.2586 46.4638C76.0998 46.6634 76.8413 46.9757 77.4831 47.4004C78.1246 47.8257 78.628 48.3632 78.9924 49.0136C79.3566 49.664 79.5388 50.4405 79.5388 51.3421V51.6545H76.1825V51.3944C76.1825 50.8915 76.0304 50.4666 75.7272 50.1195C75.4234 49.7727 74.9987 49.504 74.4522 49.313C73.9057 49.1224 73.2684 49.0268 72.5399 49.0268C71.7594 49.0268 71.0914 49.1007 70.5366 49.2478C69.9814 49.3955 69.5564 49.6123 69.2617 49.8985C68.9665 50.1846 68.8193 50.5358 68.8193 50.9521C68.8193 51.386 68.9753 51.7502 69.2876 52.0451C69.5998 52.34 70.0201 52.5915 70.5495 52.7994C71.0784 53.0076 71.6767 53.1986 72.3447 53.3719C73.0123 53.5455 73.6977 53.732 74.4001 53.9312C75.1027 54.1308 75.7876 54.3606 76.4556 54.6206C77.1231 54.8808 77.7216 55.206 78.251 55.5963C78.7798 55.9867 79.2006 56.4679 79.5129 57.0403C79.8249 57.6126 79.9811 58.2981 79.9811 59.0957C79.9811 60.4317 79.6559 61.5068 79.0054 62.3219C78.355 63.1373 77.4614 63.727 76.3255 64.0911C75.1893 64.4553 73.8927 64.6375 72.4357 64.6375L72.4361 64.6376Z" fill="#FF6E4A"/>
<path d="M72.4361 64.6376C71.4473 64.6376 70.5017 64.5292 69.6 64.3124C68.6979 64.0957 67.8999 63.7575 67.2064 63.2978C66.5124 62.8384 65.966 62.2661 65.5671 61.5806C65.1679 60.8956 64.9688 60.0846 64.9688 59.148C64.9688 59.0438 64.9728 58.9398 64.9818 58.8356C64.9903 58.7317 64.9949 58.6535 64.9949 58.6016H68.4032C68.4032 58.6364 68.3988 58.7014 68.3902 58.7965C68.3812 58.8921 68.3771 58.9748 68.3771 59.0438C68.3771 59.6161 68.5418 60.1065 68.8714 60.5137C69.2007 60.9216 69.678 61.2339 70.3025 61.4504C70.9267 61.6674 71.664 61.7756 72.514 61.7756C73.0863 61.7756 73.5936 61.741 74.036 61.6715C74.4783 61.6023 74.8596 61.5026 75.1809 61.3724C75.5015 61.2423 75.7663 61.0862 75.9743 60.904C76.1825 60.7219 76.334 60.5182 76.4296 60.2925C76.5248 60.0675 76.5729 59.8243 76.5729 59.5642C76.5729 59.0611 76.4166 58.6449 76.1044 58.3151C75.7921 57.9858 75.3715 57.7083 74.8425 57.4825C74.3132 57.2575 73.7148 57.0533 73.0472 56.8712C72.3793 56.689 71.6943 56.5028 70.9918 56.3116C70.2893 56.121 69.6039 55.8912 68.9364 55.6223C68.2684 55.3535 67.6698 55.0282 67.141 54.6466C66.6117 54.2653 66.1913 53.7839 65.8791 53.2026C65.5668 52.6217 65.4108 51.9236 65.4108 51.1081C65.4108 50.2754 65.5883 49.547 65.9442 48.9225C66.2994 48.2983 66.8028 47.7822 67.4532 47.3745C68.1036 46.9673 68.8623 46.6634 69.7298 46.4638C70.5969 46.2647 71.5421 46.1648 72.5658 46.1648C73.5196 46.1648 74.4172 46.2647 75.2586 46.4638C76.0998 46.6634 76.8413 46.9757 77.4831 47.4004C78.1246 47.8257 78.628 48.3632 78.9924 49.0136C79.3566 49.664 79.5388 50.4405 79.5388 51.3421V51.6545H76.1825V51.3944C76.1825 50.8915 76.0304 50.4666 75.7272 50.1195C75.4234 49.7727 74.9987 49.504 74.4522 49.313C73.9057 49.1224 73.2684 49.0268 72.5399 49.0268C71.7594 49.0268 71.0914 49.1007 70.5366 49.2478C69.9814 49.3955 69.5564 49.6123 69.2617 49.8985C68.9665 50.1846 68.8193 50.5358 68.8193 50.9521C68.8193 51.386 68.9753 51.7502 69.2876 52.0451C69.5998 52.34 70.0201 52.5915 70.5495 52.7994C71.0784 53.0076 71.6767 53.1986 72.3447 53.3719C73.0123 53.5455 73.6977 53.732 74.4001 53.9312C75.1027 54.1308 75.7876 54.3606 76.4556 54.6206C77.1231 54.8808 77.7216 55.206 78.251 55.5963C78.7798 55.9867 79.2006 56.4679 79.5129 57.0403C79.8249 57.6126 79.9811 58.2981 79.9811 59.0957C79.9811 60.4317 79.6559 61.5068 79.0054 62.3219C78.355 63.1373 77.4614 63.727 76.3255 64.0911C75.1893 64.4553 73.8927 64.6375 72.4357 64.6375L72.4361 64.6376Z" fill="#FF6E4A"/>
<path d="M85.7833 64.6376C84.465 64.6376 83.3937 64.2778 82.5701 63.5581C81.7459 62.8384 81.3342 61.6111 81.3342 59.8763V50.6398H84.5085V59.304C84.5085 59.7898 84.5646 60.193 84.6776 60.5137C84.7902 60.8349 84.9549 61.0951 85.172 61.2943C85.3886 61.4939 85.6532 61.6369 85.9654 61.7235C86.2776 61.8105 86.6243 61.8536 87.0062 61.8536C87.5787 61.8536 88.0945 61.715 88.5542 61.4373C89.0136 61.1601 89.3778 60.7738 89.6469 60.2796C89.9157 59.7851 90.0501 59.2257 90.0501 58.6015V50.6396H93.2244V64.3253H90.5965L90.3365 62.5041H90.1542C89.8422 62.9204 89.4735 63.2891 89.0485 63.6097C88.6234 63.931 88.1379 64.1822 87.5915 64.3643C87.0451 64.5464 86.4423 64.6375 85.7832 64.6375L85.7833 64.6376Z" fill="#FF6E4A"/>
<path d="M85.7833 64.6376C84.465 64.6376 83.3937 64.2778 82.5701 63.5581C81.7459 62.8384 81.3342 61.6111 81.3342 59.8763V50.6398H84.5085V59.304C84.5085 59.7898 84.5646 60.193 84.6776 60.5137C84.7902 60.8349 84.9549 61.0951 85.172 61.2943C85.3886 61.4939 85.6532 61.6369 85.9654 61.7235C86.2776 61.8105 86.6243 61.8536 87.0062 61.8536C87.5787 61.8536 88.0945 61.715 88.5542 61.4373C89.0136 61.1601 89.3778 60.7738 89.6469 60.2796C89.9157 59.7851 90.0501 59.2257 90.0501 58.6015V50.6396H93.2244V64.3253H90.5965L90.3365 62.5041H90.1542C89.8422 62.9204 89.4735 63.2891 89.0485 63.6097C88.6234 63.931 88.1379 64.1822 87.5915 64.3643C87.0451 64.5464 86.4423 64.6375 85.7832 64.6375L85.7833 64.6376Z" fill="#FF6E4A"/>
<path d="M95.2017 64.3255V50.6398H97.8556L98.1159 52.4611H98.2978C98.5926 52.0448 98.931 51.6765 99.3126 51.3554C99.6939 51.0347 100.132 50.783 100.626 50.6008C101.121 50.4187 101.663 50.3276 102.253 50.3276C103.05 50.3276 103.762 50.4927 104.386 50.8219C105.011 51.1517 105.496 51.6981 105.843 52.4612H106.025C106.32 52.0449 106.667 51.6766 107.066 51.3555C107.465 51.0348 107.925 50.7831 108.445 50.6009C108.965 50.4189 109.529 50.3278 110.136 50.3278C110.951 50.3278 111.671 50.4752 112.296 50.7701C112.92 51.0653 113.415 51.5506 113.779 52.2271C114.143 52.9037 114.325 53.8058 114.325 54.9332V64.3257H111.151V55.5835C111.151 55.1152 111.099 54.7209 110.995 54.3998C110.891 54.079 110.748 53.8273 110.566 53.6451C110.384 53.4632 110.158 53.329 109.889 53.242C109.62 53.1554 109.33 53.1119 109.017 53.1119C108.514 53.1119 108.063 53.2508 107.664 53.5281C107.265 53.8058 106.949 54.1876 106.715 54.6729C106.481 55.1587 106.364 55.7225 106.364 56.3641V64.3257H103.189V55.5835C103.189 55.1152 103.138 54.7209 103.033 54.3998C102.929 54.079 102.786 53.8273 102.604 53.6451C102.422 53.4632 102.196 53.329 101.928 53.242C101.659 53.1554 101.368 53.1119 101.056 53.1119C100.553 53.1119 100.097 53.2508 99.6901 53.5281C99.2823 53.8058 98.9616 54.1876 98.7275 54.6729C98.4934 55.1587 98.3763 55.7225 98.3763 56.3641V64.3257H95.202L95.2017 64.3255Z" fill="#FF6E4A"/>
<path d="M95.2017 64.3255V50.6398H97.8556L98.1159 52.4611H98.2978C98.5926 52.0448 98.931 51.6765 99.3126 51.3554C99.6939 51.0347 100.132 50.783 100.626 50.6008C101.121 50.4187 101.663 50.3276 102.253 50.3276C103.05 50.3276 103.762 50.4927 104.386 50.8219C105.011 51.1517 105.496 51.6981 105.843 52.4612H106.025C106.32 52.0449 106.667 51.6766 107.066 51.3555C107.465 51.0348 107.925 50.7831 108.445 50.6009C108.965 50.4189 109.529 50.3278 110.136 50.3278C110.951 50.3278 111.671 50.4752 112.296 50.7701C112.92 51.0653 113.415 51.5506 113.779 52.2271C114.143 52.9037 114.325 53.8058 114.325 54.9332V64.3257H111.151V55.5835C111.151 55.1152 111.099 54.7209 110.995 54.3998C110.891 54.079 110.748 53.8273 110.566 53.6451C110.384 53.4632 110.158 53.329 109.889 53.242C109.62 53.1554 109.33 53.1119 109.017 53.1119C108.514 53.1119 108.063 53.2508 107.664 53.5281C107.265 53.8058 106.949 54.1876 106.715 54.6729C106.481 55.1587 106.364 55.7225 106.364 56.3641V64.3257H103.189V55.5835C103.189 55.1152 103.138 54.7209 103.033 54.3998C102.929 54.079 102.786 53.8273 102.604 53.6451C102.422 53.4632 102.196 53.329 101.928 53.242C101.659 53.1554 101.368 53.1119 101.056 53.1119C100.553 53.1119 100.097 53.2508 99.6901 53.5281C99.2823 53.8058 98.9616 54.1876 98.7275 54.6729C98.4934 55.1587 98.3763 55.7225 98.3763 56.3641V64.3257H95.202L95.2017 64.3255Z" fill="#FF6E4A"/>
<path d="M116.199 64.3255V50.6398H118.853L119.113 52.4611H119.295C119.59 52.0448 119.928 51.6765 120.31 51.3554C120.691 51.0347 121.129 50.783 121.624 50.6008C122.118 50.4187 122.66 50.3276 123.25 50.3276C124.047 50.3276 124.759 50.4927 125.383 50.8219C126.008 51.1517 126.493 51.6981 126.84 52.4612H127.022C127.317 52.0449 127.664 51.6766 128.063 51.3555C128.462 51.0348 128.922 50.7831 129.442 50.6009C129.962 50.4189 130.526 50.3278 131.133 50.3278C131.948 50.3278 132.668 50.4752 133.293 50.7701C133.917 51.0653 134.411 51.5506 134.776 52.2271C135.14 52.9037 135.322 53.8058 135.322 54.9332V64.3257H132.148V55.5835C132.148 55.1152 132.096 54.7209 131.992 54.3998C131.888 54.079 131.745 53.8273 131.563 53.6451C131.38 53.4632 131.155 53.329 130.886 53.242C130.617 53.1554 130.327 53.1119 130.014 53.1119C129.511 53.1119 129.06 53.2508 128.661 53.5281C128.262 53.8058 127.946 54.1876 127.712 54.6729C127.478 55.1587 127.36 55.7225 127.36 56.3641V64.3257H124.186V55.5835C124.186 55.1152 124.134 54.7209 124.03 54.3998C123.926 54.079 123.783 53.8273 123.601 53.6451C123.419 53.4632 123.193 53.329 122.925 53.242C122.655 53.1554 122.365 53.1119 122.053 53.1119C121.55 53.1119 121.094 53.2508 120.687 53.5281C120.279 53.8058 119.958 54.1876 119.724 54.6729C119.49 55.1587 119.373 55.7225 119.373 56.3641V64.3257H116.199V64.3255Z" fill="#FF6E4A"/>
<path d="M116.199 64.3255V50.6398H118.853L119.113 52.4611H119.295C119.59 52.0448 119.928 51.6765 120.31 51.3554C120.691 51.0347 121.129 50.783 121.624 50.6008C122.118 50.4187 122.66 50.3276 123.25 50.3276C124.047 50.3276 124.759 50.4927 125.383 50.8219C126.008 51.1517 126.493 51.6981 126.84 52.4612H127.022C127.317 52.0449 127.664 51.6766 128.063 51.3555C128.462 51.0348 128.922 50.7831 129.442 50.6009C129.962 50.4189 130.526 50.3278 131.133 50.3278C131.948 50.3278 132.668 50.4752 133.293 50.7701C133.917 51.0653 134.411 51.5506 134.776 52.2271C135.14 52.9037 135.322 53.8058 135.322 54.9332V64.3257H132.148V55.5835C132.148 55.1152 132.096 54.7209 131.992 54.3998C131.888 54.079 131.745 53.8273 131.563 53.6451C131.38 53.4632 131.155 53.329 130.886 53.242C130.617 53.1554 130.327 53.1119 130.014 53.1119C129.511 53.1119 129.06 53.2508 128.661 53.5281C128.262 53.8058 127.946 54.1876 127.712 54.6729C127.478 55.1587 127.36 55.7225 127.36 56.3641V64.3257H124.186V55.5835C124.186 55.1152 124.134 54.7209 124.03 54.3998C123.926 54.079 123.783 53.8273 123.601 53.6451C123.419 53.4632 123.193 53.329 122.925 53.242C122.655 53.1554 122.365 53.1119 122.053 53.1119C121.55 53.1119 121.094 53.2508 120.687 53.5281C120.279 53.8058 119.958 54.1876 119.724 54.6729C119.49 55.1587 119.373 55.7225 119.373 56.3641V64.3257H116.199V64.3255Z" fill="#FF6E4A"/>
<path d="M137.195 50.6397H140.369V64.3253H137.195V50.6397ZM137.195 45.514H140.369V48.5321H137.195V45.514Z" fill="#FF6E4A"/>
<path d="M145.964 64.6378C145.114 64.6378 144.446 64.4688 143.96 64.1305C143.474 63.7923 143.132 63.3591 142.932 62.8296C142.733 62.3008 142.633 61.7589 142.633 61.2036V53.242H140.994V50.64H142.711L143.284 46.8154H145.807V50.64H148.175V53.242H145.807V60.8913C145.807 61.2554 145.903 61.5376 146.094 61.7368C146.284 61.9364 146.571 62.0361 146.952 62.0361H148.175V64.2216C148.002 64.2911 147.789 64.3558 147.538 64.4167C147.286 64.4771 147.021 64.5294 146.744 64.5729C146.466 64.6159 146.206 64.6379 145.963 64.6379L145.964 64.6378Z" fill="#FF6E4A"/>
<path d="M145.964 64.6378C145.114 64.6378 144.446 64.4688 143.96 64.1305C143.474 63.7923 143.132 63.3591 142.932 62.8296C142.733 62.3008 142.633 61.7589 142.633 61.2036V53.242H140.994V50.64H142.711L143.284 46.8154H145.807V50.64H148.175V53.242H145.807V60.8913C145.807 61.2554 145.903 61.5376 146.094 61.7368C146.284 61.9364 146.571 62.0361 146.952 62.0361H148.175V64.2216C148.002 64.2911 147.789 64.3558 147.538 64.4167C147.286 64.4771 147.021 64.5294 146.744 64.5729C146.466 64.6159 146.206 64.6379 145.963 64.6379L145.964 64.6378Z" fill="#FF6E4A"/>
<path d="M17.2916 50.8757V50.8771C17.6202 51.0358 17.9526 51.1864 18.2894 51.3261C18.6466 51.4766 19.0092 51.616 19.376 51.7448H19.3774C19.7702 51.8843 20.1683 52.0129 20.5707 52.1293C20.9362 52.2347 21.3029 52.3306 21.6737 52.4181H21.6751C21.7382 52.4332 21.8009 52.4468 21.8641 52.462H21.8655C21.8763 52.4647 21.8873 52.4661 21.8984 52.4688H21.8995H21.901C22.2787 52.5536 22.6605 52.6289 23.0438 52.6933H23.0451C23.1435 52.711 23.245 52.7274 23.3449 52.7438H23.3463C23.364 52.7465 23.3803 52.7493 23.3982 52.752C23.7937 52.8136 24.1906 52.8642 24.5901 52.9053C24.7434 52.9217 24.8981 52.9353 25.0513 52.9477H25.0527C25.0828 52.9518 25.1103 52.9532 25.139 52.9544H25.1403C25.7985 53.0093 26.4568 53.0352 27.1193 53.0352C27.0864 53.0462 27.0536 53.0571 27.0209 53.068H27.1549L27.2522 53.0352H27.2534H27.2562C28.2265 53.0297 29.1982 52.9681 30.1629 52.8503L30.1643 52.8517L30.1657 52.8503H30.1672C33.5228 52.4467 36.7978 51.3791 39.6513 49.7123C40.2659 49.3537 40.8613 48.9664 41.4332 48.5518C41.4332 48.5504 41.4346 48.5504 41.4346 48.5504C41.6029 48.4298 41.7672 48.3068 41.9314 48.1796L41.9326 48.1782H41.9341C42.2488 47.936 42.5568 47.6855 42.8552 47.4254C43.051 47.2557 43.2439 47.082 43.4326 46.9041L43.434 46.9027C43.449 46.8877 43.4627 46.8754 43.4793 46.8604C43.6941 46.6564 43.9047 46.4485 44.1101 46.235C44.0375 46.1513 43.9746 46.0598 43.9198 45.9626C43.9157 45.9571 43.9116 45.9502 43.9089 45.9435C43.7939 45.7381 43.7131 45.5096 43.6585 45.27C43.6571 45.2632 43.6557 45.2563 43.653 45.2482C43.601 45.0099 43.5749 44.7638 43.5668 44.5229V44.5215C43.5572 44.2436 43.5723 43.9727 43.5997 43.7318C43.6461 43.3336 43.7257 43.0202 43.786 42.8917C43.7871 42.8848 43.7914 42.8779 43.7941 42.8726C43.8255 42.7616 44.0597 42.4072 44.3634 41.9212C44.3703 41.9117 44.3757 41.9021 44.3811 41.8925C44.5563 41.6133 44.7535 41.2904 44.9465 40.9483C44.952 40.9388 44.9574 40.9292 44.9616 40.9208C45.0395 40.7826 45.1162 40.6415 45.1915 40.4994C45.1078 40.6444 45.0218 40.788 44.9329 40.9292C44.9274 40.9388 44.9219 40.9496 44.9137 40.9592C44.7083 41.2918 44.4907 41.6161 44.2635 41.9308C44.2567 41.9418 44.2498 41.9513 44.2417 41.961V41.9624C43.9803 42.3236 43.7065 42.6741 43.4206 43.012C43.2495 43.2146 43.0745 43.413 42.8952 43.606C42.7296 43.7853 42.5611 43.9605 42.3887 44.1316L42.3873 44.1329C42.2231 44.2985 42.0561 44.4586 41.8837 44.6176C41.6073 44.8748 41.3226 45.1211 41.0312 45.3606L41.0298 45.362H41.0271C40.3865 45.8862 39.7146 46.3692 39.0111 46.807C39.0111 46.807 39.0111 46.8084 39.0097 46.8084C38.9961 46.8194 38.9824 46.8276 38.9674 46.8359C38.9674 46.8373 38.9661 46.8373 38.9661 46.8373C38.6361 47.0427 38.2981 47.2396 37.9561 47.4257C37.4811 47.6858 36.9952 47.928 36.4998 48.1512H36.4987C34.2787 49.1502 31.8755 49.7825 29.4326 50.026H29.4313C29.3628 50.0329 29.2957 50.0397 29.2273 50.0452H29.2259C29.1795 50.0507 29.1356 50.0548 29.0904 50.0574H29.089C28.2596 50.13 27.4263 50.1562 26.5955 50.137H26.5941C25.9372 50.122 25.283 50.0781 24.633 50.0069H24.6316C24.087 49.9467 23.5449 49.8659 23.0084 49.7648H23.007C22.5322 49.6771 22.0614 49.573 21.5962 49.4527H21.5948C21.1733 49.3447 20.7558 49.2227 20.3439 49.0886H20.3425C19.962 48.9654 19.5872 48.83 19.2147 48.6836C19.2134 48.6836 19.2134 48.6822 19.2134 48.6822C18.8767 48.5507 18.5428 48.4084 18.2144 48.258C18.2048 48.2539 18.1952 48.2484 18.1841 48.2443C17.8666 48.0979 17.5519 47.9432 17.2426 47.779C17.2412 47.7776 17.2412 47.7776 17.2398 47.7776C17.0756 47.69 16.9127 47.6011 16.7526 47.5095C16.6268 47.4383 16.5009 47.3657 16.3778 47.2904H16.3764C16.3737 47.289 16.3709 47.2877 16.3696 47.2863C16.0985 47.1234 15.8303 46.9537 15.5677 46.7759C15.5663 46.7759 15.5649 46.7745 15.5636 46.7732C15.3158 46.6076 15.0709 46.4339 14.8314 46.2545C14.8286 46.2517 14.8273 46.2504 14.8245 46.2476H14.8231C14.8205 46.2462 14.819 46.2449 14.8164 46.2421H14.815C14.5837 46.0684 14.3565 45.889 14.1335 45.703C14.1294 45.7002 14.1252 45.6975 14.1211 45.6934V45.692C13.9008 45.5114 13.686 45.3224 13.4739 45.128C13.2685 44.9406 13.0686 44.7462 12.873 44.5478H12.8716C12.717 44.392 12.5637 44.2316 12.4145 44.0689C12.1449 44.2522 11.8984 44.3877 11.8984 44.3877C11.8984 44.3877 11.9408 44.5573 11.9999 44.8353V44.8366L12.1408 45.5688V45.5702C12.1792 45.7987 12.2189 46.0491 12.2517 46.3105V46.3119C12.2517 46.316 12.253 46.3212 12.253 46.3268C12.2613 46.3953 12.2694 46.4637 12.2776 46.5336C12.3009 46.7469 12.3242 46.9141 12.3543 47.0439C12.3543 47.048 12.3557 47.0508 12.3557 47.0549C12.3584 47.0618 12.3598 47.07 12.361 47.0767C12.413 47.2862 12.4816 47.3888 12.5951 47.4257C12.6718 47.4504 12.7675 47.4463 12.8921 47.4257H14.945C15.0421 47.4928 15.1201 47.5776 15.1844 47.6775C15.1885 47.683 15.1912 47.6871 15.194 47.6925C15.3077 47.8718 15.3814 48.099 15.4622 48.3659C15.4636 48.37 15.4648 48.3741 15.4662 48.3795C15.5279 48.5875 15.595 48.8189 15.6853 49.0708C15.7222 49.176 15.7646 49.2841 15.8125 49.3951C15.885 49.5222 15.9521 49.6331 16.0121 49.7412H16.0135C16.115 49.9233 16.1957 50.0971 16.2489 50.3339C16.2901 50.3572 16.3311 50.3805 16.3736 50.4023C16.4843 50.4639 16.5967 50.5242 16.7101 50.5829C16.9019 50.6855 17.0962 50.7828 17.2919 50.8758L17.2916 50.8757Z" fill="#FF6E4A"/>
<path d="M12.078 30.0061C12.063 29.749 12.0548 29.4915 12.0534 29.2343V29.2329C12.0507 28.9715 12.0548 28.7114 12.0644 28.4515C12.074 28.1859 12.0891 27.9218 12.111 27.6576V27.6562C12.1328 27.3853 12.1615 27.1169 12.1972 26.8486C12.2327 26.5737 12.2751 26.2999 12.3259 26.0275C12.375 25.7497 12.4312 25.4748 12.4955 25.1996C12.4969 25.1969 12.4969 25.1955 12.4969 25.1927V25.1914C12.564 24.9053 12.6393 24.6208 12.7227 24.3387V24.3374C12.8064 24.0445 12.8994 23.7543 13.0005 23.467C13.1075 23.1645 13.2223 22.8675 13.3469 22.5734C13.3469 22.572 13.3483 22.572 13.3483 22.572C13.4727 22.2723 13.6085 21.978 13.752 21.6878C13.7575 21.6755 13.7629 21.6646 13.7697 21.6537C13.9246 21.3417 14.0899 21.0364 14.268 20.7367C14.2735 20.7257 14.2803 20.7149 14.2884 20.7038V20.7024C14.4843 20.3712 14.6937 20.0469 14.9155 19.7321C14.9196 19.7253 14.9236 19.7185 14.9291 19.713V19.7116H14.9304C15.107 19.4585 15.2945 19.2121 15.4888 18.9713C15.5696 18.8701 15.6516 18.7702 15.7378 18.6716L15.7392 18.6702C15.7392 18.6675 15.7419 18.6661 15.746 18.6634V18.662C16.0841 18.2651 16.4468 17.8847 16.8327 17.5248L17.0176 17.4632L16.8327 17.5234C16.945 17.4182 17.0599 17.3141 17.1777 17.2114C17.5896 16.8516 18.0248 16.5121 18.4861 16.1987C18.4861 16.1973 18.4874 16.1973 18.4874 16.1973L18.4902 16.196C20.5963 14.7562 23.2184 13.8077 26.3581 13.5928H26.3622C26.6893 13.571 27.0219 13.5559 27.3612 13.5504C27.8006 13.5587 28.2289 13.5807 28.6491 13.6148H28.6505C29.2307 13.6641 29.7933 13.7381 30.338 13.8352H30.3394C30.4405 13.8529 30.5393 13.872 30.639 13.8913H30.6404C31.0155 13.9666 31.3837 14.0514 31.7422 14.1499H31.7449C31.7996 14.1636 31.8559 14.1801 31.9105 14.1952C32.2675 14.2951 32.6153 14.4072 32.9548 14.5277C32.9793 14.5372 33.0039 14.5468 33.0287 14.5552C33.3666 14.6796 33.6953 14.8124 34.0155 14.9561C34.025 14.9603 34.0346 14.9644 34.0442 14.9684C34.3589 15.1108 34.6641 15.2614 34.9611 15.4215L34.9625 15.4229C35.2539 15.5802 35.5372 15.7458 35.8124 15.9195L35.8135 15.9209C36.0778 16.0865 36.3324 16.2617 36.5814 16.4437L36.5759 16.4465L36.5841 16.4451C36.825 16.6203 37.0589 16.8024 37.2849 16.9912H37.2862C37.3738 17.0638 37.4599 17.1376 37.5449 17.2115C37.6749 17.3252 37.8021 17.4415 37.9266 17.5577V17.5591C38.1058 17.7274 38.2799 17.8998 38.4495 18.0779L38.4754 18.1558L38.5123 18.1436C38.697 18.3391 38.875 18.5405 39.0475 18.7457C39.2172 18.9468 39.3799 19.1522 39.5388 19.3617V19.3628C39.6934 19.5682 39.8439 19.779 39.9862 19.9924C39.9876 19.9924 39.9876 19.9938 39.9876 19.9938C39.9944 20.0047 40.0012 20.0142 40.008 20.0252C40.1422 20.2263 40.2722 20.4302 40.3953 20.6369V20.6383C40.4035 20.6493 40.4104 20.6601 40.4159 20.6726C40.5391 20.8764 40.6553 21.0832 40.7661 21.2925V21.2939C40.7744 21.3076 40.7827 21.3212 40.7881 21.3349C40.8989 21.5414 41.0044 21.7495 41.1029 21.9617C41.111 21.9767 41.1179 21.9904 41.1234 22.0056C41.2219 22.215 41.3164 22.4271 41.4038 22.6405C41.4996 22.8677 41.5886 23.0977 41.6734 23.3303L41.5735 23.3646L41.6734 23.3317C41.7582 23.563 41.8363 23.797 41.9102 24.0324C41.9828 24.2678 42.0511 24.5045 42.1142 24.7443C42.1537 24.8948 42.1921 25.048 42.2278 25.1998C42.2483 25.2887 42.2674 25.3764 42.2865 25.4654C42.34 25.709 42.3865 25.9525 42.4275 26.1989C42.47 26.4452 42.5068 26.6929 42.5385 26.9406C42.5685 27.191 42.5946 27.4428 42.6152 27.6947C42.6356 27.9492 42.6506 28.2053 42.6588 28.4598C42.6684 28.7184 42.6724 28.9771 42.6698 29.2344C42.6684 29.4971 42.6602 29.7598 42.6436 30.0213V30.0227C42.6314 30.2895 42.6108 30.5564 42.5834 30.8219C42.5561 31.0942 42.5218 31.3652 42.4808 31.6348C42.4399 31.9127 42.3919 32.1877 42.3358 32.4615C42.2796 32.7446 42.2166 33.0252 42.144 33.3045V33.3059C42.0702 33.5945 41.9894 33.8792 41.8991 34.164V34.1653C41.8075 34.461 41.706 34.7539 41.5966 35.0439H41.5954C41.4818 35.3491 41.3571 35.6503 41.2218 35.9473C41.0849 36.2538 40.937 36.5563 40.7783 36.8533C40.7742 36.8615 40.7701 36.8696 40.7647 36.8778C40.5977 37.1939 40.4169 37.5033 40.2268 37.8058C40.2227 37.814 40.2172 37.8221 40.2117 37.829C40.2091 37.8345 40.2063 37.8372 40.2036 37.8413V37.8427C39.9886 38.1834 39.7587 38.516 39.5152 38.8376C39.5111 38.8431 39.5069 38.8486 39.5028 38.854C39.4153 38.9704 39.3264 39.084 39.2345 39.1961C39.0319 39.4466 38.8199 39.6915 38.5996 39.931L38.5982 39.9324C38.5982 39.9324 38.5968 39.9338 38.5955 39.9351C38.4271 40.1172 38.2519 40.2965 38.0725 40.4702H38.0714C37.9003 40.6371 37.725 40.7986 37.5458 40.956C37.4801 41.0122 37.4159 41.0683 37.3502 41.1229C37.3502 41.1243 37.3488 41.1243 37.3488 41.1243C37.3323 41.138 37.3174 41.1518 37.301 41.1641C37.2448 41.212 37.1873 41.2585 37.1299 41.3051C36.5347 41.7868 35.89 42.2262 35.1975 42.6148V42.6162C35.1495 42.6531 35.1031 42.6723 35.0551 42.7092L35.0537 42.7106H35.0524C35.051 42.7106 35.051 42.7106 35.0496 42.712H35.0483C35.0469 42.712 35.0469 42.7132 35.0455 42.7132H35.0443C35.0429 42.7132 35.0429 42.7132 35.0414 42.7146H35.04C35.0389 42.7146 35.0389 42.716 35.0374 42.716H35.036C35.0348 42.716 35.0348 42.7172 35.0333 42.7172H35.0319C35.0305 42.7172 35.0305 42.7186 35.0292 42.7186H35.0278C35.0264 42.7186 35.0264 42.7201 35.0251 42.7201H35.0237C35.0223 42.7201 35.0223 42.7215 35.0209 42.7215H35.0198C35.0184 42.7215 35.0184 42.7227 35.017 42.7227H35.0158C35.0144 42.7227 35.0144 42.7241 35.013 42.7241H35.0116C35.0103 42.7241 35.0103 42.7255 35.0089 42.7255H35.0075C35.0062 42.7255 35.0062 42.7268 35.0048 42.7268H35.0034C35.0022 42.7268 35.0022 42.7282 35.0008 42.7282H34.9993C34.9979 42.7282 34.9979 42.7296 34.9967 42.7296H34.9953C34.9939 42.7296 34.9939 42.731 34.9925 42.731H34.9912C34.9898 42.731 34.9898 42.7322 34.9884 42.7322H34.9871C34.9857 42.7322 34.9857 42.7336 34.9843 42.7336C33.5267 43.5219 31.8599 44.0952 29.9875 44.3922H29.9848C29.8904 44.4072 29.7933 44.421 29.6975 44.4346H29.6961C28.9502 44.5401 28.1714 44.6016 27.3613 44.6167C27.2329 44.6139 27.1054 44.6112 26.9781 44.6058C26.9317 44.6044 26.8879 44.6031 26.8412 44.6003H26.8385C26.7894 44.5989 26.7414 44.5962 26.6935 44.5935H26.6921C26.1092 44.5633 25.5466 44.5087 24.9991 44.4306H24.9977C24.9568 44.4251 24.9158 44.4196 24.876 44.4143H24.8746C24.7871 44.4006 24.6996 44.3854 24.6133 44.3704H24.6119C24.2315 44.3088 23.8592 44.2335 23.4964 44.1487H23.4953C23.465 44.1418 23.4363 44.135 23.4076 44.1268H23.4063C23.3679 44.1185 23.3311 44.109 23.2928 44.0981H23.2914C22.9357 44.0105 22.5879 43.9119 22.25 43.8024H22.2486C22.2376 43.7997 22.2294 43.7957 22.2197 43.7916H22.2183C22.191 43.7833 22.1622 43.7737 22.1349 43.764C22.1692 43.7532 22.2034 43.7408 22.2375 43.7299C22.2006 43.7408 22.1636 43.7518 22.1267 43.7615C21.7763 43.6464 21.4355 43.5192 21.1045 43.3823V43.381C21.0839 43.3741 21.0633 43.3646 21.0429 43.3564C21.0414 43.3564 21.04 43.355 21.0388 43.355H21.0374C20.7212 43.2222 20.4147 43.0801 20.1149 42.9308V42.9294C19.8111 42.7776 19.5154 42.6147 19.2295 42.4436H19.2281C18.9531 42.2794 18.6875 42.1083 18.4289 41.9304V41.9289C18.1799 41.7566 17.9376 41.5772 17.7023 41.3912C17.5613 41.2802 17.423 41.1667 17.2876 41.0505C17.2028 40.9779 17.1206 40.9054 17.0386 40.8314H17.0372C17.0331 40.8273 17.029 40.8232 17.0262 40.8218C16.9085 40.7152 16.7937 40.6083 16.6813 40.4989C16.5964 40.4182 16.513 40.336 16.4322 40.2526H16.4308C16.3788 40.1993 16.3283 40.1472 16.2762 40.0925C16.1407 39.9501 16.0079 39.8052 15.8766 39.6572C15.7015 39.4573 15.5317 39.2535 15.3689 39.0456C15.2086 38.8416 15.054 38.6321 14.9063 38.4201C14.7584 38.2107 14.6161 37.9972 14.4821 37.781C14.3465 37.5675 14.2178 37.3498 14.096 37.1296C13.9728 36.912 13.8566 36.6903 13.747 36.4659C13.6363 36.2441 13.5308 36.0196 13.4323 35.7911C13.3324 35.5653 13.2394 35.3367 13.1505 35.1054V35.104C13.0615 34.8741 12.9794 34.6428 12.9014 34.4088C12.8247 34.1734 12.7522 33.9367 12.6838 33.6999C12.6181 33.4617 12.5565 33.2222 12.5004 32.9828C12.4442 32.7405 12.3923 32.4984 12.3471 32.2546C12.3005 32.0083 12.2596 31.762 12.2254 31.5142C12.1899 31.2652 12.1597 31.0162 12.1351 30.7656C12.1104 30.5125 12.0912 30.2593 12.0789 30.006L12.078 30.0061ZM12.6037 39.9598C12.7391 40.1417 12.8759 40.3225 13.0183 40.4991C13.0387 40.5264 13.0606 40.5538 13.0826 40.5811H13.084C13.2496 40.7876 13.4219 40.9905 13.5972 41.1902C13.7751 41.3927 13.9584 41.5911 14.1461 41.787L14.1472 41.7882C14.339 41.9867 14.5345 42.181 14.7344 42.3728C14.9396 42.567 15.1491 42.7587 15.3639 42.9434C15.583 43.1335 15.8074 43.3198 16.036 43.499C16.036 43.499 16.036 43.5003 16.0374 43.5003C16.2728 43.6866 16.5122 43.8658 16.7572 44.041H16.7586C16.9323 44.1642 17.1089 44.2859 17.2869 44.4037C17.3607 44.4515 17.4346 44.4995 17.5086 44.5475C17.5168 44.5528 17.5249 44.5583 17.5333 44.5624V44.5638C17.6127 44.6143 17.6932 44.6651 17.7755 44.7157C17.9616 44.8306 18.1506 44.9415 18.3421 45.0496C18.3502 45.0551 18.3585 45.0606 18.3682 45.0661H18.3695C18.3764 45.0701 18.3831 45.0742 18.39 45.0783C18.6679 45.2343 18.9497 45.3835 19.2371 45.5272C19.2495 45.5327 19.2619 45.5381 19.2743 45.545C19.5849 45.6983 19.9023 45.8448 20.2227 45.9803H20.2238C20.2375 45.9858 20.2486 45.9911 20.2622 45.998C20.5893 46.1349 20.9204 46.2649 21.2586 46.3839H21.26C21.2736 46.3894 21.2886 46.3949 21.3036 46.399C21.3201 46.4045 21.3364 46.4112 21.353 46.4153H21.3541C21.6908 46.5345 22.0344 46.6425 22.3806 46.741H22.382C22.4436 46.7589 22.5053 46.7753 22.568 46.7929H22.5694C22.921 46.8887 23.2756 46.9737 23.6356 47.0475H23.637C23.7436 47.0695 23.8518 47.0913 23.9599 47.1119H23.9613C24.3265 47.1803 24.6961 47.2377 25.0698 47.2842H25.0725C25.2505 47.3074 25.4298 47.3266 25.6103 47.3444H25.6132C26.006 47.3816 26.4027 47.4061 26.8024 47.417H26.8051C26.9884 47.4225 27.1747 47.4252 27.3607 47.4252C27.4675 47.4321 27.5743 47.4362 27.6809 47.4389H27.6823C28.0409 47.4512 28.4008 47.4457 28.7649 47.4252C29.5257 47.3816 30.2948 47.2692 31.0695 47.0968L31.0762 47.0954L31.0806 47.0941C32.137 46.856 33.1963 46.5028 34.2336 46.0512L34.235 46.0498C35.1629 45.6461 36.073 45.1644 36.9476 44.617C37.1571 44.4856 37.3622 44.3514 37.5676 44.2131C37.5676 44.2118 37.5689 44.2118 37.5689 44.2118L37.6935 44.127L37.6962 44.1256C38.3052 43.7095 38.8909 43.2593 39.452 42.7829L39.4863 42.7544C39.9366 42.3697 40.3692 41.9688 40.7797 41.5513C40.7824 41.5499 40.7849 41.547 40.7849 41.5458L40.7878 41.5444C41.1216 41.205 41.4418 40.8574 41.7457 40.4989C41.7661 40.4757 41.7853 40.4525 41.8045 40.4292C41.81 40.4237 41.8155 40.4168 41.8196 40.4112C42.1043 40.0746 42.3739 39.7297 42.6272 39.3779V39.3766C42.6353 39.3657 42.6435 39.3561 42.6518 39.345C42.6518 39.345 42.6518 39.3439 42.653 39.3439C42.7338 39.2288 42.8146 39.1138 42.8939 38.9975C43.0336 38.7921 43.1677 38.5855 43.2963 38.3775C43.4907 38.0613 43.6726 37.7411 43.841 37.4182C43.9983 37.1129 44.1448 36.8051 44.2776 36.4944C44.279 36.489 44.2817 36.4849 44.2845 36.4794C44.4077 36.1891 44.5199 35.8962 44.6196 35.6022C44.7169 35.316 44.8032 35.0286 44.877 34.7386C44.9468 34.4607 45.007 34.1802 45.0548 33.8997C45.1012 33.63 45.1356 33.3577 45.1588 33.0867C45.1835 32.8225 45.1945 32.5598 45.1957 32.2958C45.1957 32.0383 45.1861 31.7811 45.1657 31.5252C45.1451 31.2762 45.1136 31.0271 45.0725 30.7779V30.7766C45.0316 30.5328 44.9795 30.2919 44.9179 30.0499C44.8563 29.8131 44.7851 29.5763 44.7032 29.341C44.6225 29.1111 44.5307 28.8812 44.4294 28.6526C44.3309 28.4282 44.2199 28.205 44.0996 27.9833C43.9805 27.7642 43.8519 27.5466 43.7123 27.3305C43.5754 27.1183 43.4276 26.9077 43.2689 26.6982C43.221 26.6325 43.1704 26.5682 43.1196 26.5038C43.0567 26.3794 43.0211 26.2 43.0062 26.0071C42.9842 25.739 43.0062 25.4406 43.0582 25.2107L43.0896 25.1997H43.0594C43.0951 25.0451 43.1442 24.9218 43.2032 24.863C43.2564 24.8098 43.6521 24.8042 44.2145 24.8276H44.2159C44.5115 24.8385 44.8536 24.8575 45.2163 24.8809C45.1917 24.7603 45.1644 24.6413 45.137 24.5223C45.0821 24.28 45.0219 24.0405 44.9549 23.8038C44.892 23.5643 44.8224 23.3261 44.7471 23.0934C44.6731 22.8554 44.5937 22.6227 44.5103 22.3914C44.4255 22.1588 44.3351 21.9288 44.2406 21.703V21.7015C44.1503 21.4787 44.0545 21.2581 43.9518 21.042C43.9504 21.0352 43.9477 21.0283 43.9436 21.0216H43.9422C43.841 20.7998 43.7341 20.5822 43.622 20.3688C43.6206 20.3633 43.6179 20.3578 43.6138 20.3524C43.5014 20.1334 43.3839 19.9198 43.262 19.7091C43.2593 19.7036 43.2565 19.6981 43.2524 19.6926C43.1376 19.4915 43.0184 19.2944 42.8938 19.1V19.0466V19.0315V19.0302L42.8569 19.0425C42.7186 18.8262 42.5765 18.6142 42.4286 18.4075C42.4286 18.4061 42.4272 18.4061 42.4272 18.4061C42.2767 18.1926 42.1221 17.9846 41.962 17.7807C41.7991 17.5713 41.6322 17.3674 41.4584 17.1689H41.457C41.2833 16.9636 41.1011 16.7638 40.9151 16.5694C40.7249 16.3683 40.5292 16.1726 40.3294 15.9838C40.1242 15.788 39.9133 15.5978 39.6999 15.4132H39.6985C39.4754 15.2214 39.2496 15.0367 39.0183 14.8603V14.8588H39.0169C38.7788 14.6728 38.5351 14.4936 38.2861 14.3224C38.0917 14.1869 37.8933 14.0542 37.6921 13.9282C37.6278 13.8858 37.5622 13.8447 37.4951 13.8049C37.3473 13.7119 37.1981 13.623 37.0476 13.5366C36.9134 13.4587 36.7765 13.382 36.6411 13.3082C36.336 13.1426 36.0266 12.985 35.7119 12.8374H35.7105C35.378 12.6786 35.0413 12.5308 34.6993 12.3925H34.6979C34.3312 12.2447 33.959 12.1078 33.5825 11.9834C33.1719 11.8465 32.7572 11.7234 32.3385 11.6152H32.3371C31.943 11.5111 31.5447 11.4208 31.1437 11.3427C31.0725 11.3278 31.0015 11.314 30.9303 11.3018H30.9289C30.5058 11.2224 30.0804 11.1582 29.6521 11.1075H29.6507C29.5289 11.0925 29.4058 11.08 29.2839 11.0679H29.2825C28.7871 11.0171 28.2889 10.9858 27.7908 10.9735C27.606 10.968 27.4212 10.9652 27.2378 10.9652H27.2367C27.1969 10.9652 27.1571 10.9652 27.1175 10.9666H27.1161C26.1268 10.9721 25.1384 11.0515 24.1627 11.2034C22.0866 11.5263 20.0679 12.1819 18.2177 13.17L18.2054 13.1741L18.204 13.1755C17.9782 13.2946 17.7553 13.4204 17.5347 13.5504C16.945 13.8993 16.3756 14.2855 15.8282 14.7069C15.8035 14.7246 15.7803 14.7426 15.7556 14.763L15.7543 14.7644L15.7515 14.7658C15.7474 14.7685 15.7447 14.7713 15.7406 14.774L15.7392 14.7754C15.2505 15.1558 14.7839 15.5637 14.3364 16.003C14.3309 16.0072 14.3256 16.0128 14.3213 16.0167V16.0179C13.9586 16.3724 13.6097 16.7475 13.2773 17.1416L13.2759 17.143C13.2718 17.1471 13.2677 17.1525 13.2636 17.158C12.9857 17.4878 12.7175 17.8328 12.4617 18.1899V18.1913H12.4603V18.1924C12.2412 18.499 12.0306 18.8151 11.8294 19.1422C11.8198 19.1573 11.8103 19.1725 11.8006 19.1888H11.7992V19.1902C11.6102 19.5009 11.4283 19.8197 11.2545 20.1482C11.0956 20.4507 10.9439 20.7599 10.8001 21.0774V21.0787C10.6659 21.373 10.54 21.6741 10.4209 21.9821C10.3073 22.2709 10.2006 22.565 10.1021 22.8663V22.8675C10.0871 22.9073 10.0748 22.9482 10.0612 22.9892C10.3472 23.1289 10.6086 23.2739 10.8139 23.4094L10.8153 23.4108C11.0916 23.5955 11.2669 23.7668 11.2669 23.8952C11.2669 23.9376 11.2614 23.987 11.2519 24.0445V24.0458C11.2175 24.2537 11.1247 24.5563 11.0042 24.9053L11.0028 24.9067C10.9713 25.0011 10.9357 25.0997 10.9003 25.1996C10.8305 25.3912 10.7565 25.5896 10.6812 25.7922C10.5705 26.0892 10.4568 26.3916 10.3528 26.6805C10.2515 26.9638 10.1584 27.2348 10.0887 27.4715C10.0806 27.4988 10.071 27.5276 10.0613 27.555C9.8998 27.9805 9.48377 28.3623 9.02526 28.6718V28.6786L9.01978 28.68V29.1126V29.4587L9.02258 29.4573C9.02807 29.7146 9.03764 29.972 9.05397 30.2265C9.06902 30.481 9.08969 30.7344 9.11559 30.9861C9.14174 31.2365 9.17312 31.4855 9.20859 31.7334C9.24431 31.981 9.28526 32.2274 9.33183 32.4723C9.37712 32.7173 9.42764 32.9611 9.48517 33.2019C9.5399 33.4428 9.59999 33.6835 9.6657 33.9203C9.73012 34.16 9.80131 34.3954 9.87518 34.6293C9.95045 34.8646 10.0298 35.0986 10.1146 35.3299C10.1982 35.5626 10.2884 35.7925 10.3817 36.0211C10.4761 36.2496 10.5746 36.4768 10.6787 36.7014C10.7826 36.9286 10.8907 37.1516 11.0044 37.3733C11.118 37.5978 11.2357 37.8182 11.3589 38.0357C11.4819 38.256 11.6106 38.4737 11.7434 38.6871C11.7707 38.7337 11.8009 38.7801 11.8297 38.8267C11.9363 38.9963 12.0458 39.1633 12.1594 39.3291C12.3018 39.5424 12.4509 39.7533 12.6043 39.9599L12.6037 39.9598Z" fill="#FF6E4A"/>
<path d="M18.4364 28.6813V28.6799C18.4473 28.4131 18.4679 28.1461 18.5007 27.8808C18.5335 27.6042 18.5787 27.3293 18.6349 27.0568C18.6936 26.7709 18.7662 26.4861 18.851 26.2071V26.2057C18.9413 25.9059 19.0468 25.6103 19.1671 25.3229C19.1849 25.2819 19.2014 25.2407 19.2192 25.1996C19.3383 24.9244 19.471 24.6563 19.6175 24.395L19.6187 24.3936C19.8091 24.0502 20.0238 23.7188 20.2606 23.4027L20.262 23.4013C20.5617 23.0044 20.8969 22.6321 21.2692 22.2901L21.2706 22.2887C22.7351 20.9434 24.7646 20.0661 27.3607 20.0196C27.5894 20.0237 27.8124 20.0347 28.0314 20.0525H28.0328C28.598 20.0935 29.133 20.1772 29.6395 20.2989H29.6422C30.0679 20.4001 30.4703 20.5261 30.8548 20.6766H30.8562C31.197 20.8107 31.5227 20.9627 31.8319 21.1323H31.8333C32.1192 21.2871 32.3903 21.4581 32.6489 21.6415H32.6503C32.8925 21.814 33.1238 21.9974 33.3414 22.1903V22.1917H33.3428C33.3564 22.2026 33.3687 22.2136 33.3812 22.2272C33.5756 22.3997 33.7604 22.5831 33.9354 22.7732H33.9368V22.7746C33.945 22.7828 33.9531 22.7911 33.96 22.8008C34.1325 22.9882 34.2939 23.1826 34.4458 23.3837C34.4458 23.3837 34.4472 23.3837 34.4472 23.3851C34.4527 23.3933 34.4595 23.4014 34.465 23.4098C34.6141 23.6068 34.7523 23.8094 34.8824 24.0186L34.8564 24.0282C34.8645 24.0255 34.8741 24.0229 34.8837 24.02C35.0179 24.2336 35.141 24.4527 35.2559 24.6755C35.3436 24.848 35.4256 25.0231 35.5037 25.1997C35.5241 25.2503 35.546 25.2996 35.5667 25.3503C35.661 25.5789 35.746 25.8102 35.8212 26.0456V26.0469C35.8978 26.281 35.9648 26.519 36.0209 26.7587V26.7599C36.0798 27.0007 36.1278 27.2445 36.1673 27.4895C36.2072 27.7371 36.2385 27.9875 36.2591 28.2381V28.2395C36.2809 28.4953 36.2919 28.7514 36.2933 29.0073C36.2959 29.27 36.2878 29.5329 36.2686 29.7942C36.2508 30.0637 36.2208 30.3334 36.1795 30.6016V30.603C36.1371 30.8834 36.0824 31.1613 36.014 31.4365C35.9441 31.7278 35.8607 32.0153 35.7622 32.2986C35.6596 32.5997 35.5404 32.8954 35.4049 33.1843C35.4035 33.1883 35.4021 33.1937 35.3995 33.1979H35.3981V33.1991C35.2475 33.5248 35.0752 33.8424 34.8834 34.1475V34.1489C34.6604 34.506 34.41 34.8482 34.1334 35.1711C34.1321 35.1725 34.1307 35.1752 34.1293 35.1766C33.753 35.616 33.3272 36.0196 32.851 36.3783L32.8496 36.3797C32.8305 36.3947 32.8114 36.4099 32.7908 36.4236C31.4715 37.4021 29.7798 38.0371 27.7162 38.1356H27.7148C27.6491 38.1397 27.5849 38.1424 27.5192 38.1438H27.515L27.3604 38.1479C26.7637 38.137 26.1957 38.0822 25.6592 37.9878H25.6578C25.6524 37.9878 25.6483 37.9864 25.6428 37.9851C25.6414 37.9851 25.6414 37.9837 25.6414 37.9837C25.172 37.9015 24.7272 37.7893 24.3044 37.6484H24.303C23.9335 37.5252 23.5818 37.3817 23.2464 37.2186H23.245C23.2368 37.2145 23.2287 37.2104 23.2205 37.205H23.2191C22.9235 37.0613 22.6415 36.9025 22.3733 36.7287H22.372C22.1133 36.5631 21.8683 36.3838 21.6357 36.1937C21.414 36.0144 21.2045 35.8227 21.0061 35.623C21.0047 35.623 21.0047 35.6216 21.0047 35.6216C20.8131 35.4299 20.6339 35.2302 20.4642 35.0221C20.2986 34.8208 20.144 34.6116 20.0002 34.3966C19.8578 34.1859 19.7264 33.9696 19.6034 33.7494V33.748C19.4829 33.5304 19.3707 33.3072 19.2693 33.0803C19.1681 32.8557 19.0764 32.6259 18.993 32.3932C18.9095 32.1606 18.837 31.9251 18.7713 31.687V31.6856C18.7068 31.4476 18.6507 31.2053 18.6043 30.9629C18.5578 30.7167 18.5208 30.4703 18.492 30.2213C18.4633 29.968 18.4441 29.7149 18.4345 29.4603C18.4249 29.2003 18.4249 28.9416 18.4359 28.6816L18.4364 28.6813ZM15.6692 29.5969C15.6788 29.85 15.6965 30.1046 15.721 30.3579C15.7456 30.6084 15.7773 30.8587 15.8156 31.1065C15.8537 31.3529 15.899 31.5964 15.9525 31.84C16.0031 32.0808 16.0618 32.3217 16.1289 32.5599V32.5613C16.1946 32.7994 16.2672 33.0347 16.3479 33.2674V33.2688C16.4273 33.5014 16.5135 33.7327 16.6078 33.9599V33.9613C16.7009 34.1898 16.8022 34.4156 16.9117 34.6388C17.0199 34.8646 17.1362 35.0863 17.2607 35.3039C17.3854 35.5243 17.5181 35.7406 17.6576 35.9513C17.7986 36.166 17.9477 36.3755 18.1052 36.5807V36.5821H18.1066C18.2653 36.7916 18.4337 36.9968 18.6101 37.1953C18.6238 37.2117 18.639 37.2282 18.654 37.2446C18.8196 37.4306 18.9934 37.6113 19.1741 37.7866H19.1754C19.3151 37.9221 19.4575 38.0549 19.6051 38.1807C19.6722 38.241 19.7407 38.2984 19.8091 38.3558H19.8105C20.039 38.5446 20.2772 38.7254 20.5262 38.8978H20.5276C20.7875 39.0784 21.0586 39.2496 21.3404 39.4069V39.4083C21.3432 39.411 21.3459 39.4124 21.35 39.4138C21.6374 39.578 21.9372 39.73 22.2464 39.8695C22.2546 39.8736 22.2629 39.8764 22.2697 39.8791H22.2711C22.5858 40.0215 22.9104 40.1502 23.2468 40.265C23.2811 40.2774 23.3166 40.2882 23.3509 40.3007H23.3523C23.567 40.3719 23.7876 40.439 24.0118 40.4992C24.2184 40.5554 24.4279 40.6059 24.6427 40.6525H24.6455C25.1613 40.7635 25.6979 40.8454 26.2577 40.8974H26.2604C26.6177 40.9291 26.9845 40.9495 27.3607 40.9564C27.8152 40.9482 28.2557 40.9206 28.6828 40.8742H28.6855C28.7662 40.866 28.8484 40.8565 28.9278 40.8454C29.2056 40.8113 29.4765 40.7701 29.742 40.7196C29.746 40.7182 29.7488 40.7182 29.7515 40.7182C29.9993 40.6717 30.2403 40.6184 30.4768 40.5581C30.4864 40.5554 30.4962 40.5526 30.5043 40.5526C30.5288 40.5472 30.5522 40.5417 30.5755 40.5376C31.6867 40.2515 32.6817 39.8246 33.5795 39.2935C33.5795 39.2935 33.5795 39.2922 33.5807 39.2922C33.6274 39.2662 33.6739 39.2374 33.7204 39.2087V39.2074C34.2362 38.8913 34.7154 38.5353 35.1562 38.148C35.2696 38.0495 35.3792 37.9484 35.4872 37.8455V37.8442H35.4886L35.49 37.8428C35.8266 37.5212 36.1372 37.1833 36.4248 36.8259C36.4521 36.7931 36.478 36.7616 36.5027 36.7288H36.5041C36.7613 36.4031 36.9995 36.0651 37.2172 35.7147V35.7133C37.2225 35.7066 37.2267 35.6997 37.2308 35.6929C37.4196 35.389 37.5935 35.077 37.7521 34.7582L37.7535 34.7568C37.759 34.7458 37.7658 34.7335 37.7698 34.7224C37.9136 34.4351 38.045 34.141 38.1642 33.8426V33.8411C38.1642 33.8385 38.1656 33.8371 38.1669 33.8344C38.2804 33.547 38.3845 33.2553 38.4762 32.9597C38.5651 32.6779 38.6431 32.3917 38.7116 32.103V32.1016C38.7773 31.8253 38.8348 31.5473 38.8813 31.2668C38.9263 30.9971 38.9633 30.7262 38.992 30.4526V30.4512L39.051 29.6533V29.6519C39.0619 29.3919 39.066 29.132 39.0605 28.8705C39.0577 28.6146 39.0455 28.3585 39.0262 28.1028C39.0085 27.8509 38.9823 27.5991 38.9483 27.3499V27.3486C38.9155 27.1009 38.8757 26.8544 38.8291 26.6096C38.7827 26.3661 38.7278 26.1238 38.6662 25.8843C38.6101 25.6544 38.5445 25.4258 38.4732 25.2C38.4705 25.1904 38.4678 25.1823 38.4636 25.1726V25.1712C38.3911 24.9358 38.309 24.7031 38.2215 24.4732C38.1325 24.2419 38.0366 24.0134 37.934 23.7889C37.8368 23.5768 37.7341 23.3675 37.6247 23.1621C37.6179 23.147 37.6097 23.1333 37.6014 23.1197C37.4918 22.9131 37.3756 22.7106 37.2539 22.5121C37.2443 22.4956 37.2348 22.4807 37.2237 22.4657C37.0979 22.2617 36.9651 22.0633 36.8255 21.8674C36.8159 21.8538 36.8064 21.8415 36.7968 21.8279C36.6558 21.6309 36.5066 21.4392 36.3505 21.2518C36.3396 21.2367 36.3273 21.2217 36.3151 21.2079C36.2357 21.1122 36.1536 21.0178 36.0701 20.9261C35.9743 20.8179 35.8757 20.7125 35.7731 20.6085V20.6072C35.5801 20.4073 35.3776 20.2144 35.1668 20.0297L35.1941 20.0201H35.1559C34.9395 19.8312 34.7151 19.6493 34.4824 19.4768C34.2348 19.2921 33.9774 19.117 33.7092 18.954C33.4273 18.7788 33.1329 18.616 32.8279 18.4668H32.8265C32.5173 18.3121 32.197 18.1713 31.8658 18.0454C31.8467 18.0372 31.829 18.0303 31.8097 18.0248C31.8097 18.0248 31.8097 18.0234 31.8083 18.0234H31.807C31.4224 17.877 31.0228 17.7497 30.6067 17.643H30.6039C30.1345 17.5184 29.646 17.4213 29.1369 17.3501H29.134C28.5675 17.2693 27.9763 17.2229 27.3604 17.2118H27.1962H27.014C27.0017 17.2161 26.9895 17.2201 26.9771 17.2242C24.218 17.3404 21.9641 18.1878 20.2136 19.4946C20.1918 19.511 20.1713 19.526 20.1506 19.5424L20.1493 19.5438C19.9494 19.6943 19.7579 19.8517 19.5718 20.0145C19.2966 20.2554 19.038 20.5058 18.7945 20.77L18.7931 20.7714H18.7919L18.7905 20.7728C18.6194 20.9574 18.4538 21.1464 18.2978 21.3421C18.1639 21.5049 18.0378 21.6705 17.916 21.8401V21.8415C17.6861 22.1604 17.4739 22.4901 17.2796 22.8298V22.831C17.2729 22.842 17.266 22.853 17.2605 22.8653C17.0922 23.1597 16.9376 23.4607 16.7979 23.7687V23.7699H16.7966C16.6624 24.0642 16.5393 24.3653 16.4284 24.6704H16.427V24.6718C16.364 24.847 16.3038 25.0223 16.2492 25.2001C16.2121 25.3137 16.1793 25.4273 16.1465 25.5423C16.0671 25.8227 15.9974 26.1061 15.9384 26.3908V26.3921C15.8796 26.6657 15.8318 26.9409 15.792 27.2188C15.7538 27.4869 15.7236 27.7566 15.7018 28.0262V28.0276C15.6797 28.2917 15.6674 28.5559 15.662 28.82C15.6565 29.0786 15.6593 29.3373 15.6688 29.5959V29.5973L15.6692 29.5969Z" fill="#FF6E4A"/>
<path d="M24.8096 28.9099C24.8261 28.6225 24.8878 28.3379 24.9918 28.071C25.1423 27.6782 25.3859 27.3236 25.7211 27.05H25.7225L25.7237 27.0487C26.1192 26.7257 26.6421 26.5162 27.2937 26.4917C27.2949 26.4903 27.2963 26.4903 27.299 26.4917C27.3402 26.4917 27.3716 26.4903 27.3934 26.4903H27.3976C27.4017 26.4903 27.4058 26.4903 27.4085 26.4917H27.4113C27.9189 26.5066 28.3501 26.6353 28.7031 26.8419C28.9603 26.9924 29.1766 27.1842 29.3531 27.4059V27.4072C29.5118 27.6057 29.6365 27.826 29.7279 28.0615C29.8183 28.2914 29.8772 28.5364 29.902 28.7842C29.9293 29.0455 29.9211 29.311 29.8772 29.5711C29.8238 29.8804 29.7184 30.1815 29.5625 30.454L29.5611 30.4552C29.1628 31.1491 28.4293 31.6597 27.3604 31.6788C27.0006 31.6721 26.6789 31.6104 26.3942 31.5037H26.3928V31.5023H26.3916C26.0726 31.3834 25.8032 31.2082 25.58 30.9932V30.992C25.3883 30.8099 25.2338 30.5977 25.1134 30.3678C24.9983 30.1488 24.9149 29.9134 24.8656 29.6713V29.6699H24.8643C24.8122 29.4208 24.7944 29.1649 24.8095 28.9103L24.8096 28.9099ZM22.0355 29.0482C22.0342 29.304 22.0491 29.5585 22.0793 29.8119V29.8133C22.1107 30.0595 22.156 30.3044 22.2176 30.5453V30.5467C22.2779 30.7862 22.3545 31.0216 22.4461 31.2502C22.5379 31.4815 22.646 31.7059 22.7692 31.9221C22.8951 32.1438 23.0374 32.3574 23.1976 32.5586V32.5599H23.199C23.3645 32.772 23.5507 32.9718 23.7531 33.1553C23.9722 33.3538 24.2117 33.5357 24.4729 33.6958C24.4729 33.6958 24.4743 33.6958 24.4743 33.6972C24.7687 33.878 25.0889 34.0325 25.4379 34.1557H25.4406C25.8759 34.3103 26.3535 34.4143 26.8723 34.4609L26.7941 34.487H27.3606C28.9427 34.4582 30.1717 33.9135 31.0489 33.08V33.0786C31.3815 32.7639 31.6634 32.4068 31.8947 32.0209L31.8961 32.0195C32.0713 31.7265 32.2177 31.4172 32.3341 31.0957L32.3355 31.0943C32.4366 30.8164 32.516 30.5291 32.5735 30.2376C32.627 29.9692 32.6612 29.6983 32.675 29.4247V29.4233C32.6913 29.1647 32.69 28.9045 32.6695 28.6474C32.6517 28.3969 32.6176 28.1479 32.5682 27.9014C32.5191 27.6591 32.4548 27.4197 32.3752 27.187V27.1857C32.2958 26.9516 32.2 26.7217 32.0893 26.5014C31.977 26.2754 31.8484 26.0579 31.7033 25.8511V25.8498C31.5528 25.6337 31.3857 25.4283 31.2009 25.2368H31.1997C31.1421 25.1765 31.0832 25.1191 31.0217 25.0628C30.8752 24.9233 30.7179 24.7947 30.5509 24.6742H30.5495V24.6728C30.5182 24.6496 30.4852 24.6278 30.4524 24.6044C30.2252 24.4484 29.9803 24.3074 29.7162 24.1869H29.7148C29.708 24.1842 29.7012 24.1814 29.6944 24.1773H29.693C29.6684 24.1665 29.645 24.1555 29.6191 24.1444C29.2729 23.9939 28.8965 23.8762 28.4899 23.7969H28.4873C28.4722 23.7928 28.4586 23.79 28.4434 23.7873H28.442C28.1013 23.7243 27.7413 23.6874 27.3608 23.6807C26.8475 23.6901 26.3713 23.7531 25.9334 23.864H25.932L25.9265 23.8653L25.9225 23.8667H25.9198C25.6612 23.9324 25.4162 24.0145 25.1835 24.1102L25.1795 24.1116V24.113H25.1781L25.1658 24.1171C24.5787 24.3635 24.0736 24.7014 23.6521 25.108C23.6508 25.108 23.6508 25.1094 23.6508 25.1094C23.5125 25.2408 23.3852 25.3788 23.2649 25.524V25.5253C23.0115 25.8306 22.7995 26.163 22.6256 26.5149V26.5162H22.6244C22.6215 26.5217 22.6201 26.5257 22.6175 26.5312C22.4779 26.8131 22.3644 27.1074 22.2752 27.4099L22.1699 27.4453L22.2752 27.4113C22.1947 27.685 22.1342 27.9655 22.0947 28.2488L21.9578 28.2941V28.2954L22.0947 28.2503C22.0563 28.5144 22.0371 28.7812 22.0357 29.0482H22.0355Z" fill="#FF6E4A"/>
<path d="M45.1909 49.3634C45.1541 49.1801 45.102 48.9679 45.0322 48.712C44.9938 48.5737 44.9515 48.4232 44.9035 48.2576C44.6272 48.5246 44.3424 48.7846 44.0509 49.0363L44.0495 49.0377C43.498 49.5153 42.9203 49.9656 42.3197 50.3871V50.3885C41.4191 51.0234 40.4652 51.5982 39.4716 52.1101L39.4662 52.1114C39.4552 52.1183 39.443 52.1238 39.4305 52.1305C38.7639 52.4713 38.0784 52.7849 37.3789 53.0681C35.7093 53.7441 33.9562 54.256 32.1674 54.59C32.0264 54.6173 31.8867 54.642 31.7459 54.6666C30.5963 54.8622 29.4343 54.9869 28.2697 55.036C27.4855 55.0703 26.7 55.0703 25.9185 55.0348C25.2849 55.0074 24.6539 54.9566 24.0273 54.8815C23.4852 54.8172 22.9473 54.7364 22.4123 54.6379H22.4109C22.4095 54.6365 22.4082 54.6365 22.4068 54.6365C21.9319 54.549 21.4598 54.4463 20.9917 54.33C20.9889 54.33 20.9876 54.33 20.9862 54.3286C20.5661 54.2245 20.1487 54.1096 19.7367 53.9809C19.7272 53.9795 19.719 53.9768 19.7094 53.9727H19.708C19.3262 53.855 18.947 53.7264 18.5722 53.5868H18.5708C18.5626 53.5854 18.5557 53.5813 18.5476 53.5785C18.1876 53.446 17.8319 53.3036 17.48 53.1515C17.4157 53.1242 17.3528 53.0969 17.2885 53.0681C17.0941 52.9819 16.9012 52.8929 16.7097 52.8012C16.7562 52.8915 16.8054 52.9805 16.8574 53.0681C16.9041 53.1501 16.9533 53.2295 17.0039 53.309C17.1477 53.5375 17.2996 53.7524 17.4433 53.9439C17.4488 53.9494 17.4516 53.9549 17.4557 53.9602C17.6457 54.2095 17.821 54.4175 17.9468 54.5556C17.9537 54.5639 17.9606 54.5707 17.9674 54.5777C18.0453 54.6638 18.1016 54.7198 18.1261 54.7378C18.1714 54.7719 18.2576 54.9511 18.3615 55.1976C18.3643 55.2045 18.3669 55.2113 18.3697 55.2181C18.4505 55.4153 18.5421 55.652 18.631 55.8888C18.6338 55.897 18.6379 55.9051 18.6406 55.9134C18.7295 56.1515 18.8158 56.3869 18.8855 56.5827C18.891 56.5976 18.8951 56.6114 18.9006 56.6251C19.2865 56.7509 19.6752 56.8659 20.068 56.9712C20.5183 57.0944 20.9713 57.2039 21.4283 57.2998C21.8184 57.3833 22.2098 57.4571 22.6039 57.5215C22.7176 57.542 22.8325 57.5597 22.9462 57.5777C23.3403 57.6365 23.7357 57.6884 24.1326 57.7295C24.3146 57.7502 24.4967 57.7679 24.6801 57.783H24.6815C25.0784 57.8187 25.4779 57.8446 25.8775 57.8623H25.8803C26.1607 57.8759 26.44 57.8844 26.7207 57.8869H26.7219C27.58 57.9006 28.4409 57.8747 29.3004 57.8117H29.3031C30.5744 57.7201 31.8418 57.5448 33.0899 57.2915C33.216 57.267 33.3403 57.241 33.465 57.2136L33.4718 57.2122C35.552 56.7607 37.5747 56.101 39.4758 55.225L39.5126 55.2128L39.6577 55.1648H39.6167C40.8128 54.6106 41.9597 53.9784 43.0409 53.2667C43.0423 53.2667 43.0423 53.2653 43.0436 53.2653H43.045C43.0464 53.2653 43.0464 53.2639 43.0477 53.2639H43.0491C43.1475 53.1996 43.2462 53.1352 43.3434 53.0684C43.8949 52.6962 44.4299 52.3019 44.9446 51.8887C44.9474 51.8777 44.9487 51.8666 44.9515 51.8557V51.8543C44.9529 51.8474 44.9542 51.8393 44.9556 51.8325C45.0158 51.5094 45.0704 51.2453 45.1157 51.0222C45.1171 51.0168 45.1171 51.0126 45.1183 51.0072C45.1459 50.8703 45.1703 50.7472 45.1909 50.6351C45.2196 50.4747 45.2415 50.3339 45.251 50.1984C45.2524 50.1957 45.2524 50.1943 45.2524 50.1915C45.2716 49.9508 45.2579 49.7248 45.2045 49.4333C45.2004 49.4115 45.1963 49.3883 45.1908 49.3635L45.1909 49.3634Z" fill="#FF6E4A"/>
<path d="M3.85584 16.3628C3.67111 16.3546 3.52338 16.3299 3.43981 16.2779C3.32066 16.2053 3.28787 16.0193 3.29884 15.7689C3.30573 15.539 3.35077 15.2543 3.39606 14.956C3.43828 14.6863 3.48217 14.4045 3.50271 14.1418C3.52593 13.853 3.52185 13.5862 3.45882 13.3781C3.4356 13.2988 3.40269 13.2276 3.36033 13.1672C3.29183 13.2701 3.22344 13.374 3.15634 13.478C2.94839 13.7995 2.7472 14.1252 2.55137 14.4564C2.36383 14.7725 2.18344 15.0916 2.00943 15.4145C1.83975 15.7251 1.67836 16.0399 1.52094 16.356V16.3574C1.37039 16.6626 1.22394 16.9693 1.08424 17.2799C0.948754 17.5796 0.818881 17.8835 0.692963 18.1887C0.580568 18.4624 0.472511 18.7388 0.368408 19.0165V21.4129V21.4966C0.377976 21.4856 0.450568 21.4281 0.565514 21.3473C1.01726 21.0326 2.13662 20.3497 2.78956 20.5825C2.88945 20.2951 2.99355 20.0104 3.10301 19.7285C3.22051 19.426 3.34247 19.1249 3.47094 18.8278C3.60375 18.52 3.74345 18.2161 3.88697 17.9123V17.9109C4.03891 17.5948 4.19634 17.2827 4.35913 16.9748C4.47012 16.7655 4.58367 16.5575 4.70002 16.3508V16.0838L3.85827 16.363H3.85559L3.85584 16.3628Z" fill="#FF6E4A"/>
<path d="M27.4951 3.08776C28.189 3.09043 28.884 3.12195 29.5738 3.17948H29.5752C30.1581 3.2272 30.7372 3.29571 31.3119 3.38322H31.3132C31.8251 3.4599 32.3301 3.5529 32.8297 3.66108C33.2677 3.75422 33.7001 3.85959 34.1256 3.97722C34.0216 3.75689 33.915 3.54333 33.8068 3.33819C33.6865 3.1083 33.5645 2.88784 33.4441 2.67862C33.3099 2.44732 33.1771 2.23121 33.0472 2.03129C32.8953 1.79451 32.7474 1.58235 32.6105 1.39494C32.4218 1.14043 32.2521 0.933752 32.1084 0.783212C32.0577 0.729885 32.0113 0.683319 31.9674 0.643515C31.5512 0.57641 31.1285 0.517725 30.7029 0.468353C30.0816 0.395889 29.452 0.343965 28.8211 0.311051L28.9346 0.273926H27.354H26.5793L26.5465 0.284897H26.5451C26.2757 0.293062 26.0061 0.304034 25.7391 0.320619C25.746 0.399971 25.7501 0.476645 25.7487 0.549109C25.746 0.896755 25.6571 1.17589 25.5078 1.40719C24.8606 2.41173 23.0719 2.49529 22.2342 3.26981C22.1125 3.3822 22.0112 3.50799 21.9358 3.65445C22.8556 3.45339 23.8039 3.30553 24.7648 3.2124C25.6668 3.12322 26.5809 3.08227 27.4951 3.08776Z" fill="#FF6E4A"/>
<path d="M53.5421 17.0663C53.4395 16.8405 53.3326 16.6161 53.2219 16.3942C53.1124 16.1698 52.9988 15.9481 52.8825 15.7278C52.7661 15.5046 52.6472 15.2843 52.5239 15.0654C52.4022 14.8451 52.2762 14.6274 52.1474 14.4113C52.0174 14.1937 51.8862 13.9774 51.7507 13.764C51.6151 13.5493 51.4769 13.3342 51.3346 13.1235C51.1923 12.9086 51.0472 12.6978 50.8979 12.4885C50.7488 12.2763 50.5969 12.0671 50.4396 11.8604C50.4408 11.859 50.4396 11.8562 50.4355 11.8549C50.308 11.6812 50.1766 11.51 50.0427 11.3389C49.6649 11.4182 49.3598 11.4798 49.0984 11.5236C49.0969 11.525 49.0957 11.525 49.0943 11.525C48.4509 11.6332 48.0775 11.6357 47.5491 11.5427C47.3918 11.514 47.2193 11.477 47.0222 11.4317H47.0208C46.8059 11.3826 46.5596 11.3237 46.2681 11.2539C46.3694 11.3621 46.4707 11.4701 46.5706 11.581C46.572 11.581 46.572 11.581 46.572 11.5824C46.7525 11.7795 46.9306 11.9806 47.1042 12.1846C47.2766 12.3845 47.4462 12.5882 47.612 12.795C47.612 12.795 47.6134 12.795 47.6134 12.7962C47.6134 12.7962 47.6146 12.7962 47.6146 12.7976C47.7791 13.0002 47.9392 13.2053 48.0964 13.4148C48.1387 13.4708 48.1812 13.5269 48.2237 13.5831C48.3372 13.735 48.4482 13.8884 48.5577 14.0416C48.7068 14.2511 48.8517 14.4617 48.9943 14.6753C49.1366 14.8874 49.2749 15.101 49.4103 15.3171C49.5442 15.5307 49.6744 15.7468 49.8031 15.9657C49.9303 16.1819 50.0548 16.401 50.1754 16.6227C50.2957 16.8418 50.4134 17.0635 50.5256 17.2864C50.6392 17.5068 50.7501 17.7298 50.8553 17.9556C50.9637 18.1788 51.0662 18.4046 51.1662 18.6318C51.1689 18.6359 51.1703 18.64 51.173 18.6454C51.266 18.8575 51.3577 19.0724 51.4453 19.2887C51.4644 19.2463 51.4824 19.2079 51.4932 19.1818C51.5864 18.9657 51.997 18.5962 52.4785 18.2034C52.4813 18.2007 52.4854 18.1979 52.4895 18.1952C52.87 17.8832 53.2941 17.5589 53.6419 17.2837V17.0333L53.542 17.0662L53.5421 17.0663Z" fill="#FF6E4A"/>
<path d="M49.8095 20.6382C49.722 20.407 49.6317 20.1771 49.5372 19.9498C49.4454 19.7281 49.3509 19.5078 49.2524 19.2887C49.2497 19.2819 49.2457 19.2751 49.2429 19.2682C49.2388 19.26 49.2361 19.2519 49.2319 19.2437C49.2278 19.2327 49.2223 19.2232 49.2182 19.2121C49.1238 19.0041 49.0267 18.7974 48.9268 18.5934C48.9228 18.5853 48.9187 18.5785 48.9146 18.5702C48.8092 18.354 48.7012 18.1393 48.5889 17.9271H48.5875C48.5848 17.9202 48.582 17.9135 48.5779 17.908C48.4643 17.6917 48.3466 17.4782 48.2275 17.2675L48.2263 17.2661C48.222 17.2593 48.218 17.2525 48.2154 17.2456C48.0936 17.0336 47.9704 16.8242 47.8431 16.6161V16.6147C47.7103 16.3971 47.5735 16.1823 47.4352 15.9702C47.2943 15.7567 47.1507 15.5446 47.0029 15.3351H47.0015C46.9578 15.2694 46.9099 15.2023 46.8633 15.1366C46.8633 15.1366 46.8633 15.1354 46.8619 15.1354L46.5472 14.7056H46.5458C46.3897 14.4961 46.2282 14.2895 46.0654 14.0869H46.064C45.8998 13.8804 45.7302 13.6764 45.5577 13.4751C45.3825 13.2725 45.2045 13.0714 45.0226 12.8744C44.8393 12.6731 44.6503 12.4749 44.4586 12.2804C44.4464 12.2668 44.4327 12.253 44.4191 12.2392C43.9016 12.2436 43.4405 12.6951 42.6646 12.739C42.4962 12.7485 42.3128 12.739 42.1103 12.7018C41.9036 12.6541 41.708 12.5745 41.5232 12.4719C41.2646 12.3296 41.0278 12.1408 40.8143 11.9286C40.6225 11.7397 40.4501 11.5317 40.2969 11.3195C40.1546 11.1254 40.0288 10.9295 39.9204 10.7421C39.9082 10.7202 39.896 10.6998 39.8836 10.6778C39.7399 10.4231 39.6264 10.1906 39.5483 10.0098C39.4758 9.84565 39.4321 9.72509 39.417 9.67189C39.3281 9.55273 39.2392 9.44876 39.1528 9.35984C38.879 9.07802 38.6136 8.93271 38.3523 8.8466C37.8979 8.69606 37.4503 8.72195 36.9781 8.52217C36.7387 8.4196 36.4923 8.25949 36.235 7.98852C36.2254 7.97754 36.2145 7.9653 36.2022 7.9542C36.0584 7.79677 35.9106 7.60375 35.7588 7.36696C35.6368 7.17815 35.5138 6.96191 35.3865 6.71147C35.3426 6.62396 35.2962 6.53095 35.2509 6.43361C35.0265 6.35171 34.8008 6.27491 34.5721 6.20091C34.1601 6.06696 33.7399 5.9464 33.3158 5.83821H33.3144C32.8504 5.71791 32.3811 5.61381 31.906 5.52488C31.5352 5.4537 31.163 5.39208 30.7866 5.34143H30.7852C30.6224 5.31821 30.4595 5.29614 30.2953 5.27841H30.2939C29.9161 5.23337 29.537 5.19765 29.1567 5.17303H29.154C28.9008 5.15262 28.6448 5.13896 28.3903 5.1294C27.9469 5.11141 27.502 5.10733 27.0587 5.11294H27.0546C26.6905 5.11843 26.3279 5.13067 25.9652 5.15274H25.9638C24.921 5.21296 23.8822 5.33747 22.864 5.52501C22.8599 5.52616 22.8558 5.52616 22.8517 5.52769C22.511 5.59212 22.1729 5.6619 21.8376 5.73972C21.8362 5.73972 21.8348 5.73972 21.8334 5.74113C21.8321 5.74113 21.8307 5.74113 21.8294 5.74253C21.828 5.74253 21.8266 5.74253 21.8251 5.74368C21.824 5.74368 21.821 5.74508 21.8197 5.74508C20.5962 6.02843 19.411 6.40197 18.2847 6.87286C18.1478 6.9304 18.0124 6.98793 17.8783 7.04802C17.8756 7.04942 17.8742 7.04943 17.8715 7.0507C17.8701 7.0507 17.8701 7.0521 17.8687 7.0521C17.7291 7.11513 17.5869 7.17789 17.45 7.2436C17.4759 7.48854 17.4924 7.70491 17.5005 7.89641C17.5019 7.91554 17.5032 7.93481 17.5032 7.95254C17.5142 8.25094 17.506 8.48632 17.4855 8.67526C17.4828 8.69708 17.4801 8.71915 17.4773 8.73956C17.4198 9.16375 17.2954 9.33356 17.1994 9.46215C17.0312 9.71399 14.1708 10.0082 13.7916 10.4708C13.7 10.5899 13.6152 10.6762 13.5371 10.7419C13.4947 10.7787 13.4537 10.8076 13.4154 10.8322L13.0582 10.9702C13.0568 10.9702 13.0541 10.9716 13.0513 10.9716C12.9856 10.9894 12.9228 11.01 12.8598 11.0455L12.8584 11.0469C12.6956 11.1413 12.5314 11.3467 12.3192 11.9105C12.3069 11.9473 12.2849 11.9857 12.2548 12.0255V12.0268C11.9087 12.5018 10.5346 13.1778 10.3417 13.3326C10.3155 13.353 10.2746 13.4038 10.2184 13.4776V13.479C10.0597 13.6912 9.79017 14.0894 9.47952 14.5013V14.5027C9.33306 14.6957 9.17703 14.8927 9.0196 15.0746C8.83475 15.2855 8.64874 15.4756 8.47077 15.6153C8.29701 15.7522 8.13142 15.8425 7.98496 15.8574C7.18582 15.9411 7.10098 16.2366 7.05862 16.4461C7.05173 16.487 7.00377 16.5159 6.9299 16.5363C6.8369 16.6882 6.74517 16.8402 6.65472 16.9948C6.47011 17.3082 6.29355 17.6258 6.12387 17.9487V17.9501C6.11698 17.9609 6.1115 17.9719 6.10614 17.983C5.95011 18.2785 5.80085 18.5797 5.6572 18.8834C5.51482 19.1845 5.37933 19.4895 5.24933 19.7976C5.12495 20.0932 5.00579 20.3916 4.89365 20.694H4.89225C4.84173 20.8282 4.79235 20.9637 4.74438 21.1005V23.0807L7.28048 22.2404C7.28048 22.2404 7.28176 22.2418 7.28316 22.2404C7.29413 22.2432 7.30638 22.2458 7.31888 22.2472C7.32156 22.2404 7.32296 22.2336 7.32564 22.2267C7.42821 21.9283 7.5378 21.6327 7.65428 21.3399C7.77318 21.0348 7.9005 20.7338 8.03471 20.4353C8.17428 20.1218 8.32355 19.8126 8.47817 19.5074H8.47957C8.64236 19.1858 8.81344 18.8695 8.99128 18.559H8.99269L9.01999 18.5494V18.5096C9.19655 18.2059 9.38001 17.9061 9.5701 17.6133C9.57558 17.6023 9.58247 17.5929 9.59077 17.5833V17.5819C9.80433 17.2521 10.0261 16.9291 10.2585 16.6128C10.2585 16.6101 10.2599 16.6087 10.2628 16.6073C10.271 16.5951 10.2792 16.5828 10.2887 16.5719C10.5514 16.2118 10.8266 15.8617 11.1114 15.5209C11.1125 15.5209 11.1125 15.5195 11.1125 15.5195C11.3452 15.2416 11.5847 14.9707 11.8297 14.7053C11.9215 14.6068 12.0118 14.5095 12.1049 14.4137L12.1063 14.4124H12.1077C12.3908 14.1167 12.6837 13.8294 12.9848 13.5501C13.1027 13.4408 13.223 13.3313 13.3448 13.2246C13.3448 13.2246 13.3448 13.2232 13.3462 13.2232C13.8772 12.7538 14.4329 12.309 15.0103 11.8944V11.893C15.5824 11.4811 16.1764 11.0965 16.7895 10.742C17.1234 10.5476 17.4616 10.3642 17.8063 10.1905C17.8063 10.1891 17.8077 10.1891 17.8077 10.1891C19.6608 9.24757 21.6712 8.57141 23.7883 8.21024H23.7923C24.8543 8.02819 25.9425 7.92549 27.051 7.91044C27.1537 7.90904 27.2577 7.90776 27.3617 7.90776C27.9734 7.90776 28.5782 7.93366 29.1777 7.98571C29.7525 8.03355 30.3206 8.10627 30.8816 8.20195C31.3729 8.28271 31.8586 8.3826 32.3377 8.49895C32.7455 8.59616 33.1492 8.7069 33.5462 8.83014C33.5721 8.83703 33.5969 8.84379 33.6215 8.85336C34.0129 8.97392 34.3988 9.10519 34.7806 9.24885C35.1366 9.38306 35.4882 9.52543 35.8357 9.67865C36.1657 9.82243 36.49 9.97437 36.8103 10.1345H36.8117C37.1168 10.2877 37.4179 10.4478 37.7135 10.6162C37.7875 10.6558 37.8614 10.6982 37.9352 10.742C38.1461 10.8623 38.3527 10.9869 38.5579 11.1169C38.8249 11.2825 39.0876 11.455 39.3462 11.6344C39.5967 11.8068 39.8444 11.9846 40.0866 12.1682C40.3233 12.3446 40.556 12.5279 40.7832 12.7169C41.0063 12.8989 41.2238 13.0865 41.4387 13.278L41.44 13.2794C41.6509 13.4656 41.856 13.6571 42.0586 13.8527V13.8541C42.2571 14.0444 42.4528 14.2387 42.6418 14.4384H42.6429V14.4398C42.8319 14.6354 43.0152 14.8339 43.1944 15.0365C43.3205 15.1789 43.4449 15.3226 43.5668 15.4677V15.4691C43.6174 15.5266 43.6653 15.5839 43.713 15.6429C43.88 15.8454 44.0431 16.052 44.2018 16.2615C44.3605 16.4666 44.5138 16.6747 44.663 16.8869C44.8108 17.0963 44.9558 17.3099 45.0967 17.5246H45.0981C45.2335 17.7341 45.3677 17.9463 45.4963 18.1611C45.4991 18.1639 45.5006 18.1666 45.5018 18.1693C45.6319 18.3842 45.7577 18.6005 45.8783 18.8207C45.8783 18.8207 45.881 18.8221 45.8796 18.8235C46.0013 19.0383 46.1177 19.256 46.23 19.4762C46.2314 19.479 46.2327 19.4816 46.2341 19.4844C46.3451 19.7018 46.4531 19.9224 46.5557 20.1453C46.5584 20.1481 46.5598 20.1522 46.5612 20.1563C46.6664 20.3808 46.7677 20.6066 46.8637 20.8351C46.9608 21.0623 47.0524 21.2909 47.1415 21.5208C47.2305 21.7521 47.3139 21.9848 47.3932 22.2188C47.4754 22.4515 47.5507 22.6855 47.6233 22.9208C47.6945 23.1562 47.7614 23.393 47.8243 23.6325H47.8257C47.8886 23.8707 47.9487 24.1115 48.0036 24.3537C48.0597 24.5945 48.1104 24.8369 48.1568 25.0819C48.1596 25.0928 48.161 25.1051 48.1637 25.1162C48.6989 25.164 49.0532 25.1996 49.0532 25.1996C49.0014 25.0724 48.9752 24.9451 48.9711 24.8123C48.9615 24.5605 49.0299 24.291 49.1571 23.972C49.2626 23.7052 49.4104 23.4027 49.5869 23.0496C49.7252 22.773 49.8798 22.4664 50.0468 22.1189H50.048C50.1 22.0108 50.1535 21.8972 50.2084 21.781C50.1604 21.6317 50.1111 21.4841 50.0605 21.3361C49.9811 21.1021 49.8976 20.8694 49.8101 20.6381L49.8095 20.6382Z" fill="#FF6E4A"/>
<path d="M44.0289 55.2769C42.8942 56.0022 41.7106 56.6551 40.4815 57.2299L40.4801 57.2313C39.9791 57.4652 39.4715 57.6856 38.9568 57.8937C37.2366 58.5889 35.441 59.1323 33.5866 59.5113C33.421 59.5456 33.2554 59.577 33.0898 59.6085C33.1131 59.6222 33.1363 59.6374 33.161 59.6522C33.3814 59.7919 33.6249 59.9808 33.8727 60.1955C34.0807 60.3721 34.2914 60.5678 34.4954 60.7676C34.6964 60.9634 34.8922 61.1645 35.0729 61.356C35.0756 61.3588 35.0797 61.3628 35.0823 61.3669C35.2755 61.5721 35.4505 61.7665 35.5957 61.935H35.6791L35.9664 61.8392H35.9691C37.324 61.482 38.6461 61.044 39.9285 60.5295C39.9299 60.5295 39.9299 60.5281 39.9313 60.5281C40.5471 60.2804 41.1547 60.0161 41.7529 59.7343C41.6542 59.592 41.5736 59.4771 41.5214 59.4086C41.4914 59.3691 41.4612 59.317 41.4325 59.2526C41.4325 59.2526 41.4312 59.2512 41.4325 59.2499C41.3531 59.0748 41.2847 58.8187 41.2314 58.5396C41.193 58.3289 41.1616 58.1045 41.1438 57.8937C41.1411 57.8596 41.1384 57.8253 41.137 57.7925C41.1124 57.4475 41.1247 57.1466 41.185 57.0109C41.1876 57.0056 41.1917 57.0001 41.1959 56.9946V56.9932C41.5872 56.4048 44.0686 56.0613 44.2 55.2209L44.2055 55.2195V55.2181V55.1649C44.1479 55.2018 44.0904 55.2388 44.0316 55.2756C44.0316 55.2771 44.0303 55.2771 44.0289 55.2771V55.2769Z" fill="#FF6E4A"/>
<path d="M43.6447 62.4168C43.6242 62.3401 43.6038 62.2622 43.5831 62.1814C42.9029 62.5167 42.2119 62.83 41.5083 63.1229C41.5069 63.1229 41.5069 63.1243 41.5057 63.1243L39.6211 63.747V63.8496C39.9907 63.9633 40.3559 64.0713 40.705 64.1685C41.2004 64.3067 41.6575 64.4243 42.0311 64.5079C42.5033 64.612 42.8413 64.6611 42.9522 64.6268C43.319 64.4146 43.5434 64.1985 43.6706 63.9659C43.8062 63.7141 43.8296 63.4458 43.7953 63.146C43.7705 62.9216 43.7118 62.6807 43.6447 62.4166V62.4168Z" fill="#FF6E4A"/>
<path d="M50.1577 25.1995H50.2076V25.182C50.2063 25.1833 50.2036 25.1847 50.1982 25.1847L50.1577 25.1995Z" fill="#FF6E4A"/>
<path d="M44.5625 18.4799C44.5722 18.4758 44.5819 18.4729 44.5918 18.4702L44.5625 18.4785V18.4799Z" fill="#FF6E4A"/>
<path d="M20.0871 53.0706C20.1226 53.0584 20.1583 53.046 20.1953 53.0322L20.0857 53.068V53.0692L20.0871 53.0706Z" fill="#FF6E4A"/>
<path d="M6.97354 34.81C6.90643 34.5732 6.84354 34.3351 6.786 34.0943C6.76278 34.0011 6.74071 33.9066 6.71889 33.8136C6.69976 33.8903 6.67386 33.9396 6.63814 33.9519C6.3863 34.0353 6.09071 33.9095 6.09071 33.9095C6.10436 34.045 6.10295 34.1859 6.08803 34.3256C6.05779 34.6212 5.96887 34.9168 5.84168 35.1849C5.75684 35.3642 5.65541 35.5299 5.54468 35.6737C5.54468 35.6737 5.82649 35.7408 6.2276 35.8365C6.56146 35.9161 6.97902 36.0146 7.38548 36.1102C7.31557 35.9147 7.24987 35.7176 7.18697 35.5192C7.1117 35.2849 7.04051 35.0484 6.97341 34.8102L6.97354 34.81Z" fill="#FF6E4A"/>
</g>
<defs>
<clipPath id="clip0_1846_1171">
<rect width="147.894" height="64.4527" fill="white" transform="translate(0.368408 0.273682)"/>
</clipPath>
</defs>
</svg>
